<svg width="1238" height="340" viewBox="0 0 1238 340" fill="none" xmlns="http://www.w3.org/2000/svg">
<rect width="941" height="340" fill="#4F4F4F"/>
<rect x="620" y="18" width="618" height="303" fill="#0B99C6"/>
<path d="M138.5 150.5C150.513 150.5 160.25 140.763 160.25 128.75C160.25 116.737 150.513 107 138.5 107C126.487 107 116.75 116.737 116.75 128.75C116.75 140.763 126.487 150.5 138.5 150.5ZM154.779 156.039L146.656 188.562L141.219 165.453L146.656 155.938H130.344L135.781 165.453L130.344 188.562L122.221 156.039C110.106 156.617 100.438 166.524 100.438 178.775V185.844C100.438 190.347 104.091 194 108.594 194H168.406C172.909 194 176.562 190.347 176.562 185.844V178.775C176.562 166.524 166.894 156.617 154.779 156.039V156.039Z" fill="white"/>
<path d="M74.4258 222.5C74.4258 222.211 74.3828 221.953 74.2969 221.727C74.2109 221.492 74.0547 221.277 73.8281 221.082C73.6016 220.887 73.2812 220.691 72.8672 220.496C72.4531 220.293 71.9102 220.086 71.2383 219.875C70.4727 219.625 69.7422 219.344 69.0469 219.031C68.3594 218.711 67.7461 218.34 67.207 217.918C66.668 217.496 66.2422 217.004 65.9297 216.441C65.625 215.879 65.4727 215.223 65.4727 214.473C65.4727 213.746 65.6328 213.09 65.9531 212.504C66.2734 211.918 66.7227 211.418 67.3008 211.004C67.8789 210.582 68.5586 210.262 69.3398 210.043C70.1211 209.816 70.9805 209.703 71.918 209.703C73.168 209.703 74.2656 209.926 75.2109 210.371C76.1641 210.809 76.9062 211.426 77.4375 212.223C77.9688 213.012 78.2344 213.93 78.2344 214.977H74.4375C74.4375 214.516 74.3398 214.109 74.1445 213.758C73.957 213.398 73.668 213.117 73.2773 212.914C72.8945 212.711 72.4141 212.609 71.8359 212.609C71.2734 212.609 70.8008 212.695 70.418 212.867C70.043 213.031 69.7578 213.258 69.5625 213.547C69.375 213.836 69.2812 214.152 69.2812 214.496C69.2812 214.77 69.3516 215.02 69.4922 215.246C69.6406 215.465 69.8516 215.672 70.125 215.867C70.4062 216.055 70.75 216.234 71.1562 216.406C71.5625 216.578 72.0273 216.742 72.5508 216.898C73.4648 217.188 74.2734 217.508 74.9766 217.859C75.6875 218.211 76.2852 218.609 76.7695 219.055C77.2539 219.5 77.6172 220.004 77.8594 220.566C78.1094 221.129 78.2344 221.766 78.2344 222.477C78.2344 223.234 78.0859 223.906 77.7891 224.492C77.5 225.078 77.0781 225.578 76.5234 225.992C75.9766 226.398 75.3203 226.707 74.5547 226.918C73.7891 227.129 72.9336 227.234 71.9883 227.234C71.1289 227.234 70.2812 227.125 69.4453 226.906C68.6094 226.68 67.8516 226.336 67.1719 225.875C66.5 225.414 65.9609 224.828 65.5547 224.117C65.1562 223.398 64.957 222.547 64.957 221.562H68.7773C68.7773 222.078 68.8516 222.516 69 222.875C69.1484 223.227 69.3594 223.512 69.6328 223.73C69.9141 223.949 70.2539 224.105 70.6523 224.199C71.0508 224.293 71.4961 224.34 71.9883 224.34C72.5586 224.34 73.0195 224.262 73.3711 224.105C73.7305 223.941 73.9961 223.719 74.168 223.438C74.3398 223.156 74.4258 222.844 74.4258 222.5ZM86.2734 227.234C85.2656 227.234 84.3633 227.074 83.5664 226.754C82.7695 226.434 82.0938 225.992 81.5391 225.43C80.9922 224.859 80.5742 224.203 80.2852 223.461C79.9961 222.719 79.8516 221.926 79.8516 221.082V220.637C79.8516 219.691 79.9844 218.82 80.25 218.023C80.5156 217.227 80.9023 216.535 81.4102 215.949C81.9258 215.355 82.5586 214.898 83.3086 214.578C84.0586 214.25 84.9141 214.086 85.875 214.086C86.7734 214.086 87.5742 214.234 88.2773 214.531C88.9805 214.82 89.5742 215.238 90.0586 215.785C90.543 216.324 90.9102 216.977 91.1602 217.742C91.418 218.5 91.5469 219.352 91.5469 220.297V221.797H81.3281V219.441H87.9609V219.16C87.9609 218.715 87.8789 218.324 87.7148 217.988C87.5586 217.652 87.3242 217.395 87.0117 217.215C86.707 217.027 86.3203 216.934 85.8516 216.934C85.4062 216.934 85.0352 217.027 84.7383 217.215C84.4414 217.402 84.2031 217.668 84.0234 218.012C83.8516 218.348 83.7266 218.742 83.6484 219.195C83.5703 219.641 83.5312 220.121 83.5312 220.637V221.082C83.5312 221.574 83.5977 222.023 83.7305 222.43C83.8633 222.836 84.0586 223.184 84.3164 223.473C84.5742 223.762 84.8867 223.988 85.2539 224.152C85.6211 224.316 86.0391 224.398 86.5078 224.398C87.0859 224.398 87.6367 224.289 88.1602 224.07C88.6836 223.844 89.1367 223.492 89.5195 223.016L91.2305 224.973C90.9727 225.348 90.6094 225.711 90.1406 226.062C89.6797 226.406 89.125 226.688 88.4766 226.906C87.8281 227.125 87.0938 227.234 86.2734 227.234ZM96.9961 217.273V227H93.3398V214.32H96.7734L96.9961 217.273ZM100.781 214.227L100.723 217.637C100.566 217.613 100.363 217.594 100.113 217.578C99.8633 217.555 99.6484 217.543 99.4688 217.543C99 217.543 98.5938 217.602 98.25 217.719C97.9141 217.828 97.6328 217.992 97.4062 218.211C97.1875 218.43 97.0234 218.703 96.9141 219.031C96.8047 219.352 96.75 219.723 96.75 220.145L96.0586 219.805C96.0586 218.969 96.1406 218.203 96.3047 217.508C96.4688 216.812 96.707 216.211 97.0195 215.703C97.332 215.188 97.7148 214.789 98.168 214.508C98.6211 214.227 99.1367 214.086 99.7148 214.086C99.9023 214.086 100.094 214.098 100.289 214.121C100.484 214.145 100.648 214.18 100.781 214.227ZM106.934 224.41L109.582 214.32H113.426L109.219 227H106.91L106.934 224.41ZM105.223 214.32L107.859 224.422L107.883 227H105.574L101.367 214.32H105.223ZM120.586 227.234C119.578 227.234 118.676 227.074 117.879 226.754C117.082 226.434 116.406 225.992 115.852 225.43C115.305 224.859 114.887 224.203 114.598 223.461C114.309 222.719 114.164 221.926 114.164 221.082V220.637C114.164 219.691 114.297 218.82 114.562 218.023C114.828 217.227 115.215 216.535 115.723 215.949C116.238 215.355 116.871 214.898 117.621 214.578C118.371 214.25 119.227 214.086 120.188 214.086C121.086 214.086 121.887 214.234 122.59 214.531C123.293 214.82 123.887 215.238 124.371 215.785C124.855 216.324 125.223 216.977 125.473 217.742C125.73 218.5 125.859 219.352 125.859 220.297V221.797H115.641V219.441H122.273V219.16C122.273 218.715 122.191 218.324 122.027 217.988C121.871 217.652 121.637 217.395 121.324 217.215C121.02 217.027 120.633 216.934 120.164 216.934C119.719 216.934 119.348 217.027 119.051 217.215C118.754 217.402 118.516 217.668 118.336 218.012C118.164 218.348 118.039 218.742 117.961 219.195C117.883 219.641 117.844 220.121 117.844 220.637V221.082C117.844 221.574 117.91 222.023 118.043 222.43C118.176 222.836 118.371 223.184 118.629 223.473C118.887 223.762 119.199 223.988 119.566 224.152C119.934 224.316 120.352 224.398 120.82 224.398C121.398 224.398 121.949 224.289 122.473 224.07C122.996 223.844 123.449 223.492 123.832 223.016L125.543 224.973C125.285 225.348 124.922 225.711 124.453 226.062C123.992 226.406 123.438 226.688 122.789 226.906C122.141 227.125 121.406 227.234 120.586 227.234ZM131.309 217.273V227H127.652V214.32H131.086L131.309 217.273ZM135.094 214.227L135.035 217.637C134.879 217.613 134.676 217.594 134.426 217.578C134.176 217.555 133.961 217.543 133.781 217.543C133.312 217.543 132.906 217.602 132.562 217.719C132.227 217.828 131.945 217.992 131.719 218.211C131.5 218.43 131.336 218.703 131.227 219.031C131.117 219.352 131.062 219.723 131.062 220.145L130.371 219.805C130.371 218.969 130.453 218.203 130.617 217.508C130.781 216.812 131.02 216.211 131.332 215.703C131.645 215.188 132.027 214.789 132.48 214.508C132.934 214.227 133.449 214.086 134.027 214.086C134.215 214.086 134.406 214.098 134.602 214.121C134.797 214.145 134.961 214.18 135.094 214.227ZM149.848 213.184L145.441 227H141.363L147.68 209.938H150.258L149.848 213.184ZM153.504 227L149.086 213.184L148.629 209.938H151.242L157.582 227H153.504ZM153.316 220.648V223.602H144.422V220.648H153.316ZM166.195 224.164V209H169.875V227H166.57L166.195 224.164ZM158.297 220.812V220.566C158.297 219.605 158.402 218.73 158.613 217.941C158.832 217.145 159.148 216.461 159.562 215.891C159.984 215.312 160.504 214.867 161.121 214.555C161.738 214.242 162.445 214.086 163.242 214.086C163.977 214.086 164.617 214.25 165.164 214.578C165.711 214.898 166.176 215.352 166.559 215.938C166.949 216.516 167.266 217.199 167.508 217.988C167.75 218.77 167.934 219.617 168.059 220.531V220.953C167.941 221.828 167.758 222.645 167.508 223.402C167.266 224.16 166.949 224.828 166.559 225.406C166.176 225.977 165.707 226.426 165.152 226.754C164.605 227.074 163.961 227.234 163.219 227.234C162.422 227.234 161.715 227.074 161.098 226.754C160.488 226.434 159.977 225.984 159.562 225.406C159.148 224.828 158.832 224.148 158.613 223.367C158.402 222.586 158.297 221.734 158.297 220.812ZM161.953 220.566V220.812C161.953 221.312 161.988 221.777 162.059 222.207C162.137 222.637 162.262 223.016 162.434 223.344C162.605 223.672 162.832 223.93 163.113 224.117C163.395 224.297 163.738 224.387 164.145 224.387C164.691 224.387 165.141 224.262 165.492 224.012C165.844 223.754 166.109 223.398 166.289 222.945C166.469 222.492 166.562 221.965 166.57 221.363V220.133C166.57 219.633 166.52 219.184 166.418 218.785C166.316 218.387 166.164 218.051 165.961 217.777C165.766 217.504 165.52 217.297 165.223 217.156C164.926 217.008 164.574 216.934 164.168 216.934C163.77 216.934 163.43 217.027 163.148 217.215C162.867 217.395 162.637 217.648 162.457 217.977C162.285 218.305 162.156 218.691 162.07 219.137C161.992 219.574 161.953 220.051 161.953 220.566ZM175.98 216.98V227H172.324V214.32H175.758L175.98 216.98ZM175.512 220.215L174.586 220.238C174.586 219.348 174.691 218.531 174.902 217.789C175.121 217.039 175.438 216.387 175.852 215.832C176.266 215.277 176.777 214.848 177.387 214.543C178.004 214.238 178.715 214.086 179.52 214.086C180.082 214.086 180.594 214.172 181.055 214.344C181.516 214.508 181.91 214.77 182.238 215.129C182.574 215.48 182.832 215.941 183.012 216.512C183.191 217.074 183.281 217.75 183.281 218.539V227H179.625V218.984C179.625 218.422 179.555 217.996 179.414 217.707C179.281 217.41 179.086 217.207 178.828 217.098C178.57 216.988 178.262 216.934 177.902 216.934C177.512 216.934 177.164 217.02 176.859 217.191C176.562 217.355 176.312 217.586 176.109 217.883C175.906 218.18 175.754 218.527 175.652 218.926C175.559 219.324 175.512 219.754 175.512 220.215ZM182.906 220.027L181.746 220.121C181.746 219.262 181.848 218.465 182.051 217.73C182.254 216.996 182.559 216.359 182.965 215.82C183.371 215.273 183.875 214.848 184.477 214.543C185.086 214.238 185.793 214.086 186.598 214.086C187.191 214.086 187.73 214.172 188.215 214.344C188.707 214.516 189.129 214.793 189.48 215.176C189.84 215.559 190.117 216.062 190.312 216.688C190.508 217.305 190.605 218.062 190.605 218.961V227H186.926V218.961C186.926 218.406 186.855 217.984 186.715 217.695C186.582 217.406 186.387 217.207 186.129 217.098C185.879 216.988 185.578 216.934 185.227 216.934C184.836 216.934 184.496 217.016 184.207 217.18C183.918 217.336 183.676 217.555 183.48 217.836C183.285 218.109 183.141 218.434 183.047 218.809C182.953 219.184 182.906 219.59 182.906 220.027ZM196.91 214.32V227H193.242V214.32H196.91ZM193.02 211.039C193.02 210.508 193.207 210.074 193.582 209.738C193.957 209.395 194.449 209.223 195.059 209.223C195.668 209.223 196.16 209.395 196.535 209.738C196.918 210.074 197.109 210.508 197.109 211.039C197.109 211.562 196.918 211.996 196.535 212.34C196.16 212.676 195.668 212.844 195.059 212.844C194.449 212.844 193.957 212.676 193.582 212.34C193.207 211.996 193.02 211.562 193.02 211.039ZM203.133 217.027V227H199.465V214.32H202.91L203.133 217.027ZM202.652 220.215L201.738 220.238C201.738 219.285 201.855 218.43 202.09 217.672C202.324 216.914 202.656 216.27 203.086 215.738C203.523 215.199 204.043 214.789 204.645 214.508C205.254 214.227 205.926 214.086 206.66 214.086C207.254 214.086 207.797 214.172 208.289 214.344C208.781 214.516 209.203 214.793 209.555 215.176C209.914 215.551 210.188 216.051 210.375 216.676C210.562 217.293 210.656 218.055 210.656 218.961V227H206.977V218.949C206.977 218.418 206.902 218.008 206.754 217.719C206.605 217.43 206.387 217.227 206.098 217.109C205.816 216.992 205.473 216.934 205.066 216.934C204.637 216.934 204.27 217.02 203.965 217.191C203.66 217.355 203.41 217.586 203.215 217.883C203.02 218.18 202.875 218.527 202.781 218.926C202.695 219.324 202.652 219.754 202.652 220.215Z" fill="white"/>
<path d="M340.254 55.5C340.254 55.2109 340.211 54.9531 340.125 54.7266C340.039 54.4922 339.883 54.2773 339.656 54.082C339.43 53.8867 339.109 53.6914 338.695 53.4961C338.281 53.293 337.738 53.0859 337.066 52.875C336.301 52.625 335.57 52.3438 334.875 52.0312C334.188 51.7109 333.574 51.3398 333.035 50.918C332.496 50.4961 332.07 50.0039 331.758 49.4414C331.453 48.8789 331.301 48.2227 331.301 47.4727C331.301 46.7461 331.461 46.0898 331.781 45.5039C332.102 44.918 332.551 44.418 333.129 44.0039C333.707 43.582 334.387 43.2617 335.168 43.043C335.949 42.8164 336.809 42.7031 337.746 42.7031C338.996 42.7031 340.094 42.9258 341.039 43.3711C341.992 43.8086 342.734 44.4258 343.266 45.2227C343.797 46.0117 344.062 46.9297 344.062 47.9766H340.266C340.266 47.5156 340.168 47.1094 339.973 46.7578C339.785 46.3984 339.496 46.1172 339.105 45.9141C338.723 45.7109 338.242 45.6094 337.664 45.6094C337.102 45.6094 336.629 45.6953 336.246 45.8672C335.871 46.0312 335.586 46.2578 335.391 46.5469C335.203 46.8359 335.109 47.1523 335.109 47.4961C335.109 47.7695 335.18 48.0195 335.32 48.2461C335.469 48.4648 335.68 48.6719 335.953 48.8672C336.234 49.0547 336.578 49.2344 336.984 49.4062C337.391 49.5781 337.855 49.7422 338.379 49.8984C339.293 50.1875 340.102 50.5078 340.805 50.8594C341.516 51.2109 342.113 51.6094 342.598 52.0547C343.082 52.5 343.445 53.0039 343.688 53.5664C343.938 54.1289 344.062 54.7656 344.062 55.4766C344.062 56.2344 343.914 56.9062 343.617 57.4922C343.328 58.0781 342.906 58.5781 342.352 58.9922C341.805 59.3984 341.148 59.707 340.383 59.918C339.617 60.1289 338.762 60.2344 337.816 60.2344C336.957 60.2344 336.109 60.125 335.273 59.9062C334.438 59.6797 333.68 59.3359 333 58.875C332.328 58.4141 331.789 57.8281 331.383 57.1172C330.984 56.3984 330.785 55.5469 330.785 54.5625H334.605C334.605 55.0781 334.68 55.5156 334.828 55.875C334.977 56.2266 335.188 56.5117 335.461 56.7305C335.742 56.9492 336.082 57.1055 336.48 57.1992C336.879 57.293 337.324 57.3398 337.816 57.3398C338.387 57.3398 338.848 57.2617 339.199 57.1055C339.559 56.9414 339.824 56.7188 339.996 56.4375C340.168 56.1562 340.254 55.8438 340.254 55.5ZM352.84 56.9766V51.5391C352.84 51.1562 352.781 50.8281 352.664 50.5547C352.547 50.2812 352.363 50.0664 352.113 49.9102C351.863 49.7539 351.539 49.6758 351.141 49.6758C350.805 49.6758 350.512 49.7344 350.262 49.8516C350.02 49.9688 349.832 50.1367 349.699 50.3555C349.574 50.5742 349.512 50.8438 349.512 51.1641H345.855C345.855 50.5938 345.984 50.0625 346.242 49.5703C346.5 49.0781 346.867 48.6445 347.344 48.2695C347.828 47.8945 348.406 47.6055 349.078 47.4023C349.75 47.1914 350.504 47.0859 351.34 47.0859C352.332 47.0859 353.215 47.2539 353.988 47.5898C354.77 47.918 355.387 48.4141 355.84 49.0781C356.293 49.7344 356.52 50.5625 356.52 51.5625V56.8711C356.52 57.6367 356.562 58.2383 356.648 58.6758C356.742 59.1055 356.875 59.4805 357.047 59.8008V60H353.355C353.184 59.6328 353.055 59.1797 352.969 58.6406C352.883 58.0938 352.84 57.5391 352.84 56.9766ZM353.297 52.2656L353.32 54.2812H351.504C351.098 54.2812 350.746 54.332 350.449 54.4336C350.16 54.5352 349.926 54.6758 349.746 54.8555C349.566 55.0273 349.434 55.2305 349.348 55.4648C349.27 55.6914 349.23 55.9414 349.23 56.2148C349.23 56.4727 349.293 56.707 349.418 56.918C349.543 57.1211 349.715 57.2812 349.934 57.3984C350.152 57.5156 350.406 57.5742 350.695 57.5742C351.172 57.5742 351.578 57.4805 351.914 57.293C352.258 57.1055 352.523 56.8789 352.711 56.6133C352.898 56.3398 352.992 56.0859 352.992 55.8516L353.871 57.375C353.73 57.6875 353.559 58.0117 353.355 58.3477C353.152 58.6758 352.895 58.9844 352.582 59.2734C352.27 59.5547 351.891 59.7852 351.445 59.9648C351.008 60.1445 350.48 60.2344 349.863 60.2344C349.066 60.2344 348.344 60.0742 347.695 59.7539C347.047 59.4258 346.527 58.9766 346.137 58.4062C345.754 57.8359 345.562 57.1797 345.562 56.4375C345.562 55.7734 345.684 55.1836 345.926 54.668C346.168 54.1523 346.531 53.7148 347.016 53.3555C347.508 52.9961 348.125 52.7266 348.867 52.5469C349.609 52.3594 350.477 52.2656 351.469 52.2656H353.297ZM362.59 49.9805V60H358.934V47.3203H362.367L362.59 49.9805ZM362.121 53.2148L361.195 53.2383C361.195 52.3477 361.301 51.5312 361.512 50.7891C361.73 50.0391 362.047 49.3867 362.461 48.832C362.875 48.2773 363.387 47.8477 363.996 47.543C364.613 47.2383 365.324 47.0859 366.129 47.0859C366.691 47.0859 367.203 47.1719 367.664 47.3438C368.125 47.5078 368.52 47.7695 368.848 48.1289C369.184 48.4805 369.441 48.9414 369.621 49.5117C369.801 50.0742 369.891 50.75 369.891 51.5391V60H366.234V51.9844C366.234 51.4219 366.164 50.9961 366.023 50.707C365.891 50.4102 365.695 50.207 365.438 50.0977C365.18 49.9883 364.871 49.9336 364.512 49.9336C364.121 49.9336 363.773 50.0195 363.469 50.1914C363.172 50.3555 362.922 50.5859 362.719 50.8828C362.516 51.1797 362.363 51.5273 362.262 51.9258C362.168 52.3242 362.121 52.7539 362.121 53.2148ZM369.516 53.0273L368.355 53.1211C368.355 52.2617 368.457 51.4648 368.66 50.7305C368.863 49.9961 369.168 49.3594 369.574 48.8203C369.98 48.2734 370.484 47.8477 371.086 47.543C371.695 47.2383 372.402 47.0859 373.207 47.0859C373.801 47.0859 374.34 47.1719 374.824 47.3438C375.316 47.5156 375.738 47.793 376.09 48.1758C376.449 48.5586 376.727 49.0625 376.922 49.6875C377.117 50.3047 377.215 51.0625 377.215 51.9609V60H373.535V51.9609C373.535 51.4062 373.465 50.9844 373.324 50.6953C373.191 50.4062 372.996 50.207 372.738 50.0977C372.488 49.9883 372.188 49.9336 371.836 49.9336C371.445 49.9336 371.105 50.0156 370.816 50.1797C370.527 50.3359 370.285 50.5547 370.09 50.8359C369.895 51.1094 369.75 51.4336 369.656 51.8086C369.562 52.1836 369.516 52.5898 369.516 53.0273ZM385.641 60.2344C384.633 60.2344 383.73 60.0742 382.934 59.7539C382.137 59.4336 381.461 58.9922 380.906 58.4297C380.359 57.8594 379.941 57.2031 379.652 56.4609C379.363 55.7188 379.219 54.9258 379.219 54.082V53.6367C379.219 52.6914 379.352 51.8203 379.617 51.0234C379.883 50.2266 380.27 49.5352 380.777 48.9492C381.293 48.3555 381.926 47.8984 382.676 47.5781C383.426 47.25 384.281 47.0859 385.242 47.0859C386.141 47.0859 386.941 47.2344 387.645 47.5312C388.348 47.8203 388.941 48.2383 389.426 48.7852C389.91 49.3242 390.277 49.9766 390.527 50.7422C390.785 51.5 390.914 52.3516 390.914 53.2969V54.7969H380.695V52.4414H387.328V52.1602C387.328 51.7148 387.246 51.3242 387.082 50.9883C386.926 50.6523 386.691 50.3945 386.379 50.2148C386.074 50.0273 385.688 49.9336 385.219 49.9336C384.773 49.9336 384.402 50.0273 384.105 50.2148C383.809 50.4023 383.57 50.668 383.391 51.0117C383.219 51.3477 383.094 51.7422 383.016 52.1953C382.938 52.6406 382.898 53.1211 382.898 53.6367V54.082C382.898 54.5742 382.965 55.0234 383.098 55.4297C383.23 55.8359 383.426 56.1836 383.684 56.4727C383.941 56.7617 384.254 56.9883 384.621 57.1523C384.988 57.3164 385.406 57.3984 385.875 57.3984C386.453 57.3984 387.004 57.2891 387.527 57.0703C388.051 56.8438 388.504 56.4922 388.887 56.0156L390.598 57.9727C390.34 58.3477 389.977 58.7109 389.508 59.0625C389.047 59.4062 388.492 59.6875 387.844 59.9062C387.195 60.125 386.461 60.2344 385.641 60.2344ZM412.934 42.9375V60H409.125L402.68 48.9727V60H398.859V42.9375H402.68L409.137 53.9648V42.9375H412.934ZM421.547 60.2344C420.539 60.2344 419.637 60.0742 418.84 59.7539C418.043 59.4336 417.367 58.9922 416.812 58.4297C416.266 57.8594 415.848 57.2031 415.559 56.4609C415.27 55.7188 415.125 54.9258 415.125 54.082V53.6367C415.125 52.6914 415.258 51.8203 415.523 51.0234C415.789 50.2266 416.176 49.5352 416.684 48.9492C417.199 48.3555 417.832 47.8984 418.582 47.5781C419.332 47.25 420.188 47.0859 421.148 47.0859C422.047 47.0859 422.848 47.2344 423.551 47.5312C424.254 47.8203 424.848 48.2383 425.332 48.7852C425.816 49.3242 426.184 49.9766 426.434 50.7422C426.691 51.5 426.82 52.3516 426.82 53.2969V54.7969H416.602V52.4414H423.234V52.1602C423.234 51.7148 423.152 51.3242 422.988 50.9883C422.832 50.6523 422.598 50.3945 422.285 50.2148C421.98 50.0273 421.594 49.9336 421.125 49.9336C420.68 49.9336 420.309 50.0273 420.012 50.2148C419.715 50.4023 419.477 50.668 419.297 51.0117C419.125 51.3477 419 51.7422 418.922 52.1953C418.844 52.6406 418.805 53.1211 418.805 53.6367V54.082C418.805 54.5742 418.871 55.0234 419.004 55.4297C419.137 55.8359 419.332 56.1836 419.59 56.4727C419.848 56.7617 420.16 56.9883 420.527 57.1523C420.895 57.3164 421.312 57.3984 421.781 57.3984C422.359 57.3984 422.91 57.2891 423.434 57.0703C423.957 56.8438 424.41 56.4922 424.793 56.0156L426.504 57.9727C426.246 58.3477 425.883 58.7109 425.414 59.0625C424.953 59.4062 424.398 59.6875 423.75 59.9062C423.102 60.125 422.367 60.2344 421.547 60.2344ZM435.047 47.3203V49.8867H427.523V47.3203H435.047ZM429.246 44.1797H432.914V56.0273C432.914 56.3789 432.957 56.6484 433.043 56.8359C433.129 57.0234 433.27 57.1562 433.465 57.2344C433.66 57.3047 433.91 57.3398 434.215 57.3398C434.434 57.3398 434.621 57.332 434.777 57.3164C434.934 57.3008 435.078 57.2812 435.211 57.2578V59.9062C434.898 60.0078 434.566 60.0859 434.215 60.1406C433.863 60.2031 433.48 60.2344 433.066 60.2344C432.277 60.2344 431.594 60.1055 431.016 59.8477C430.445 59.5898 430.008 59.1836 429.703 58.6289C429.398 58.0664 429.246 57.3359 429.246 56.4375V44.1797ZM440.543 56.4727L443.027 47.3203H445.336L444.551 51.3984L442.066 60H440.18L440.543 56.4727ZM439.406 47.3203L441.07 56.4375L441.246 60H438.996L435.879 47.3203H439.406ZM447.586 56.2617L449.238 47.3203H452.766L449.672 60H447.422L447.586 56.2617ZM445.617 47.3203L448.125 56.4258L448.488 60H446.578L444.117 51.4102L443.367 47.3203H445.617ZM453.809 53.7891V53.543C453.809 52.6133 453.941 51.7578 454.207 50.9766C454.473 50.1875 454.863 49.5039 455.379 48.9258C455.895 48.3477 456.527 47.8984 457.277 47.5781C458.027 47.25 458.887 47.0859 459.855 47.0859C460.84 47.0859 461.707 47.25 462.457 47.5781C463.215 47.8984 463.852 48.3477 464.367 48.9258C464.883 49.5039 465.273 50.1875 465.539 50.9766C465.805 51.7578 465.938 52.6133 465.938 53.543V53.7891C465.938 54.7109 465.805 55.5664 465.539 56.3555C465.273 57.1367 464.883 57.8203 464.367 58.4062C463.852 58.9844 463.219 59.4336 462.469 59.7539C461.719 60.0742 460.855 60.2344 459.879 60.2344C458.91 60.2344 458.047 60.0742 457.289 59.7539C456.531 59.4336 455.895 58.9844 455.379 58.4062C454.863 57.8203 454.473 57.1367 454.207 56.3555C453.941 55.5664 453.809 54.7109 453.809 53.7891ZM457.477 53.543V53.7891C457.477 54.2891 457.516 54.7578 457.594 55.1953C457.68 55.6328 457.816 56.0156 458.004 56.3438C458.191 56.6719 458.438 56.9297 458.742 57.1172C459.055 57.2969 459.434 57.3867 459.879 57.3867C460.324 57.3867 460.699 57.2969 461.004 57.1172C461.309 56.9297 461.555 56.6719 461.742 56.3438C461.93 56.0156 462.062 55.6328 462.141 55.1953C462.227 54.7578 462.27 54.2891 462.27 53.7891V53.543C462.27 53.0508 462.227 52.5898 462.141 52.1602C462.062 51.7227 461.93 51.3359 461.742 51C461.555 50.6641 461.305 50.4023 460.992 50.2148C460.688 50.0273 460.309 49.9336 459.855 49.9336C459.418 49.9336 459.047 50.0273 458.742 50.2148C458.438 50.4023 458.191 50.6641 458.004 51C457.816 51.3359 457.68 51.7227 457.594 52.1602C457.516 52.5898 457.477 53.0508 457.477 53.543ZM471.527 50.2734V60H467.871V47.3203H471.305L471.527 50.2734ZM475.312 47.2266L475.254 50.6367C475.098 50.6133 474.895 50.5938 474.645 50.5781C474.395 50.5547 474.18 50.543 474 50.543C473.531 50.543 473.125 50.6016 472.781 50.7188C472.445 50.8281 472.164 50.9922 471.938 51.2109C471.719 51.4297 471.555 51.7031 471.445 52.0312C471.336 52.3516 471.281 52.7227 471.281 53.1445L470.59 52.8047C470.59 51.9688 470.672 51.2031 470.836 50.5078C471 49.8125 471.238 49.2109 471.551 48.7031C471.863 48.1875 472.246 47.7891 472.699 47.5078C473.152 47.2266 473.668 47.0859 474.246 47.0859C474.434 47.0859 474.625 47.0977 474.82 47.1211C475.016 47.1445 475.18 47.1797 475.312 47.2266ZM480.492 41.9883V60H476.824V41.9883H480.492ZM488.543 47.3203L483.023 53.6953L480.105 56.625L478.641 54.1523L481.008 51.0938L484.137 47.3203H488.543ZM484.676 60L481.102 54.1758L483.727 52.125L488.871 60H484.676Z" fill="white"/>
<path d="M497.562 134.188H421.438C418.434 134.188 416 131.753 416 128.75V117.875C416 114.872 418.434 112.438 421.438 112.438H497.562C500.566 112.438 503 114.872 503 117.875V128.75C503 131.753 500.566 134.188 497.562 134.188ZM489.406 119.234C487.154 119.234 485.328 121.06 485.328 123.312C485.328 125.565 487.154 127.391 489.406 127.391C491.659 127.391 493.484 125.565 493.484 123.312C493.484 121.06 491.659 119.234 489.406 119.234ZM478.531 119.234C476.279 119.234 474.453 121.06 474.453 123.312C474.453 125.565 476.279 127.391 478.531 127.391C480.784 127.391 482.609 125.565 482.609 123.312C482.609 121.06 480.784 119.234 478.531 119.234ZM497.562 161.375H421.438C418.434 161.375 416 158.941 416 155.938V145.062C416 142.059 418.434 139.625 421.438 139.625H497.562C500.566 139.625 503 142.059 503 145.062V155.938C503 158.941 500.566 161.375 497.562 161.375ZM489.406 146.422C487.154 146.422 485.328 148.248 485.328 150.5C485.328 152.752 487.154 154.578 489.406 154.578C491.659 154.578 493.484 152.752 493.484 150.5C493.484 148.248 491.659 146.422 489.406 146.422ZM478.531 146.422C476.279 146.422 474.453 148.248 474.453 150.5C474.453 152.752 476.279 154.578 478.531 154.578C480.784 154.578 482.609 152.752 482.609 150.5C482.609 148.248 480.784 146.422 478.531 146.422ZM497.562 188.562H421.438C418.434 188.562 416 186.128 416 183.125V172.25C416 169.247 418.434 166.812 421.438 166.812H497.562C500.566 166.812 503 169.247 503 172.25V183.125C503 186.128 500.566 188.562 497.562 188.562ZM489.406 173.609C487.154 173.609 485.328 175.435 485.328 177.688C485.328 179.94 487.154 181.766 489.406 181.766C491.659 181.766 493.484 179.94 493.484 177.688C493.484 175.435 491.659 173.609 489.406 173.609ZM478.531 173.609C476.279 173.609 474.453 175.435 474.453 177.688C474.453 179.94 476.279 181.766 478.531 181.766C480.784 181.766 482.609 179.94 482.609 177.688C482.609 175.435 480.784 173.609 478.531 173.609Z" fill="white"/>
<path d="M388.504 219.629H384.121L384.098 217.074H387.719C388.359 217.074 388.879 216.996 389.277 216.84C389.684 216.684 389.98 216.457 390.168 216.16C390.355 215.855 390.449 215.48 390.449 215.035C390.449 214.527 390.355 214.117 390.168 213.805C389.98 213.492 389.684 213.266 389.277 213.125C388.879 212.977 388.363 212.902 387.73 212.902H385.504V227H381.684V209.938H387.73C388.754 209.938 389.668 210.031 390.473 210.219C391.277 210.406 391.961 210.695 392.523 211.086C393.094 211.477 393.527 211.965 393.824 212.551C394.121 213.137 394.27 213.828 394.27 214.625C394.27 215.32 394.113 215.969 393.801 216.57C393.496 217.172 393.004 217.66 392.324 218.035C391.645 218.41 390.734 218.613 389.594 218.645L388.504 219.629ZM388.352 227H383.148L384.531 224.047H388.352C388.938 224.047 389.414 223.953 389.781 223.766C390.148 223.578 390.418 223.324 390.59 223.004C390.762 222.684 390.848 222.324 390.848 221.926C390.848 221.457 390.766 221.051 390.602 220.707C390.445 220.363 390.195 220.098 389.852 219.91C389.516 219.723 389.066 219.629 388.504 219.629H385.082L385.105 217.074H389.289L390.18 218.082C391.266 218.059 392.133 218.234 392.781 218.609C393.438 218.977 393.91 219.461 394.199 220.062C394.488 220.664 394.633 221.301 394.633 221.973C394.633 223.082 394.395 224.012 393.918 224.762C393.441 225.504 392.734 226.062 391.797 226.438C390.867 226.812 389.719 227 388.352 227ZM403.633 223.977V218.539C403.633 218.156 403.574 217.828 403.457 217.555C403.34 217.281 403.156 217.066 402.906 216.91C402.656 216.754 402.332 216.676 401.934 216.676C401.598 216.676 401.305 216.734 401.055 216.852C400.812 216.969 400.625 217.137 400.492 217.355C400.367 217.574 400.305 217.844 400.305 218.164H396.648C396.648 217.594 396.777 217.062 397.035 216.57C397.293 216.078 397.66 215.645 398.137 215.27C398.621 214.895 399.199 214.605 399.871 214.402C400.543 214.191 401.297 214.086 402.133 214.086C403.125 214.086 404.008 214.254 404.781 214.59C405.562 214.918 406.18 215.414 406.633 216.078C407.086 216.734 407.312 217.562 407.312 218.562V223.871C407.312 224.637 407.355 225.238 407.441 225.676C407.535 226.105 407.668 226.48 407.84 226.801V227H404.148C403.977 226.633 403.848 226.18 403.762 225.641C403.676 225.094 403.633 224.539 403.633 223.977ZM404.09 219.266L404.113 221.281H402.297C401.891 221.281 401.539 221.332 401.242 221.434C400.953 221.535 400.719 221.676 400.539 221.855C400.359 222.027 400.227 222.23 400.141 222.465C400.062 222.691 400.023 222.941 400.023 223.215C400.023 223.473 400.086 223.707 400.211 223.918C400.336 224.121 400.508 224.281 400.727 224.398C400.945 224.516 401.199 224.574 401.488 224.574C401.965 224.574 402.371 224.48 402.707 224.293C403.051 224.105 403.316 223.879 403.504 223.613C403.691 223.34 403.785 223.086 403.785 222.852L404.664 224.375C404.523 224.688 404.352 225.012 404.148 225.348C403.945 225.676 403.688 225.984 403.375 226.273C403.062 226.555 402.684 226.785 402.238 226.965C401.801 227.145 401.273 227.234 400.656 227.234C399.859 227.234 399.137 227.074 398.488 226.754C397.84 226.426 397.32 225.977 396.93 225.406C396.547 224.836 396.355 224.18 396.355 223.438C396.355 222.773 396.477 222.184 396.719 221.668C396.961 221.152 397.324 220.715 397.809 220.355C398.301 219.996 398.918 219.727 399.66 219.547C400.402 219.359 401.27 219.266 402.262 219.266H404.09ZM416.465 223.473C416.465 223.238 416.391 223.031 416.242 222.852C416.102 222.672 415.844 222.508 415.469 222.359C415.102 222.211 414.582 222.062 413.91 221.914C413.277 221.781 412.688 221.609 412.141 221.398C411.594 221.18 411.117 220.918 410.711 220.613C410.305 220.301 409.988 219.934 409.762 219.512C409.535 219.082 409.422 218.594 409.422 218.047C409.422 217.516 409.535 217.012 409.762 216.535C409.996 216.059 410.332 215.637 410.77 215.27C411.215 214.902 411.754 214.613 412.387 214.402C413.027 214.191 413.754 214.086 414.566 214.086C415.684 214.086 416.648 214.262 417.461 214.613C418.273 214.957 418.898 215.441 419.336 216.066C419.773 216.684 419.992 217.391 419.992 218.188H416.336C416.336 217.859 416.273 217.574 416.148 217.332C416.023 217.09 415.832 216.902 415.574 216.77C415.316 216.629 414.977 216.559 414.555 216.559C414.227 216.559 413.938 216.617 413.688 216.734C413.445 216.844 413.254 216.996 413.113 217.191C412.98 217.387 412.914 217.613 412.914 217.871C412.914 218.051 412.953 218.215 413.031 218.363C413.117 218.504 413.246 218.637 413.418 218.762C413.598 218.879 413.828 218.984 414.109 219.078C414.398 219.172 414.75 219.262 415.164 219.348C416.047 219.512 416.852 219.742 417.578 220.039C418.312 220.336 418.898 220.746 419.336 221.27C419.781 221.793 420.004 222.484 420.004 223.344C420.004 223.906 419.875 224.422 419.617 224.891C419.367 225.359 419.004 225.77 418.527 226.121C418.051 226.473 417.48 226.746 416.816 226.941C416.152 227.137 415.402 227.234 414.566 227.234C413.371 227.234 412.359 227.02 411.531 226.59C410.703 226.16 410.078 225.621 409.656 224.973C409.242 224.316 409.035 223.645 409.035 222.957H412.469C412.484 223.379 412.59 223.723 412.785 223.988C412.988 224.254 413.25 224.449 413.57 224.574C413.891 224.691 414.25 224.75 414.648 224.75C415.047 224.75 415.379 224.695 415.645 224.586C415.91 224.477 416.113 224.328 416.254 224.141C416.395 223.945 416.465 223.723 416.465 223.473ZM428.488 214.32V216.887H420.965V214.32H428.488ZM422.688 211.18H426.355V223.027C426.355 223.379 426.398 223.648 426.484 223.836C426.57 224.023 426.711 224.156 426.906 224.234C427.102 224.305 427.352 224.34 427.656 224.34C427.875 224.34 428.062 224.332 428.219 224.316C428.375 224.301 428.52 224.281 428.652 224.258V226.906C428.34 227.008 428.008 227.086 427.656 227.141C427.305 227.203 426.922 227.234 426.508 227.234C425.719 227.234 425.035 227.105 424.457 226.848C423.887 226.59 423.449 226.184 423.145 225.629C422.84 225.066 422.688 224.336 422.688 223.438V211.18ZM434.102 214.32V227H430.434V214.32H434.102ZM430.211 211.039C430.211 210.508 430.398 210.074 430.773 209.738C431.148 209.395 431.641 209.223 432.25 209.223C432.859 209.223 433.352 209.395 433.727 209.738C434.109 210.074 434.301 210.508 434.301 211.039C434.301 211.562 434.109 211.996 433.727 212.34C433.352 212.676 432.859 212.844 432.25 212.844C431.641 212.844 431.148 212.676 430.773 212.34C430.398 211.996 430.211 211.562 430.211 211.039ZM436.211 220.789V220.543C436.211 219.613 436.344 218.758 436.609 217.977C436.875 217.188 437.266 216.504 437.781 215.926C438.297 215.348 438.93 214.898 439.68 214.578C440.43 214.25 441.289 214.086 442.258 214.086C443.242 214.086 444.109 214.25 444.859 214.578C445.617 214.898 446.254 215.348 446.77 215.926C447.285 216.504 447.676 217.188 447.941 217.977C448.207 218.758 448.34 219.613 448.34 220.543V220.789C448.34 221.711 448.207 222.566 447.941 223.355C447.676 224.137 447.285 224.82 446.77 225.406C446.254 225.984 445.621 226.434 444.871 226.754C444.121 227.074 443.258 227.234 442.281 227.234C441.312 227.234 440.449 227.074 439.691 226.754C438.934 226.434 438.297 225.984 437.781 225.406C437.266 224.82 436.875 224.137 436.609 223.355C436.344 222.566 436.211 221.711 436.211 220.789ZM439.879 220.543V220.789C439.879 221.289 439.918 221.758 439.996 222.195C440.082 222.633 440.219 223.016 440.406 223.344C440.594 223.672 440.84 223.93 441.145 224.117C441.457 224.297 441.836 224.387 442.281 224.387C442.727 224.387 443.102 224.297 443.406 224.117C443.711 223.93 443.957 223.672 444.145 223.344C444.332 223.016 444.465 222.633 444.543 222.195C444.629 221.758 444.672 221.289 444.672 220.789V220.543C444.672 220.051 444.629 219.59 444.543 219.16C444.465 218.723 444.332 218.336 444.145 218C443.957 217.664 443.707 217.402 443.395 217.215C443.09 217.027 442.711 216.934 442.258 216.934C441.82 216.934 441.449 217.027 441.145 217.215C440.84 217.402 440.594 217.664 440.406 218C440.219 218.336 440.082 218.723 439.996 219.16C439.918 219.59 439.879 220.051 439.879 220.543ZM453.848 217.027V227H450.18V214.32H453.625L453.848 217.027ZM453.367 220.215L452.453 220.238C452.453 219.285 452.57 218.43 452.805 217.672C453.039 216.914 453.371 216.27 453.801 215.738C454.238 215.199 454.758 214.789 455.359 214.508C455.969 214.227 456.641 214.086 457.375 214.086C457.969 214.086 458.512 214.172 459.004 214.344C459.496 214.516 459.918 214.793 460.27 215.176C460.629 215.551 460.902 216.051 461.09 216.676C461.277 217.293 461.371 218.055 461.371 218.961V227H457.691V218.949C457.691 218.418 457.617 218.008 457.469 217.719C457.32 217.43 457.102 217.227 456.812 217.109C456.531 216.992 456.188 216.934 455.781 216.934C455.352 216.934 454.984 217.02 454.68 217.191C454.375 217.355 454.125 217.586 453.93 217.883C453.734 218.18 453.59 218.527 453.496 218.926C453.41 219.324 453.367 219.754 453.367 220.215ZM478.773 222.5C478.773 222.211 478.73 221.953 478.645 221.727C478.559 221.492 478.402 221.277 478.176 221.082C477.949 220.887 477.629 220.691 477.215 220.496C476.801 220.293 476.258 220.086 475.586 219.875C474.82 219.625 474.09 219.344 473.395 219.031C472.707 218.711 472.094 218.34 471.555 217.918C471.016 217.496 470.59 217.004 470.277 216.441C469.973 215.879 469.82 215.223 469.82 214.473C469.82 213.746 469.98 213.09 470.301 212.504C470.621 211.918 471.07 211.418 471.648 211.004C472.227 210.582 472.906 210.262 473.688 210.043C474.469 209.816 475.328 209.703 476.266 209.703C477.516 209.703 478.613 209.926 479.559 210.371C480.512 210.809 481.254 211.426 481.785 212.223C482.316 213.012 482.582 213.93 482.582 214.977H478.785C478.785 214.516 478.688 214.109 478.492 213.758C478.305 213.398 478.016 213.117 477.625 212.914C477.242 212.711 476.762 212.609 476.184 212.609C475.621 212.609 475.148 212.695 474.766 212.867C474.391 213.031 474.105 213.258 473.91 213.547C473.723 213.836 473.629 214.152 473.629 214.496C473.629 214.77 473.699 215.02 473.84 215.246C473.988 215.465 474.199 215.672 474.473 215.867C474.754 216.055 475.098 216.234 475.504 216.406C475.91 216.578 476.375 216.742 476.898 216.898C477.812 217.188 478.621 217.508 479.324 217.859C480.035 218.211 480.633 218.609 481.117 219.055C481.602 219.5 481.965 220.004 482.207 220.566C482.457 221.129 482.582 221.766 482.582 222.477C482.582 223.234 482.434 223.906 482.137 224.492C481.848 225.078 481.426 225.578 480.871 225.992C480.324 226.398 479.668 226.707 478.902 226.918C478.137 227.129 477.281 227.234 476.336 227.234C475.477 227.234 474.629 227.125 473.793 226.906C472.957 226.68 472.199 226.336 471.52 225.875C470.848 225.414 470.309 224.828 469.902 224.117C469.504 223.398 469.305 222.547 469.305 221.562H473.125C473.125 222.078 473.199 222.516 473.348 222.875C473.496 223.227 473.707 223.512 473.98 223.73C474.262 223.949 474.602 224.105 475 224.199C475.398 224.293 475.844 224.34 476.336 224.34C476.906 224.34 477.367 224.262 477.719 224.105C478.078 223.941 478.344 223.719 478.516 223.438C478.688 223.156 478.773 222.844 478.773 222.5ZM490.621 227.234C489.613 227.234 488.711 227.074 487.914 226.754C487.117 226.434 486.441 225.992 485.887 225.43C485.34 224.859 484.922 224.203 484.633 223.461C484.344 222.719 484.199 221.926 484.199 221.082V220.637C484.199 219.691 484.332 218.82 484.598 218.023C484.863 217.227 485.25 216.535 485.758 215.949C486.273 215.355 486.906 214.898 487.656 214.578C488.406 214.25 489.262 214.086 490.223 214.086C491.121 214.086 491.922 214.234 492.625 214.531C493.328 214.82 493.922 215.238 494.406 215.785C494.891 216.324 495.258 216.977 495.508 217.742C495.766 218.5 495.895 219.352 495.895 220.297V221.797H485.676V219.441H492.309V219.16C492.309 218.715 492.227 218.324 492.062 217.988C491.906 217.652 491.672 217.395 491.359 217.215C491.055 217.027 490.668 216.934 490.199 216.934C489.754 216.934 489.383 217.027 489.086 217.215C488.789 217.402 488.551 217.668 488.371 218.012C488.199 218.348 488.074 218.742 487.996 219.195C487.918 219.641 487.879 220.121 487.879 220.637V221.082C487.879 221.574 487.945 222.023 488.078 222.43C488.211 222.836 488.406 223.184 488.664 223.473C488.922 223.762 489.234 223.988 489.602 224.152C489.969 224.316 490.387 224.398 490.855 224.398C491.434 224.398 491.984 224.289 492.508 224.07C493.031 223.844 493.484 223.492 493.867 223.016L495.578 224.973C495.32 225.348 494.957 225.711 494.488 226.062C494.027 226.406 493.473 226.688 492.824 226.906C492.176 227.125 491.441 227.234 490.621 227.234ZM501.344 217.273V227H497.688V214.32H501.121L501.344 217.273ZM505.129 214.227L505.07 217.637C504.914 217.613 504.711 217.594 504.461 217.578C504.211 217.555 503.996 217.543 503.816 217.543C503.348 217.543 502.941 217.602 502.598 217.719C502.262 217.828 501.98 217.992 501.754 218.211C501.535 218.43 501.371 218.703 501.262 219.031C501.152 219.352 501.098 219.723 501.098 220.145L500.406 219.805C500.406 218.969 500.488 218.203 500.652 217.508C500.816 216.812 501.055 216.211 501.367 215.703C501.68 215.188 502.062 214.789 502.516 214.508C502.969 214.227 503.484 214.086 504.062 214.086C504.25 214.086 504.441 214.098 504.637 214.121C504.832 214.145 504.996 214.18 505.129 214.227ZM511.281 224.41L513.93 214.32H517.773L513.566 227H511.258L511.281 224.41ZM509.57 214.32L512.207 224.422L512.23 227H509.922L505.715 214.32H509.57ZM524.934 227.234C523.926 227.234 523.023 227.074 522.227 226.754C521.43 226.434 520.754 225.992 520.199 225.43C519.652 224.859 519.234 224.203 518.945 223.461C518.656 222.719 518.512 221.926 518.512 221.082V220.637C518.512 219.691 518.645 218.82 518.91 218.023C519.176 217.227 519.562 216.535 520.07 215.949C520.586 215.355 521.219 214.898 521.969 214.578C522.719 214.25 523.574 214.086 524.535 214.086C525.434 214.086 526.234 214.234 526.938 214.531C527.641 214.82 528.234 215.238 528.719 215.785C529.203 216.324 529.57 216.977 529.82 217.742C530.078 218.5 530.207 219.352 530.207 220.297V221.797H519.988V219.441H526.621V219.16C526.621 218.715 526.539 218.324 526.375 217.988C526.219 217.652 525.984 217.395 525.672 217.215C525.367 217.027 524.98 216.934 524.512 216.934C524.066 216.934 523.695 217.027 523.398 217.215C523.102 217.402 522.863 217.668 522.684 218.012C522.512 218.348 522.387 218.742 522.309 219.195C522.23 219.641 522.191 220.121 522.191 220.637V221.082C522.191 221.574 522.258 222.023 522.391 222.43C522.523 222.836 522.719 223.184 522.977 223.473C523.234 223.762 523.547 223.988 523.914 224.152C524.281 224.316 524.699 224.398 525.168 224.398C525.746 224.398 526.297 224.289 526.82 224.07C527.344 223.844 527.797 223.492 528.18 223.016L529.891 224.973C529.633 225.348 529.27 225.711 528.801 226.062C528.34 226.406 527.785 226.688 527.137 226.906C526.488 227.125 525.754 227.234 524.934 227.234ZM535.656 217.273V227H532V214.32H535.434L535.656 217.273ZM539.441 214.227L539.383 217.637C539.227 217.613 539.023 217.594 538.773 217.578C538.523 217.555 538.309 217.543 538.129 217.543C537.66 217.543 537.254 217.602 536.91 217.719C536.574 217.828 536.293 217.992 536.066 218.211C535.848 218.43 535.684 218.703 535.574 219.031C535.465 219.352 535.41 219.723 535.41 220.145L534.719 219.805C534.719 218.969 534.801 218.203 534.965 217.508C535.129 216.812 535.367 216.211 535.68 215.703C535.992 215.188 536.375 214.789 536.828 214.508C537.281 214.227 537.797 214.086 538.375 214.086C538.562 214.086 538.754 214.098 538.949 214.121C539.145 214.145 539.309 214.18 539.441 214.227Z" fill="white"/>
<path d="M818.562 134.188H742.438C739.434 134.188 737 131.753 737 128.75V117.875C737 114.872 739.434 112.438 742.438 112.438H818.562C821.566 112.438 824 114.872 824 117.875V128.75C824 131.753 821.566 134.188 818.562 134.188ZM810.406 119.234C808.154 119.234 806.328 121.06 806.328 123.312C806.328 125.565 808.154 127.391 810.406 127.391C812.659 127.391 814.484 125.565 814.484 123.312C814.484 121.06 812.659 119.234 810.406 119.234ZM799.531 119.234C797.279 119.234 795.453 121.06 795.453 123.312C795.453 125.565 797.279 127.391 799.531 127.391C801.784 127.391 803.609 125.565 803.609 123.312C803.609 121.06 801.784 119.234 799.531 119.234ZM818.562 161.375H742.438C739.434 161.375 737 158.941 737 155.938V145.062C737 142.059 739.434 139.625 742.438 139.625H818.562C821.566 139.625 824 142.059 824 145.062V155.938C824 158.941 821.566 161.375 818.562 161.375ZM810.406 146.422C808.154 146.422 806.328 148.248 806.328 150.5C806.328 152.752 808.154 154.578 810.406 154.578C812.659 154.578 814.484 152.752 814.484 150.5C814.484 148.248 812.659 146.422 810.406 146.422ZM799.531 146.422C797.279 146.422 795.453 148.248 795.453 150.5C795.453 152.752 797.279 154.578 799.531 154.578C801.784 154.578 803.609 152.752 803.609 150.5C803.609 148.248 801.784 146.422 799.531 146.422ZM818.562 188.562H742.438C739.434 188.562 737 186.128 737 183.125V172.25C737 169.247 739.434 166.812 742.438 166.812H818.562C821.566 166.812 824 169.247 824 172.25V183.125C824 186.128 821.566 188.562 818.562 188.562ZM810.406 173.609C808.154 173.609 806.328 175.435 806.328 177.688C806.328 179.94 808.154 181.766 810.406 181.766C812.659 181.766 814.484 179.94 814.484 177.688C814.484 175.435 812.659 173.609 810.406 173.609ZM799.531 173.609C797.279 173.609 795.453 175.435 795.453 177.688C795.453 179.94 797.279 181.766 799.531 181.766C801.784 181.766 803.609 179.94 803.609 177.688C803.609 175.435 801.784 173.609 799.531 173.609Z" fill="white"/>
<path d="M724.793 224.867L728.191 209.938H730.148L730.922 211.789L727.301 227H725.156L724.793 224.867ZM723.469 209.938L726.316 224.938L725.824 227H723.387L719.684 209.938H723.469ZM733.348 224.855L736.16 209.938H739.934L736.23 227H733.816L733.348 224.855ZM731.426 209.938L734.871 224.949L734.473 227H732.34L728.66 211.777L729.469 209.938H731.426ZM747.105 227.234C746.098 227.234 745.195 227.074 744.398 226.754C743.602 226.434 742.926 225.992 742.371 225.43C741.824 224.859 741.406 224.203 741.117 223.461C740.828 222.719 740.684 221.926 740.684 221.082V220.637C740.684 219.691 740.816 218.82 741.082 218.023C741.348 217.227 741.734 216.535 742.242 215.949C742.758 215.355 743.391 214.898 744.141 214.578C744.891 214.25 745.746 214.086 746.707 214.086C747.605 214.086 748.406 214.234 749.109 214.531C749.812 214.82 750.406 215.238 750.891 215.785C751.375 216.324 751.742 216.977 751.992 217.742C752.25 218.5 752.379 219.352 752.379 220.297V221.797H742.16V219.441H748.793V219.16C748.793 218.715 748.711 218.324 748.547 217.988C748.391 217.652 748.156 217.395 747.844 217.215C747.539 217.027 747.152 216.934 746.684 216.934C746.238 216.934 745.867 217.027 745.57 217.215C745.273 217.402 745.035 217.668 744.855 218.012C744.684 218.348 744.559 218.742 744.48 219.195C744.402 219.641 744.363 220.121 744.363 220.637V221.082C744.363 221.574 744.43 222.023 744.562 222.43C744.695 222.836 744.891 223.184 745.148 223.473C745.406 223.762 745.719 223.988 746.086 224.152C746.453 224.316 746.871 224.398 747.34 224.398C747.918 224.398 748.469 224.289 748.992 224.07C749.516 223.844 749.969 223.492 750.352 223.016L752.062 224.973C751.805 225.348 751.441 225.711 750.973 226.062C750.512 226.406 749.957 226.688 749.309 226.906C748.66 227.125 747.926 227.234 747.105 227.234ZM754.172 209H757.828V223.988L757.453 227H754.172V209ZM765.738 220.52V220.766C765.738 221.727 765.637 222.602 765.434 223.391C765.238 224.18 764.938 224.863 764.531 225.441C764.125 226.012 763.613 226.453 762.996 226.766C762.379 227.078 761.652 227.234 760.816 227.234C760.043 227.234 759.379 227.074 758.824 226.754C758.27 226.426 757.805 225.973 757.43 225.395C757.055 224.816 756.75 224.141 756.516 223.367C756.289 222.594 756.113 221.762 755.988 220.871V220.449C756.113 219.559 756.289 218.727 756.516 217.953C756.75 217.18 757.055 216.504 757.43 215.926C757.805 215.348 758.266 214.898 758.812 214.578C759.367 214.25 760.027 214.086 760.793 214.086C761.637 214.086 762.367 214.246 762.984 214.566C763.609 214.887 764.125 215.336 764.531 215.914C764.938 216.484 765.238 217.164 765.434 217.953C765.637 218.734 765.738 219.59 765.738 220.52ZM762.082 220.766V220.52C762.082 220.035 762.047 219.578 761.977 219.148C761.914 218.719 761.801 218.34 761.637 218.012C761.48 217.676 761.258 217.414 760.969 217.227C760.688 217.031 760.324 216.934 759.879 216.934C759.441 216.934 759.07 217.008 758.766 217.156C758.461 217.305 758.215 217.516 758.027 217.789C757.84 218.055 757.703 218.379 757.617 218.762C757.531 219.145 757.484 219.57 757.477 220.039V221.281C757.484 221.906 757.566 222.453 757.723 222.922C757.879 223.391 758.133 223.754 758.484 224.012C758.836 224.262 759.309 224.387 759.902 224.387C760.355 224.387 760.723 224.301 761.004 224.129C761.293 223.949 761.512 223.699 761.66 223.379C761.816 223.059 761.926 222.676 761.988 222.23C762.051 221.785 762.082 221.297 762.082 220.766ZM782.695 222.5C782.695 222.211 782.652 221.953 782.566 221.727C782.48 221.492 782.324 221.277 782.098 221.082C781.871 220.887 781.551 220.691 781.137 220.496C780.723 220.293 780.18 220.086 779.508 219.875C778.742 219.625 778.012 219.344 777.316 219.031C776.629 218.711 776.016 218.34 775.477 217.918C774.938 217.496 774.512 217.004 774.199 216.441C773.895 215.879 773.742 215.223 773.742 214.473C773.742 213.746 773.902 213.09 774.223 212.504C774.543 211.918 774.992 211.418 775.57 211.004C776.148 210.582 776.828 210.262 777.609 210.043C778.391 209.816 779.25 209.703 780.188 209.703C781.438 209.703 782.535 209.926 783.48 210.371C784.434 210.809 785.176 211.426 785.707 212.223C786.238 213.012 786.504 213.93 786.504 214.977H782.707C782.707 214.516 782.609 214.109 782.414 213.758C782.227 213.398 781.938 213.117 781.547 212.914C781.164 212.711 780.684 212.609 780.105 212.609C779.543 212.609 779.07 212.695 778.688 212.867C778.312 213.031 778.027 213.258 777.832 213.547C777.645 213.836 777.551 214.152 777.551 214.496C777.551 214.77 777.621 215.02 777.762 215.246C777.91 215.465 778.121 215.672 778.395 215.867C778.676 216.055 779.02 216.234 779.426 216.406C779.832 216.578 780.297 216.742 780.82 216.898C781.734 217.188 782.543 217.508 783.246 217.859C783.957 218.211 784.555 218.609 785.039 219.055C785.523 219.5 785.887 220.004 786.129 220.566C786.379 221.129 786.504 221.766 786.504 222.477C786.504 223.234 786.355 223.906 786.059 224.492C785.77 225.078 785.348 225.578 784.793 225.992C784.246 226.398 783.59 226.707 782.824 226.918C782.059 227.129 781.203 227.234 780.258 227.234C779.398 227.234 778.551 227.125 777.715 226.906C776.879 226.68 776.121 226.336 775.441 225.875C774.77 225.414 774.23 224.828 773.824 224.117C773.426 223.398 773.227 222.547 773.227 221.562H777.047C777.047 222.078 777.121 222.516 777.27 222.875C777.418 223.227 777.629 223.512 777.902 223.73C778.184 223.949 778.523 224.105 778.922 224.199C779.32 224.293 779.766 224.34 780.258 224.34C780.828 224.34 781.289 224.262 781.641 224.105C782 223.941 782.266 223.719 782.438 223.438C782.609 223.156 782.695 222.844 782.695 222.5ZM794.543 227.234C793.535 227.234 792.633 227.074 791.836 226.754C791.039 226.434 790.363 225.992 789.809 225.43C789.262 224.859 788.844 224.203 788.555 223.461C788.266 222.719 788.121 221.926 788.121 221.082V220.637C788.121 219.691 788.254 218.82 788.52 218.023C788.785 217.227 789.172 216.535 789.68 215.949C790.195 215.355 790.828 214.898 791.578 214.578C792.328 214.25 793.184 214.086 794.145 214.086C795.043 214.086 795.844 214.234 796.547 214.531C797.25 214.82 797.844 215.238 798.328 215.785C798.812 216.324 799.18 216.977 799.43 217.742C799.688 218.5 799.816 219.352 799.816 220.297V221.797H789.598V219.441H796.23V219.16C796.23 218.715 796.148 218.324 795.984 217.988C795.828 217.652 795.594 217.395 795.281 217.215C794.977 217.027 794.59 216.934 794.121 216.934C793.676 216.934 793.305 217.027 793.008 217.215C792.711 217.402 792.473 217.668 792.293 218.012C792.121 218.348 791.996 218.742 791.918 219.195C791.84 219.641 791.801 220.121 791.801 220.637V221.082C791.801 221.574 791.867 222.023 792 222.43C792.133 222.836 792.328 223.184 792.586 223.473C792.844 223.762 793.156 223.988 793.523 224.152C793.891 224.316 794.309 224.398 794.777 224.398C795.355 224.398 795.906 224.289 796.43 224.07C796.953 223.844 797.406 223.492 797.789 223.016L799.5 224.973C799.242 225.348 798.879 225.711 798.41 226.062C797.949 226.406 797.395 226.688 796.746 226.906C796.098 227.125 795.363 227.234 794.543 227.234ZM805.266 217.273V227H801.609V214.32H805.043L805.266 217.273ZM809.051 214.227L808.992 217.637C808.836 217.613 808.633 217.594 808.383 217.578C808.133 217.555 807.918 217.543 807.738 217.543C807.27 217.543 806.863 217.602 806.52 217.719C806.184 217.828 805.902 217.992 805.676 218.211C805.457 218.43 805.293 218.703 805.184 219.031C805.074 219.352 805.02 219.723 805.02 220.145L804.328 219.805C804.328 218.969 804.41 218.203 804.574 217.508C804.738 216.812 804.977 216.211 805.289 215.703C805.602 215.188 805.984 214.789 806.438 214.508C806.891 214.227 807.406 214.086 807.984 214.086C808.172 214.086 808.363 214.098 808.559 214.121C808.754 214.145 808.918 214.18 809.051 214.227ZM815.203 224.41L817.852 214.32H821.695L817.488 227H815.18L815.203 224.41ZM813.492 214.32L816.129 224.422L816.152 227H813.844L809.637 214.32H813.492ZM828.855 227.234C827.848 227.234 826.945 227.074 826.148 226.754C825.352 226.434 824.676 225.992 824.121 225.43C823.574 224.859 823.156 224.203 822.867 223.461C822.578 222.719 822.434 221.926 822.434 221.082V220.637C822.434 219.691 822.566 218.82 822.832 218.023C823.098 217.227 823.484 216.535 823.992 215.949C824.508 215.355 825.141 214.898 825.891 214.578C826.641 214.25 827.496 214.086 828.457 214.086C829.355 214.086 830.156 214.234 830.859 214.531C831.562 214.82 832.156 215.238 832.641 215.785C833.125 216.324 833.492 216.977 833.742 217.742C834 218.5 834.129 219.352 834.129 220.297V221.797H823.91V219.441H830.543V219.16C830.543 218.715 830.461 218.324 830.297 217.988C830.141 217.652 829.906 217.395 829.594 217.215C829.289 217.027 828.902 216.934 828.434 216.934C827.988 216.934 827.617 217.027 827.32 217.215C827.023 217.402 826.785 217.668 826.605 218.012C826.434 218.348 826.309 218.742 826.23 219.195C826.152 219.641 826.113 220.121 826.113 220.637V221.082C826.113 221.574 826.18 222.023 826.312 222.43C826.445 222.836 826.641 223.184 826.898 223.473C827.156 223.762 827.469 223.988 827.836 224.152C828.203 224.316 828.621 224.398 829.09 224.398C829.668 224.398 830.219 224.289 830.742 224.07C831.266 223.844 831.719 223.492 832.102 223.016L833.812 224.973C833.555 225.348 833.191 225.711 832.723 226.062C832.262 226.406 831.707 226.688 831.059 226.906C830.41 227.125 829.676 227.234 828.855 227.234ZM839.578 217.273V227H835.922V214.32H839.355L839.578 217.273ZM843.363 214.227L843.305 217.637C843.148 217.613 842.945 217.594 842.695 217.578C842.445 217.555 842.23 217.543 842.051 217.543C841.582 217.543 841.176 217.602 840.832 217.719C840.496 217.828 840.215 217.992 839.988 218.211C839.77 218.43 839.605 218.703 839.496 219.031C839.387 219.352 839.332 219.723 839.332 220.145L838.641 219.805C838.641 218.969 838.723 218.203 838.887 217.508C839.051 216.812 839.289 216.211 839.602 215.703C839.914 215.188 840.297 214.789 840.75 214.508C841.203 214.227 841.719 214.086 842.297 214.086C842.484 214.086 842.676 214.098 842.871 214.121C843.066 214.145 843.23 214.18 843.363 214.227Z" fill="white"/>
<path d="M1084.1 150.5C1092.51 150.5 1099.32 143.69 1099.32 135.275C1099.32 126.86 1092.51 120.05 1084.1 120.05C1075.69 120.05 1068.87 126.86 1068.87 135.275C1068.87 143.69 1075.69 150.5 1084.1 150.5ZM1094.54 154.85H1093.41C1090.58 156.209 1087.44 157.025 1084.1 157.025C1080.76 157.025 1077.63 156.209 1074.79 154.85H1073.66C1065.01 154.85 1058 161.864 1058 170.51V174.425C1058 178.027 1060.92 180.95 1064.52 180.95H1103.67C1107.28 180.95 1110.2 178.027 1110.2 174.425V170.51C1110.2 161.864 1103.19 154.85 1094.54 154.85ZM1123.25 150.5C1130.45 150.5 1136.3 144.655 1136.3 137.45C1136.3 130.245 1130.45 124.4 1123.25 124.4C1116.05 124.4 1110.2 130.245 1110.2 137.45C1110.2 144.655 1116.05 150.5 1123.25 150.5ZM1129.77 154.85H1129.26C1127.37 155.503 1125.37 155.938 1123.25 155.938C1121.13 155.938 1119.13 155.503 1117.24 154.85H1116.72C1113.95 154.85 1111.4 155.652 1109.15 156.943C1112.47 160.519 1114.55 165.263 1114.55 170.51V175.73C1114.55 176.029 1114.48 176.315 1114.47 176.6H1138.47C1142.08 176.6 1145 173.677 1145 170.075C1145 161.66 1138.19 154.85 1129.77 154.85V154.85Z" fill="white"/>
<path d="M1081.98 209.938H1085.8V221.141C1085.8 222.469 1085.52 223.586 1084.96 224.492C1084.4 225.398 1083.63 226.082 1082.64 226.543C1081.64 227.004 1080.5 227.234 1079.19 227.234C1077.88 227.234 1076.72 227.004 1075.72 226.543C1074.73 226.082 1073.95 225.398 1073.38 224.492C1072.82 223.586 1072.54 222.469 1072.54 221.141V209.938H1076.37V221.141C1076.37 221.875 1076.48 222.477 1076.7 222.945C1076.92 223.406 1077.25 223.746 1077.67 223.965C1078.09 224.176 1078.6 224.281 1079.19 224.281C1079.79 224.281 1080.29 224.176 1080.7 223.965C1081.12 223.746 1081.44 223.406 1081.65 222.945C1081.87 222.477 1081.98 221.875 1081.98 221.141V209.938ZM1095.09 223.473C1095.09 223.238 1095.02 223.031 1094.87 222.852C1094.73 222.672 1094.47 222.508 1094.1 222.359C1093.73 222.211 1093.21 222.062 1092.54 221.914C1091.91 221.781 1091.32 221.609 1090.77 221.398C1090.22 221.18 1089.75 220.918 1089.34 220.613C1088.93 220.301 1088.62 219.934 1088.39 219.512C1088.16 219.082 1088.05 218.594 1088.05 218.047C1088.05 217.516 1088.16 217.012 1088.39 216.535C1088.62 216.059 1088.96 215.637 1089.4 215.27C1089.84 214.902 1090.38 214.613 1091.02 214.402C1091.66 214.191 1092.38 214.086 1093.2 214.086C1094.31 214.086 1095.28 214.262 1096.09 214.613C1096.9 214.957 1097.53 215.441 1097.96 216.066C1098.4 216.684 1098.62 217.391 1098.62 218.188H1094.96C1094.96 217.859 1094.9 217.574 1094.78 217.332C1094.65 217.09 1094.46 216.902 1094.2 216.77C1093.95 216.629 1093.61 216.559 1093.18 216.559C1092.86 216.559 1092.57 216.617 1092.32 216.734C1092.07 216.844 1091.88 216.996 1091.74 217.191C1091.61 217.387 1091.54 217.613 1091.54 217.871C1091.54 218.051 1091.58 218.215 1091.66 218.363C1091.75 218.504 1091.88 218.637 1092.05 218.762C1092.23 218.879 1092.46 218.984 1092.74 219.078C1093.03 219.172 1093.38 219.262 1093.79 219.348C1094.68 219.512 1095.48 219.742 1096.21 220.039C1096.94 220.336 1097.53 220.746 1097.96 221.27C1098.41 221.793 1098.63 222.484 1098.63 223.344C1098.63 223.906 1098.5 224.422 1098.25 224.891C1098 225.359 1097.63 225.77 1097.16 226.121C1096.68 226.473 1096.11 226.746 1095.45 226.941C1094.78 227.137 1094.03 227.234 1093.2 227.234C1092 227.234 1090.99 227.02 1090.16 226.59C1089.33 226.16 1088.71 225.621 1088.29 224.973C1087.87 224.316 1087.66 223.645 1087.66 222.957H1091.1C1091.11 223.379 1091.22 223.723 1091.41 223.988C1091.62 224.254 1091.88 224.449 1092.2 224.574C1092.52 224.691 1092.88 224.75 1093.28 224.75C1093.68 224.75 1094.01 224.695 1094.27 224.586C1094.54 224.477 1094.74 224.328 1094.88 224.141C1095.02 223.945 1095.09 223.723 1095.09 223.473ZM1106.65 227.234C1105.64 227.234 1104.74 227.074 1103.94 226.754C1103.14 226.434 1102.47 225.992 1101.91 225.43C1101.37 224.859 1100.95 224.203 1100.66 223.461C1100.37 222.719 1100.23 221.926 1100.23 221.082V220.637C1100.23 219.691 1100.36 218.82 1100.62 218.023C1100.89 217.227 1101.28 216.535 1101.79 215.949C1102.3 215.355 1102.93 214.898 1103.68 214.578C1104.43 214.25 1105.29 214.086 1106.25 214.086C1107.15 214.086 1107.95 214.234 1108.65 214.531C1109.36 214.82 1109.95 215.238 1110.43 215.785C1110.92 216.324 1111.29 216.977 1111.54 217.742C1111.79 218.5 1111.92 219.352 1111.92 220.297V221.797H1101.7V219.441H1108.34V219.16C1108.34 218.715 1108.25 218.324 1108.09 217.988C1107.93 217.652 1107.7 217.395 1107.39 217.215C1107.08 217.027 1106.7 216.934 1106.23 216.934C1105.78 216.934 1105.41 217.027 1105.11 217.215C1104.82 217.402 1104.58 217.668 1104.4 218.012C1104.23 218.348 1104.1 218.742 1104.02 219.195C1103.95 219.641 1103.91 220.121 1103.91 220.637V221.082C1103.91 221.574 1103.97 222.023 1104.11 222.43C1104.24 222.836 1104.43 223.184 1104.69 223.473C1104.95 223.762 1105.26 223.988 1105.63 224.152C1106 224.316 1106.41 224.398 1106.88 224.398C1107.46 224.398 1108.01 224.289 1108.54 224.07C1109.06 223.844 1109.51 223.492 1109.89 223.016L1111.61 224.973C1111.35 225.348 1110.98 225.711 1110.52 226.062C1110.05 226.406 1109.5 226.688 1108.85 226.906C1108.2 227.125 1107.47 227.234 1106.65 227.234ZM1117.37 217.273V227H1113.71V214.32H1117.15L1117.37 217.273ZM1121.16 214.227L1121.1 217.637C1120.94 217.613 1120.74 217.594 1120.49 217.578C1120.24 217.555 1120.02 217.543 1119.84 217.543C1119.38 217.543 1118.97 217.602 1118.62 217.719C1118.29 217.828 1118.01 217.992 1117.78 218.211C1117.56 218.43 1117.4 218.703 1117.29 219.031C1117.18 219.352 1117.12 219.723 1117.12 220.145L1116.43 219.805C1116.43 218.969 1116.52 218.203 1116.68 217.508C1116.84 216.812 1117.08 216.211 1117.39 215.703C1117.71 215.188 1118.09 214.789 1118.54 214.508C1119 214.227 1119.51 214.086 1120.09 214.086C1120.28 214.086 1120.47 214.098 1120.66 214.121C1120.86 214.145 1121.02 214.18 1121.16 214.227ZM1129.41 223.473C1129.41 223.238 1129.33 223.031 1129.18 222.852C1129.04 222.672 1128.79 222.508 1128.41 222.359C1128.04 222.211 1127.52 222.062 1126.85 221.914C1126.22 221.781 1125.63 221.609 1125.08 221.398C1124.54 221.18 1124.06 220.918 1123.65 220.613C1123.25 220.301 1122.93 219.934 1122.7 219.512C1122.48 219.082 1122.36 218.594 1122.36 218.047C1122.36 217.516 1122.48 217.012 1122.7 216.535C1122.94 216.059 1123.27 215.637 1123.71 215.27C1124.16 214.902 1124.7 214.613 1125.33 214.402C1125.97 214.191 1126.7 214.086 1127.51 214.086C1128.62 214.086 1129.59 214.262 1130.4 214.613C1131.21 214.957 1131.84 215.441 1132.28 216.066C1132.71 216.684 1132.93 217.391 1132.93 218.188H1129.28C1129.28 217.859 1129.21 217.574 1129.09 217.332C1128.96 217.09 1128.77 216.902 1128.52 216.77C1128.26 216.629 1127.92 216.559 1127.5 216.559C1127.17 216.559 1126.88 216.617 1126.63 216.734C1126.39 216.844 1126.2 216.996 1126.05 217.191C1125.92 217.387 1125.86 217.613 1125.86 217.871C1125.86 218.051 1125.89 218.215 1125.97 218.363C1126.06 218.504 1126.19 218.637 1126.36 218.762C1126.54 218.879 1126.77 218.984 1127.05 219.078C1127.34 219.172 1127.69 219.262 1128.11 219.348C1128.99 219.512 1129.79 219.742 1130.52 220.039C1131.25 220.336 1131.84 220.746 1132.28 221.27C1132.72 221.793 1132.95 222.484 1132.95 223.344C1132.95 223.906 1132.82 224.422 1132.56 224.891C1132.31 225.359 1131.95 225.77 1131.47 226.121C1130.99 226.473 1130.42 226.746 1129.76 226.941C1129.09 227.137 1128.34 227.234 1127.51 227.234C1126.31 227.234 1125.3 227.02 1124.47 226.59C1123.64 226.16 1123.02 225.621 1122.6 224.973C1122.18 224.316 1121.98 223.645 1121.98 222.957H1125.41C1125.43 223.379 1125.53 223.723 1125.73 223.988C1125.93 224.254 1126.19 224.449 1126.51 224.574C1126.83 224.691 1127.19 224.75 1127.59 224.75C1127.99 224.75 1128.32 224.695 1128.59 224.586C1128.85 224.477 1129.05 224.328 1129.2 224.141C1129.34 223.945 1129.41 223.723 1129.41 223.473Z" fill="white"/>
<rect x="334.5" y="70.5" width="571" height="199" stroke="white" stroke-width="9"/>
<rect x="893" y="100" width="34" height="140" fill="#0B99C6"/>
<path d="M883.633 155.094V155.855C883.633 157.152 883.453 158.316 883.094 159.348C882.742 160.379 882.238 161.258 881.582 161.984C880.934 162.711 880.16 163.27 879.262 163.66C878.371 164.043 877.383 164.234 876.297 164.234C875.211 164.234 874.219 164.043 873.32 163.66C872.422 163.27 871.641 162.711 870.977 161.984C870.32 161.258 869.812 160.379 869.453 159.348C869.094 158.316 868.914 157.152 868.914 155.855V155.094C868.914 153.797 869.094 152.633 869.453 151.602C869.812 150.562 870.316 149.68 870.965 148.953C871.621 148.227 872.398 147.672 873.297 147.289C874.195 146.898 875.188 146.703 876.273 146.703C877.359 146.703 878.352 146.898 879.25 147.289C880.148 147.672 880.922 148.227 881.57 148.953C882.227 149.68 882.734 150.562 883.094 151.602C883.453 152.633 883.633 153.797 883.633 155.094ZM879.777 155.855V155.07C879.777 154.203 879.699 153.438 879.543 152.773C879.387 152.102 879.16 151.539 878.863 151.086C878.566 150.633 878.199 150.293 877.762 150.066C877.324 149.832 876.828 149.715 876.273 149.715C875.695 149.715 875.191 149.832 874.762 150.066C874.332 150.293 873.969 150.633 873.672 151.086C873.383 151.539 873.16 152.102 873.004 152.773C872.855 153.438 872.781 154.203 872.781 155.07V155.855C872.781 156.715 872.855 157.48 873.004 158.152C873.16 158.816 873.387 159.379 873.684 159.84C873.98 160.301 874.344 160.648 874.773 160.883C875.211 161.117 875.719 161.234 876.297 161.234C876.852 161.234 877.344 161.117 877.773 160.883C878.211 160.648 878.578 160.301 878.875 159.84C879.172 159.379 879.395 158.816 879.543 158.152C879.699 157.48 879.777 156.715 879.777 155.855ZM889.457 153.758V168.875H885.801V151.32H889.211L889.457 153.758ZM897.367 157.52V157.766C897.367 158.688 897.262 159.543 897.051 160.332C896.84 161.113 896.523 161.797 896.102 162.383C895.688 162.969 895.176 163.426 894.566 163.754C893.957 164.074 893.25 164.234 892.445 164.234C891.68 164.234 891.016 164.074 890.453 163.754C889.898 163.426 889.43 162.973 889.047 162.395C888.672 161.809 888.367 161.141 888.133 160.391C887.906 159.633 887.73 158.824 887.605 157.965V157.484C887.73 156.57 887.91 155.723 888.145 154.941C888.379 154.16 888.684 153.484 889.059 152.914C889.434 152.336 889.898 151.887 890.453 151.566C891.008 151.246 891.668 151.086 892.434 151.086C893.23 151.086 893.938 151.238 894.555 151.543C895.172 151.848 895.688 152.285 896.102 152.855C896.523 153.418 896.84 154.094 897.051 154.883C897.262 155.672 897.367 156.551 897.367 157.52ZM893.699 157.766V157.52C893.699 157.004 893.66 156.531 893.582 156.102C893.504 155.664 893.379 155.285 893.207 154.965C893.035 154.637 892.809 154.383 892.527 154.203C892.246 154.023 891.902 153.934 891.496 153.934C891.059 153.934 890.688 154.004 890.383 154.145C890.078 154.285 889.832 154.492 889.645 154.766C889.457 155.031 889.32 155.359 889.234 155.75C889.156 156.141 889.113 156.586 889.105 157.086V158.375C889.113 158.961 889.195 159.484 889.352 159.945C889.516 160.398 889.77 160.754 890.113 161.012C890.465 161.262 890.934 161.387 891.52 161.387C891.934 161.387 892.277 161.297 892.551 161.117C892.832 160.93 893.055 160.668 893.219 160.332C893.391 159.996 893.512 159.609 893.582 159.172C893.66 158.734 893.699 158.266 893.699 157.766ZM905.289 164.234C904.281 164.234 903.379 164.074 902.582 163.754C901.785 163.434 901.109 162.992 900.555 162.43C900.008 161.859 899.59 161.203 899.301 160.461C899.012 159.719 898.867 158.926 898.867 158.082V157.637C898.867 156.691 899 155.82 899.266 155.023C899.531 154.227 899.918 153.535 900.426 152.949C900.941 152.355 901.574 151.898 902.324 151.578C903.074 151.25 903.93 151.086 904.891 151.086C905.789 151.086 906.59 151.234 907.293 151.531C907.996 151.82 908.59 152.238 909.074 152.785C909.559 153.324 909.926 153.977 910.176 154.742C910.434 155.5 910.562 156.352 910.562 157.297V158.797H900.344V156.441H906.977V156.16C906.977 155.715 906.895 155.324 906.73 154.988C906.574 154.652 906.34 154.395 906.027 154.215C905.723 154.027 905.336 153.934 904.867 153.934C904.422 153.934 904.051 154.027 903.754 154.215C903.457 154.402 903.219 154.668 903.039 155.012C902.867 155.348 902.742 155.742 902.664 156.195C902.586 156.641 902.547 157.121 902.547 157.637V158.082C902.547 158.574 902.613 159.023 902.746 159.43C902.879 159.836 903.074 160.184 903.332 160.473C903.59 160.762 903.902 160.988 904.27 161.152C904.637 161.316 905.055 161.398 905.523 161.398C906.102 161.398 906.652 161.289 907.176 161.07C907.699 160.844 908.152 160.492 908.535 160.016L910.246 161.973C909.988 162.348 909.625 162.711 909.156 163.062C908.695 163.406 908.141 163.688 907.492 163.906C906.844 164.125 906.109 164.234 905.289 164.234ZM915.93 154.027V164H912.262V151.32H915.707L915.93 154.027ZM915.449 157.215L914.535 157.238C914.535 156.285 914.652 155.43 914.887 154.672C915.121 153.914 915.453 153.27 915.883 152.738C916.32 152.199 916.84 151.789 917.441 151.508C918.051 151.227 918.723 151.086 919.457 151.086C920.051 151.086 920.594 151.172 921.086 151.344C921.578 151.516 922 151.793 922.352 152.176C922.711 152.551 922.984 153.051 923.172 153.676C923.359 154.293 923.453 155.055 923.453 155.961V164H919.773V155.949C919.773 155.418 919.699 155.008 919.551 154.719C919.402 154.43 919.184 154.227 918.895 154.109C918.613 153.992 918.27 153.934 917.863 153.934C917.434 153.934 917.066 154.02 916.762 154.191C916.457 154.355 916.207 154.586 916.012 154.883C915.816 155.18 915.672 155.527 915.578 155.926C915.492 156.324 915.449 156.754 915.449 157.215ZM938.266 151.32V153.887H930.742V151.32H938.266ZM932.465 148.18H936.133V160.027C936.133 160.379 936.176 160.648 936.262 160.836C936.348 161.023 936.488 161.156 936.684 161.234C936.879 161.305 937.129 161.34 937.434 161.34C937.652 161.34 937.84 161.332 937.996 161.316C938.152 161.301 938.297 161.281 938.43 161.258V163.906C938.117 164.008 937.785 164.086 937.434 164.141C937.082 164.203 936.699 164.234 936.285 164.234C935.496 164.234 934.812 164.105 934.234 163.848C933.664 163.59 933.227 163.184 932.922 162.629C932.617 162.066 932.465 161.336 932.465 160.438V148.18ZM939.168 157.789V157.543C939.168 156.613 939.301 155.758 939.566 154.977C939.832 154.188 940.223 153.504 940.738 152.926C941.254 152.348 941.887 151.898 942.637 151.578C943.387 151.25 944.246 151.086 945.215 151.086C946.199 151.086 947.066 151.25 947.816 151.578C948.574 151.898 949.211 152.348 949.727 152.926C950.242 153.504 950.633 154.188 950.898 154.977C951.164 155.758 951.297 156.613 951.297 157.543V157.789C951.297 158.711 951.164 159.566 950.898 160.355C950.633 161.137 950.242 161.82 949.727 162.406C949.211 162.984 948.578 163.434 947.828 163.754C947.078 164.074 946.215 164.234 945.238 164.234C944.27 164.234 943.406 164.074 942.648 163.754C941.891 163.434 941.254 162.984 940.738 162.406C940.223 161.82 939.832 161.137 939.566 160.355C939.301 159.566 939.168 158.711 939.168 157.789ZM942.836 157.543V157.789C942.836 158.289 942.875 158.758 942.953 159.195C943.039 159.633 943.176 160.016 943.363 160.344C943.551 160.672 943.797 160.93 944.102 161.117C944.414 161.297 944.793 161.387 945.238 161.387C945.684 161.387 946.059 161.297 946.363 161.117C946.668 160.93 946.914 160.672 947.102 160.344C947.289 160.016 947.422 159.633 947.5 159.195C947.586 158.758 947.629 158.289 947.629 157.789V157.543C947.629 157.051 947.586 156.59 947.5 156.16C947.422 155.723 947.289 155.336 947.102 155C946.914 154.664 946.664 154.402 946.352 154.215C946.047 154.027 945.668 153.934 945.215 153.934C944.777 153.934 944.406 154.027 944.102 154.215C943.797 154.402 943.551 154.664 943.363 155C943.176 155.336 943.039 155.723 942.953 156.16C942.875 156.59 942.836 157.051 942.836 157.543ZM873.203 189.047V192H864.121V189.047H873.203ZM865.422 174.938V192H861.602V174.938H865.422ZM872.031 181.805V184.664H864.121V181.805H872.031ZM873.215 174.938V177.902H864.121V174.938H873.215ZM879.027 189.41L881.676 179.32H885.52L881.312 192H879.004L879.027 189.41ZM877.316 179.32L879.953 189.422L879.977 192H877.668L873.461 179.32H877.316ZM892.68 192.234C891.672 192.234 890.77 192.074 889.973 191.754C889.176 191.434 888.5 190.992 887.945 190.43C887.398 189.859 886.98 189.203 886.691 188.461C886.402 187.719 886.258 186.926 886.258 186.082V185.637C886.258 184.691 886.391 183.82 886.656 183.023C886.922 182.227 887.309 181.535 887.816 180.949C888.332 180.355 888.965 179.898 889.715 179.578C890.465 179.25 891.32 179.086 892.281 179.086C893.18 179.086 893.98 179.234 894.684 179.531C895.387 179.82 895.98 180.238 896.465 180.785C896.949 181.324 897.316 181.977 897.566 182.742C897.824 183.5 897.953 184.352 897.953 185.297V186.797H887.734V184.441H894.367V184.16C894.367 183.715 894.285 183.324 894.121 182.988C893.965 182.652 893.73 182.395 893.418 182.215C893.113 182.027 892.727 181.934 892.258 181.934C891.812 181.934 891.441 182.027 891.145 182.215C890.848 182.402 890.609 182.668 890.43 183.012C890.258 183.348 890.133 183.742 890.055 184.195C889.977 184.641 889.938 185.121 889.938 185.637V186.082C889.938 186.574 890.004 187.023 890.137 187.43C890.27 187.836 890.465 188.184 890.723 188.473C890.98 188.762 891.293 188.988 891.66 189.152C892.027 189.316 892.445 189.398 892.914 189.398C893.492 189.398 894.043 189.289 894.566 189.07C895.09 188.844 895.543 188.492 895.926 188.016L897.637 189.973C897.379 190.348 897.016 190.711 896.547 191.062C896.086 191.406 895.531 191.688 894.883 191.906C894.234 192.125 893.5 192.234 892.68 192.234ZM903.402 182.273V192H899.746V179.32H903.18L903.402 182.273ZM907.188 179.227L907.129 182.637C906.973 182.613 906.77 182.594 906.52 182.578C906.27 182.555 906.055 182.543 905.875 182.543C905.406 182.543 905 182.602 904.656 182.719C904.32 182.828 904.039 182.992 903.812 183.211C903.594 183.43 903.43 183.703 903.32 184.031C903.211 184.352 903.156 184.723 903.156 185.145L902.465 184.805C902.465 183.969 902.547 183.203 902.711 182.508C902.875 181.812 903.113 181.211 903.426 180.703C903.738 180.188 904.121 179.789 904.574 179.508C905.027 179.227 905.543 179.086 906.121 179.086C906.309 179.086 906.5 179.098 906.695 179.121C906.891 179.145 907.055 179.18 907.188 179.227ZM912.719 190.535L916.035 179.32H919.973L914.875 193.898C914.766 194.219 914.617 194.562 914.43 194.93C914.25 195.297 914.004 195.648 913.691 195.984C913.387 196.32 912.996 196.594 912.52 196.805C912.043 197.016 911.457 197.121 910.762 197.121C910.41 197.121 910.137 197.102 909.941 197.062C909.754 197.031 909.504 196.977 909.191 196.898L909.18 194.238C909.281 194.238 909.371 194.238 909.449 194.238C909.535 194.246 909.621 194.25 909.707 194.25C910.145 194.25 910.496 194.203 910.762 194.109C911.035 194.016 911.246 193.875 911.395 193.688C911.551 193.508 911.676 193.277 911.77 192.996L912.719 190.535ZM911.605 179.32L914.23 188.344L914.676 192.223L912.203 192.352L907.668 179.32H911.605ZM920.441 185.789V185.543C920.441 184.613 920.574 183.758 920.84 182.977C921.105 182.188 921.496 181.504 922.012 180.926C922.527 180.348 923.16 179.898 923.91 179.578C924.66 179.25 925.52 179.086 926.488 179.086C927.473 179.086 928.34 179.25 929.09 179.578C929.848 179.898 930.484 180.348 931 180.926C931.516 181.504 931.906 182.188 932.172 182.977C932.438 183.758 932.57 184.613 932.57 185.543V185.789C932.57 186.711 932.438 187.566 932.172 188.355C931.906 189.137 931.516 189.82 931 190.406C930.484 190.984 929.852 191.434 929.102 191.754C928.352 192.074 927.488 192.234 926.512 192.234C925.543 192.234 924.68 192.074 923.922 191.754C923.164 191.434 922.527 190.984 922.012 190.406C921.496 189.82 921.105 189.137 920.84 188.355C920.574 187.566 920.441 186.711 920.441 185.789ZM924.109 185.543V185.789C924.109 186.289 924.148 186.758 924.227 187.195C924.312 187.633 924.449 188.016 924.637 188.344C924.824 188.672 925.07 188.93 925.375 189.117C925.688 189.297 926.066 189.387 926.512 189.387C926.957 189.387 927.332 189.297 927.637 189.117C927.941 188.93 928.188 188.672 928.375 188.344C928.562 188.016 928.695 187.633 928.773 187.195C928.859 186.758 928.902 186.289 928.902 185.789V185.543C928.902 185.051 928.859 184.59 928.773 184.16C928.695 183.723 928.562 183.336 928.375 183C928.188 182.664 927.938 182.402 927.625 182.215C927.32 182.027 926.941 181.934 926.488 181.934C926.051 181.934 925.68 182.027 925.375 182.215C925.07 182.402 924.824 182.664 924.637 183C924.449 183.336 924.312 183.723 924.227 184.16C924.148 184.59 924.109 185.051 924.109 185.543ZM938.078 182.027V192H934.41V179.32H937.855L938.078 182.027ZM937.598 185.215L936.684 185.238C936.684 184.285 936.801 183.43 937.035 182.672C937.27 181.914 937.602 181.27 938.031 180.738C938.469 180.199 938.988 179.789 939.59 179.508C940.199 179.227 940.871 179.086 941.605 179.086C942.199 179.086 942.742 179.172 943.234 179.344C943.727 179.516 944.148 179.793 944.5 180.176C944.859 180.551 945.133 181.051 945.32 181.676C945.508 182.293 945.602 183.055 945.602 183.961V192H941.922V183.949C941.922 183.418 941.848 183.008 941.699 182.719C941.551 182.43 941.332 182.227 941.043 182.109C940.762 181.992 940.418 181.934 940.012 181.934C939.582 181.934 939.215 182.02 938.91 182.191C938.605 182.355 938.355 182.586 938.16 182.883C937.965 183.18 937.82 183.527 937.727 183.926C937.641 184.324 937.598 184.754 937.598 185.215ZM953.969 192.234C952.961 192.234 952.059 192.074 951.262 191.754C950.465 191.434 949.789 190.992 949.234 190.43C948.688 189.859 948.27 189.203 947.98 188.461C947.691 187.719 947.547 186.926 947.547 186.082V185.637C947.547 184.691 947.68 183.82 947.945 183.023C948.211 182.227 948.598 181.535 949.105 180.949C949.621 180.355 950.254 179.898 951.004 179.578C951.754 179.25 952.609 179.086 953.57 179.086C954.469 179.086 955.27 179.234 955.973 179.531C956.676 179.82 957.27 180.238 957.754 180.785C958.238 181.324 958.605 181.977 958.855 182.742C959.113 183.5 959.242 184.352 959.242 185.297V186.797H949.023V184.441H955.656V184.16C955.656 183.715 955.574 183.324 955.41 182.988C955.254 182.652 955.02 182.395 954.707 182.215C954.402 182.027 954.016 181.934 953.547 181.934C953.102 181.934 952.73 182.027 952.434 182.215C952.137 182.402 951.898 182.668 951.719 183.012C951.547 183.348 951.422 183.742 951.344 184.195C951.266 184.641 951.227 185.121 951.227 185.637V186.082C951.227 186.574 951.293 187.023 951.426 187.43C951.559 187.836 951.754 188.184 952.012 188.473C952.27 188.762 952.582 188.988 952.949 189.152C953.316 189.316 953.734 189.398 954.203 189.398C954.781 189.398 955.332 189.289 955.855 189.07C956.379 188.844 956.832 188.492 957.215 188.016L958.926 189.973C958.668 190.348 958.305 190.711 957.836 191.062C957.375 191.406 956.82 191.688 956.172 191.906C955.523 192.125 954.789 192.234 953.969 192.234Z" fill="white"/>
<path d="M620 66L620 274" stroke="white" stroke-width="9" stroke-linecap="round" stroke-dasharray="20 20"/>
</svg>
