<svg width="1122" height="352" viewBox="0 0 1122 352" fill="none" xmlns="http://www.w3.org/2000/svg">
<path d="M1104.38 100.125H857.625C847.891 100.125 840 92.234 840 82.5V47.25C840 37.516 847.891 29.625 857.625 29.625H1104.38C1114.11 29.625 1122 37.516 1122 47.25V82.5C1122 92.234 1114.11 100.125 1104.38 100.125ZM1077.94 51.6562C1070.64 51.6562 1064.72 57.5744 1064.72 64.875C1064.72 72.1756 1070.64 78.0938 1077.94 78.0938C1085.24 78.0938 1091.16 72.1756 1091.16 64.875C1091.16 57.5744 1085.24 51.6562 1077.94 51.6562ZM1042.69 51.6562C1035.39 51.6562 1029.47 57.5744 1029.47 64.875C1029.47 72.1756 1035.39 78.0938 1042.69 78.0938C1049.99 78.0938 1055.91 72.1756 1055.91 64.875C1055.91 57.5744 1049.99 51.6562 1042.69 51.6562ZM1104.38 188.25H857.625C847.891 188.25 840 180.359 840 170.625V135.375C840 125.641 847.891 117.75 857.625 117.75H1104.38C1114.11 117.75 1122 125.641 1122 135.375V170.625C1122 180.359 1114.11 188.25 1104.38 188.25ZM1077.94 139.781C1070.64 139.781 1064.72 145.699 1064.72 153C1064.72 160.301 1070.64 166.219 1077.94 166.219C1085.24 166.219 1091.16 160.301 1091.16 153C1091.16 145.699 1085.24 139.781 1077.94 139.781ZM1042.69 139.781C1035.39 139.781 1029.47 145.699 1029.47 153C1029.47 160.301 1035.39 166.219 1042.69 166.219C1049.99 166.219 1055.91 160.301 1055.91 153C1055.91 145.699 1049.99 139.781 1042.69 139.781ZM1104.38 276.375H857.625C847.891 276.375 840 268.484 840 258.75V223.5C840 213.766 847.891 205.875 857.625 205.875H1104.38C1114.11 205.875 1122 213.766 1122 223.5V258.75C1122 268.484 1114.11 276.375 1104.38 276.375ZM1077.94 227.906C1070.64 227.906 1064.72 233.824 1064.72 241.125C1064.72 248.426 1070.64 254.344 1077.94 254.344C1085.24 254.344 1091.16 248.426 1091.16 241.125C1091.16 233.824 1085.24 227.906 1077.94 227.906ZM1042.69 227.906C1035.39 227.906 1029.47 233.824 1029.47 241.125C1029.47 248.426 1035.39 254.344 1042.69 254.344C1049.99 254.344 1055.91 248.426 1055.91 241.125C1055.91 233.824 1049.99 227.906 1042.69 227.906Z" fill="#3789DB"/>
<path d="M898.88 305.632H903.488L894.32 340H889.808L882.416 317.344H882.224L874.832 340H870.32L860.768 305.632H865.376L872.624 332.656H872.816L880.256 310.24H884.384L891.824 332.656H892.016L898.88 305.632ZM914.873 340.768C911.417 340.768 908.569 339.584 906.329 337.216C904.089 334.848 902.969 331.856 902.969 328.24C902.969 324.656 904.057 321.68 906.233 319.312C908.409 316.912 911.193 315.712 914.585 315.712C918.073 315.712 920.841 316.848 922.889 319.12C924.969 321.36 926.009 324.512 926.009 328.576L925.961 329.056H907.481C907.545 331.36 908.313 333.216 909.785 334.624C911.257 336.032 913.017 336.736 915.065 336.736C917.881 336.736 920.089 335.328 921.689 332.512L925.625 334.432C924.569 336.416 923.097 337.968 921.209 339.088C919.353 340.208 917.241 340.768 914.873 340.768ZM907.817 325.408H921.305C921.177 323.776 920.505 322.432 919.289 321.376C918.105 320.288 916.505 319.744 914.489 319.744C912.825 319.744 911.385 320.256 910.169 321.28C908.985 322.304 908.201 323.68 907.817 325.408ZM942.479 340.768C940.751 340.768 939.167 340.4 937.727 339.664C936.319 338.928 935.231 337.952 934.463 336.736H934.271V340H930.047V305.632H934.463V316.48L934.271 319.744H934.463C935.231 318.528 936.319 317.552 937.727 316.816C939.167 316.08 940.751 315.712 942.479 315.712C945.583 315.712 948.207 316.928 950.351 319.36C952.559 321.824 953.663 324.784 953.663 328.24C953.663 331.728 952.559 334.688 950.351 337.12C948.207 339.552 945.583 340.768 942.479 340.768ZM941.759 336.736C943.871 336.736 945.647 335.936 947.087 334.336C948.527 332.768 949.247 330.736 949.247 328.24C949.247 325.776 948.527 323.744 947.087 322.144C945.647 320.544 943.871 319.744 941.759 319.744C939.615 319.744 937.823 320.544 936.383 322.144C934.975 323.744 934.271 325.776 934.271 328.24C934.271 330.736 934.975 332.784 936.383 334.384C937.823 335.952 939.615 336.736 941.759 336.736ZM988.781 330.832C988.781 333.84 987.677 336.256 985.469 338.08C983.229 339.872 980.509 340.768 977.309 340.768C974.461 340.768 971.949 339.936 969.773 338.272C967.597 336.608 966.093 334.336 965.261 331.456L969.485 329.728C969.773 330.752 970.173 331.68 970.685 332.512C971.197 333.344 971.789 334.064 972.461 334.672C973.165 335.248 973.933 335.712 974.765 336.064C975.597 336.384 976.477 336.544 977.405 336.544C979.421 336.544 981.069 336.032 982.349 335.008C983.629 333.952 984.269 332.56 984.269 330.832C984.269 329.392 983.741 328.16 982.685 327.136C981.693 326.144 979.837 325.184 977.117 324.256C974.365 323.264 972.653 322.592 971.981 322.24C968.333 320.384 966.509 317.648 966.509 314.032C966.509 311.504 967.517 309.344 969.533 307.552C971.581 305.76 974.093 304.864 977.069 304.864C979.693 304.864 981.965 305.536 983.885 306.88C985.805 308.192 987.085 309.84 987.725 311.824L983.597 313.552C983.213 312.272 982.445 311.216 981.293 310.384C980.173 309.52 978.797 309.088 977.165 309.088C975.437 309.088 973.981 309.568 972.797 310.528C971.613 311.424 971.021 312.592 971.021 314.032C971.021 315.216 971.485 316.24 972.413 317.104C973.437 317.968 975.661 318.992 979.085 320.176C982.573 321.36 985.053 322.816 986.525 324.544C988.029 326.24 988.781 328.336 988.781 330.832ZM1003.89 340.768C1000.43 340.768 997.585 339.584 995.345 337.216C993.105 334.848 991.985 331.856 991.985 328.24C991.985 324.656 993.073 321.68 995.249 319.312C997.425 316.912 1000.21 315.712 1003.6 315.712C1007.09 315.712 1009.86 316.848 1011.9 319.12C1013.98 321.36 1015.02 324.512 1015.02 328.576L1014.98 329.056H996.497C996.561 331.36 997.329 333.216 998.801 334.624C1000.27 336.032 1002.03 336.736 1004.08 336.736C1006.9 336.736 1009.1 335.328 1010.7 332.512L1014.64 334.432C1013.58 336.416 1012.11 337.968 1010.22 339.088C1008.37 340.208 1006.26 340.768 1003.89 340.768ZM996.833 325.408H1010.32C1010.19 323.776 1009.52 322.432 1008.3 321.376C1007.12 320.288 1005.52 319.744 1003.5 319.744C1001.84 319.744 1000.4 320.256 999.185 321.28C998.001 322.304 997.217 323.68 996.833 325.408ZM1023.48 340H1019.06V316.48H1023.29V320.32H1023.48C1023.93 319.072 1024.84 318.016 1026.22 317.152C1027.62 316.256 1029 315.808 1030.34 315.808C1031.62 315.808 1032.71 316 1033.61 316.384L1032.26 320.656C1031.72 320.432 1030.86 320.32 1029.67 320.32C1028.01 320.32 1026.55 320.992 1025.3 322.336C1024.09 323.68 1023.48 325.248 1023.48 327.04V340ZM1048.39 340H1043.98L1034.47 316.48H1039.27L1046.19 334.72H1046.28L1053.29 316.48H1057.99L1048.39 340ZM1070.73 340.768C1067.28 340.768 1064.43 339.584 1062.19 337.216C1059.95 334.848 1058.83 331.856 1058.83 328.24C1058.83 324.656 1059.92 321.68 1062.09 319.312C1064.27 316.912 1067.05 315.712 1070.44 315.712C1073.93 315.712 1076.7 316.848 1078.75 319.12C1080.83 321.36 1081.87 324.512 1081.87 328.576L1081.82 329.056H1063.34C1063.4 331.36 1064.17 333.216 1065.64 334.624C1067.12 336.032 1068.88 336.736 1070.92 336.736C1073.74 336.736 1075.95 335.328 1077.55 332.512L1081.48 334.432C1080.43 336.416 1078.96 337.968 1077.07 339.088C1075.21 340.208 1073.1 340.768 1070.73 340.768ZM1063.68 325.408H1077.16C1077.04 323.776 1076.36 322.432 1075.15 321.376C1073.96 320.288 1072.36 319.744 1070.35 319.744C1068.68 319.744 1067.24 320.256 1066.03 321.28C1064.84 322.304 1064.06 323.68 1063.68 325.408ZM1090.32 340H1085.91V316.48H1090.13V320.32H1090.32C1090.77 319.072 1091.68 318.016 1093.06 317.152C1094.47 316.256 1095.84 315.808 1097.19 315.808C1098.47 315.808 1099.55 316 1100.45 316.384L1099.11 320.656C1098.56 320.432 1097.7 320.32 1096.51 320.32C1094.85 320.32 1093.39 320.992 1092.15 322.336C1090.93 323.68 1090.32 325.248 1090.32 327.04V340Z" fill="#3789DB"/>
<path d="M110.408 340.768C106.6 340.768 103.528 339.52 101.192 337.024C98.856 334.56 97.688 331.296 97.688 327.232V305.632H102.104V327.424C102.104 330.24 102.84 332.464 104.312 334.096C105.784 335.728 107.816 336.544 110.408 336.544C113 336.544 115.032 335.728 116.504 334.096C117.976 332.464 118.712 330.24 118.712 327.424V305.632H123.128V327.232C123.128 331.392 121.976 334.688 119.672 337.12C117.368 339.552 114.28 340.768 110.408 340.768ZM146.485 333.472C146.485 335.52 145.589 337.248 143.797 338.656C142.005 340.064 139.749 340.768 137.029 340.768C134.661 340.768 132.581 340.16 130.789 338.944C128.997 337.696 127.717 336.064 126.949 334.048L130.885 332.368C131.461 333.776 132.293 334.88 133.381 335.68C134.501 336.448 135.717 336.832 137.029 336.832C138.437 336.832 139.605 336.528 140.533 335.92C141.493 335.312 141.973 334.592 141.973 333.76C141.973 332.256 140.821 331.152 138.517 330.448L134.485 329.44C129.909 328.288 127.621 326.08 127.621 322.816C127.621 320.672 128.485 318.96 130.213 317.68C131.973 316.368 134.213 315.712 136.933 315.712C139.013 315.712 140.885 316.208 142.549 317.2C144.245 318.192 145.429 319.52 146.101 321.184L142.165 322.816C141.717 321.824 140.981 321.056 139.957 320.512C138.965 319.936 137.845 319.648 136.597 319.648C135.445 319.648 134.405 319.936 133.477 320.512C132.581 321.088 132.133 321.792 132.133 322.624C132.133 323.968 133.397 324.928 135.925 325.504L139.477 326.416C144.149 327.568 146.485 329.92 146.485 333.472ZM161.123 340.768C157.667 340.768 154.819 339.584 152.579 337.216C150.339 334.848 149.219 331.856 149.219 328.24C149.219 324.656 150.307 321.68 152.483 319.312C154.659 316.912 157.443 315.712 160.835 315.712C164.323 315.712 167.091 316.848 169.139 319.12C171.219 321.36 172.259 324.512 172.259 328.576L172.211 329.056H153.731C153.795 331.36 154.563 333.216 156.035 334.624C157.507 336.032 159.267 336.736 161.315 336.736C164.131 336.736 166.339 335.328 167.939 332.512L171.875 334.432C170.819 336.416 169.347 337.968 167.459 339.088C165.603 340.208 163.491 340.768 161.123 340.768ZM154.067 325.408H167.555C167.427 323.776 166.755 322.432 165.539 321.376C164.355 320.288 162.755 319.744 160.739 319.744C159.075 319.744 157.635 320.256 156.419 321.28C155.235 322.304 154.451 323.68 154.067 325.408ZM180.713 340H176.297V316.48H180.521V320.32H180.713C181.161 319.072 182.073 318.016 183.449 317.152C184.857 316.256 186.233 315.808 187.577 315.808C188.857 315.808 189.945 316 190.841 316.384L189.497 320.656C188.953 320.432 188.089 320.32 186.905 320.32C185.241 320.32 183.785 320.992 182.537 322.336C181.321 323.68 180.713 325.248 180.713 327.04V340ZM210.797 333.472C210.797 335.52 209.901 337.248 208.109 338.656C206.317 340.064 204.061 340.768 201.341 340.768C198.973 340.768 196.893 340.16 195.101 338.944C193.309 337.696 192.029 336.064 191.261 334.048L195.197 332.368C195.773 333.776 196.605 334.88 197.693 335.68C198.813 336.448 200.029 336.832 201.341 336.832C202.749 336.832 203.917 336.528 204.845 335.92C205.805 335.312 206.285 334.592 206.285 333.76C206.285 332.256 205.133 331.152 202.829 330.448L198.797 329.44C194.221 328.288 191.933 326.08 191.933 322.816C191.933 320.672 192.797 318.96 194.525 317.68C196.285 316.368 198.525 315.712 201.245 315.712C203.325 315.712 205.197 316.208 206.861 317.2C208.557 318.192 209.741 319.52 210.413 321.184L206.477 322.816C206.029 321.824 205.293 321.056 204.269 320.512C203.277 319.936 202.157 319.648 200.909 319.648C199.757 319.648 198.717 319.936 197.789 320.512C196.893 321.088 196.445 321.792 196.445 322.624C196.445 323.968 197.709 324.928 200.237 325.504L203.789 326.416C208.461 327.568 210.797 329.92 210.797 333.472Z" fill="#3789DB"/>
<path d="M398.504 28.124C398.504 30.38 397.676 32.192 396.02 33.56C394.34 34.904 392.3 35.576 389.9 35.576C387.764 35.576 385.88 34.952 384.248 33.704C382.616 32.456 381.488 30.752 380.864 28.592L384.032 27.296C384.248 28.064 384.548 28.76 384.932 29.384C385.316 30.008 385.76 30.548 386.264 31.004C386.792 31.436 387.368 31.784 387.992 32.048C388.616 32.288 389.276 32.408 389.972 32.408C391.484 32.408 392.72 32.024 393.68 31.256C394.64 30.464 395.12 29.42 395.12 28.124C395.12 27.044 394.724 26.12 393.932 25.352C393.188 24.608 391.796 23.888 389.756 23.192C387.692 22.448 386.408 21.944 385.904 21.68C383.168 20.288 381.8 18.236 381.8 15.524C381.8 13.628 382.556 12.008 384.068 10.664C385.604 9.32 387.488 8.648 389.72 8.648C391.688 8.648 393.392 9.152 394.832 10.16C396.272 11.144 397.232 12.38 397.712 13.868L394.616 15.164C394.328 14.204 393.752 13.412 392.888 12.788C392.048 12.14 391.016 11.816 389.792 11.816C388.496 11.816 387.404 12.176 386.516 12.896C385.628 13.568 385.184 14.444 385.184 15.524C385.184 16.412 385.532 17.18 386.228 17.828C386.996 18.476 388.664 19.244 391.232 20.132C393.848 21.02 395.708 22.112 396.812 23.408C397.94 24.68 398.504 26.252 398.504 28.124ZM401.914 9.224H405.226V17.36L405.082 19.808H405.226C405.73 18.944 406.498 18.224 407.53 17.648C408.586 17.072 409.678 16.784 410.806 16.784C412.966 16.784 414.622 17.408 415.774 18.656C416.95 19.88 417.538 21.632 417.538 23.912V35H414.226V24.56C414.226 21.392 412.822 19.808 410.014 19.808C408.67 19.808 407.53 20.372 406.594 21.5C405.682 22.604 405.226 23.9 405.226 25.388V35H401.914V9.224ZM420.418 26.18C420.418 23.468 421.27 21.224 422.974 19.448C424.702 17.672 426.874 16.784 429.49 16.784C432.106 16.784 434.266 17.672 435.97 19.448C437.698 21.224 438.562 23.468 438.562 26.18C438.562 28.916 437.698 31.16 435.97 32.912C434.266 34.688 432.106 35.576 429.49 35.576C426.874 35.576 424.702 34.688 422.974 32.912C421.27 31.136 420.418 28.892 420.418 26.18ZM423.73 26.18C423.73 28.076 424.282 29.612 425.386 30.788C426.49 31.964 427.858 32.552 429.49 32.552C431.122 32.552 432.49 31.964 433.594 30.788C434.698 29.612 435.25 28.076 435.25 26.18C435.25 24.308 434.698 22.784 433.594 21.608C432.466 20.408 431.098 19.808 429.49 19.808C427.882 19.808 426.514 20.408 425.386 21.608C424.282 22.784 423.73 24.308 423.73 26.18ZM456.875 35H453.707V32.552H453.563C453.059 33.416 452.279 34.136 451.223 34.712C450.191 35.288 449.111 35.576 447.983 35.576C445.823 35.576 444.155 34.964 442.979 33.74C441.827 32.492 441.251 30.728 441.251 28.448V17.36H444.563V28.232C444.635 31.112 446.087 32.552 448.919 32.552C450.239 32.552 451.343 32.024 452.231 30.968C453.119 29.888 453.563 28.604 453.563 27.116V17.36H456.875V35ZM464.219 9.224V35H460.907V9.224H464.219ZM475.999 32.552C477.631 32.552 478.963 31.964 479.995 30.788C481.075 29.612 481.615 28.076 481.615 26.18C481.615 24.332 481.075 22.808 479.995 21.608C478.939 20.408 477.607 19.808 475.999 19.808C474.415 19.808 473.083 20.408 472.003 21.608C470.923 22.808 470.383 24.332 470.383 26.18C470.383 28.052 470.923 29.576 472.003 30.752C473.083 31.952 474.415 32.552 475.999 32.552ZM475.459 35.576C473.155 35.576 471.175 34.664 469.519 32.84C467.887 30.992 467.071 28.772 467.071 26.18C467.071 23.588 467.887 21.368 469.519 19.52C471.175 17.696 473.155 16.784 475.459 16.784C476.755 16.784 477.931 17.06 478.987 17.612C480.067 18.164 480.895 18.896 481.471 19.808H481.615L481.471 17.36V9.224H484.783V35H481.615V32.552H481.471C480.895 33.464 480.067 34.196 478.987 34.748C477.931 35.3 476.755 35.576 475.459 35.576ZM506.055 35.576C504.759 35.576 503.571 35.3 502.491 34.748C501.435 34.196 500.619 33.464 500.043 32.552H499.899V35H496.731V9.224H500.043V17.36L499.899 19.808H500.043C500.619 18.896 501.435 18.164 502.491 17.612C503.571 17.06 504.759 16.784 506.055 16.784C508.383 16.784 510.351 17.696 511.959 19.52C513.615 21.368 514.443 23.588 514.443 26.18C514.443 28.796 513.615 31.016 511.959 32.84C510.351 34.664 508.383 35.576 506.055 35.576ZM505.515 32.552C507.099 32.552 508.431 31.952 509.511 30.752C510.591 29.576 511.131 28.052 511.131 26.18C511.131 24.332 510.591 22.808 509.511 21.608C508.431 20.408 507.099 19.808 505.515 19.808C503.907 19.808 502.563 20.408 501.483 21.608C500.427 22.808 499.899 24.332 499.899 26.18C499.899 28.052 500.427 29.588 501.483 30.788C502.563 31.964 503.907 32.552 505.515 32.552ZM525.393 35.576C522.801 35.576 520.665 34.688 518.985 32.912C517.305 31.136 516.465 28.892 516.465 26.18C516.465 23.492 517.281 21.26 518.913 19.484C520.545 17.684 522.633 16.784 525.177 16.784C527.793 16.784 529.869 17.636 531.405 19.34C532.965 21.02 533.745 23.384 533.745 26.432L533.709 26.792H519.849C519.897 28.52 520.473 29.912 521.577 30.968C522.681 32.024 524.001 32.552 525.537 32.552C527.649 32.552 529.305 31.496 530.505 29.384L533.457 30.824C532.665 32.312 531.561 33.476 530.145 34.316C528.753 35.156 527.169 35.576 525.393 35.576ZM520.101 24.056H530.217C530.121 22.832 529.617 21.824 528.705 21.032C527.817 20.216 526.617 19.808 525.105 19.808C523.857 19.808 522.777 20.192 521.865 20.96C520.977 21.728 520.389 22.76 520.101 24.056ZM547.096 29.6C547.096 30.464 547.456 31.184 548.176 31.76C548.92 32.336 549.784 32.624 550.768 32.624C552.16 32.624 553.396 32.108 554.476 31.076C555.58 30.044 556.132 28.832 556.132 27.44C555.1 26.624 553.66 26.216 551.812 26.216C550.468 26.216 549.34 26.54 548.428 27.188C547.54 27.836 547.096 28.64 547.096 29.6ZM551.38 16.784C553.828 16.784 555.76 17.444 557.176 18.764C558.592 20.06 559.3 21.848 559.3 24.128V35H556.132V32.552H555.988C554.62 34.568 552.796 35.576 550.516 35.576C548.572 35.576 546.94 35 545.62 33.848C544.324 32.696 543.676 31.256 543.676 29.528C543.676 27.704 544.36 26.252 545.728 25.172C547.12 24.092 548.968 23.552 551.272 23.552C553.24 23.552 554.86 23.912 556.132 24.632V23.876C556.132 22.724 555.676 21.752 554.764 20.96C553.852 20.144 552.784 19.736 551.56 19.736C549.712 19.736 548.248 20.516 547.168 22.076L544.252 20.24C545.86 17.936 548.236 16.784 551.38 16.784ZM572.36 35.576C571.064 35.576 569.876 35.3 568.796 34.748C567.74 34.196 566.924 33.464 566.348 32.552H566.204V35H563.036V9.224H566.348V17.36L566.204 19.808H566.348C566.924 18.896 567.74 18.164 568.796 17.612C569.876 17.06 571.064 16.784 572.36 16.784C574.688 16.784 576.656 17.696 578.264 19.52C579.92 21.368 580.748 23.588 580.748 26.18C580.748 28.796 579.92 31.016 578.264 32.84C576.656 34.664 574.688 35.576 572.36 35.576ZM571.82 32.552C573.404 32.552 574.736 31.952 575.816 30.752C576.896 29.576 577.436 28.052 577.436 26.18C577.436 24.332 576.896 22.808 575.816 21.608C574.736 20.408 573.404 19.808 571.82 19.808C570.212 19.808 568.868 20.408 567.788 21.608C566.732 22.808 566.204 24.332 566.204 26.18C566.204 28.052 566.732 29.588 567.788 30.788C568.868 31.964 570.212 32.552 571.82 32.552ZM586.914 9.224V35H583.602V9.224H586.914ZM598.694 35.576C596.102 35.576 593.966 34.688 592.286 32.912C590.606 31.136 589.766 28.892 589.766 26.18C589.766 23.492 590.582 21.26 592.214 19.484C593.846 17.684 595.934 16.784 598.478 16.784C601.094 16.784 603.17 17.636 604.706 19.34C606.266 21.02 607.046 23.384 607.046 26.432L607.01 26.792H593.15C593.198 28.52 593.774 29.912 594.878 30.968C595.982 32.024 597.302 32.552 598.838 32.552C600.95 32.552 602.606 31.496 603.806 29.384L606.758 30.824C605.966 32.312 604.862 33.476 603.446 34.316C602.054 35.156 600.47 35.576 598.694 35.576ZM593.402 24.056H603.518C603.422 22.832 602.918 21.824 602.006 21.032C601.118 20.216 599.918 19.808 598.406 19.808C597.158 19.808 596.078 20.192 595.166 20.96C594.278 21.728 593.69 22.76 593.402 24.056ZM624.969 35.288C623.529 35.288 622.329 34.844 621.369 33.956C620.433 33.068 619.953 31.832 619.929 30.248V20.384H616.833V17.36H619.929V11.96H623.241V17.36H627.561V20.384H623.241V29.168C623.241 30.344 623.469 31.148 623.925 31.58C624.381 31.988 624.897 32.192 625.473 32.192C625.737 32.192 625.989 32.168 626.229 32.12C626.493 32.048 626.733 31.964 626.949 31.868L627.993 34.82C627.129 35.132 626.121 35.288 624.969 35.288ZM629.528 26.18C629.528 23.468 630.38 21.224 632.084 19.448C633.812 17.672 635.984 16.784 638.6 16.784C641.216 16.784 643.376 17.672 645.08 19.448C646.808 21.224 647.672 23.468 647.672 26.18C647.672 28.916 646.808 31.16 645.08 32.912C643.376 34.688 641.216 35.576 638.6 35.576C635.984 35.576 633.812 34.688 632.084 32.912C630.38 31.136 629.528 28.892 629.528 26.18ZM632.84 26.18C632.84 28.076 633.392 29.612 634.496 30.788C635.6 31.964 636.968 32.552 638.6 32.552C640.232 32.552 641.6 31.964 642.704 30.788C643.808 29.612 644.36 28.076 644.36 26.18C644.36 24.308 643.808 22.784 642.704 21.608C641.576 20.408 640.208 19.808 638.6 19.808C636.992 19.808 635.624 20.408 634.496 21.608C633.392 22.784 632.84 24.308 632.84 26.18ZM661.002 29.6C661.002 30.464 661.362 31.184 662.082 31.76C662.826 32.336 663.69 32.624 664.674 32.624C666.066 32.624 667.302 32.108 668.382 31.076C669.486 30.044 670.038 28.832 670.038 27.44C669.006 26.624 667.566 26.216 665.718 26.216C664.374 26.216 663.246 26.54 662.334 27.188C661.446 27.836 661.002 28.64 661.002 29.6ZM665.286 16.784C667.734 16.784 669.666 17.444 671.082 18.764C672.498 20.06 673.206 21.848 673.206 24.128V35H670.038V32.552H669.894C668.526 34.568 666.702 35.576 664.422 35.576C662.478 35.576 660.846 35 659.526 33.848C658.23 32.696 657.582 31.256 657.582 29.528C657.582 27.704 658.266 26.252 659.634 25.172C661.026 24.092 662.874 23.552 665.178 23.552C667.146 23.552 668.766 23.912 670.038 24.632V23.876C670.038 22.724 669.582 21.752 668.67 20.96C667.758 20.144 666.69 19.736 665.466 19.736C663.618 19.736 662.154 20.516 661.074 22.076L658.158 20.24C659.766 17.936 662.142 16.784 665.286 16.784ZM684.83 35.576C682.214 35.576 680.042 34.688 678.314 32.912C676.61 31.088 675.758 28.844 675.758 26.18C675.758 23.468 676.61 21.224 678.314 19.448C680.042 17.672 682.214 16.784 684.83 16.784C686.63 16.784 688.202 17.24 689.546 18.152C690.89 19.04 691.898 20.276 692.57 21.86L689.546 23.12C688.61 20.912 686.966 19.808 684.614 19.808C683.102 19.808 681.794 20.42 680.69 21.644C679.61 22.868 679.07 24.38 679.07 26.18C679.07 27.98 679.61 29.492 680.69 30.716C681.794 31.94 683.102 32.552 684.614 32.552C687.038 32.552 688.742 31.448 689.726 29.24L692.678 30.5C692.03 32.084 691.01 33.332 689.618 34.244C688.25 35.132 686.654 35.576 684.83 35.576ZM703.463 35.576C700.847 35.576 698.675 34.688 696.947 32.912C695.243 31.088 694.391 28.844 694.391 26.18C694.391 23.468 695.243 21.224 696.947 19.448C698.675 17.672 700.847 16.784 703.463 16.784C705.263 16.784 706.835 17.24 708.179 18.152C709.523 19.04 710.531 20.276 711.203 21.86L708.179 23.12C707.243 20.912 705.599 19.808 703.247 19.808C701.735 19.808 700.427 20.42 699.323 21.644C698.243 22.868 697.703 24.38 697.703 26.18C697.703 27.98 698.243 29.492 699.323 30.716C700.427 31.94 701.735 32.552 703.247 32.552C705.671 32.552 707.375 31.448 708.359 29.24L711.311 30.5C710.663 32.084 709.643 33.332 708.251 34.244C706.883 35.132 705.287 35.576 703.463 35.576ZM721.952 35.576C719.36 35.576 717.224 34.688 715.544 32.912C713.864 31.136 713.024 28.892 713.024 26.18C713.024 23.492 713.84 21.26 715.472 19.484C717.104 17.684 719.192 16.784 721.736 16.784C724.352 16.784 726.428 17.636 727.964 19.34C729.524 21.02 730.304 23.384 730.304 26.432L730.268 26.792H716.408C716.456 28.52 717.032 29.912 718.136 30.968C719.24 32.024 720.56 32.552 722.096 32.552C724.208 32.552 725.864 31.496 727.064 29.384L730.016 30.824C729.224 32.312 728.12 33.476 726.704 34.316C725.312 35.156 723.728 35.576 721.952 35.576ZM716.66 24.056H726.776C726.68 22.832 726.176 21.824 725.264 21.032C724.376 20.216 723.176 19.808 721.664 19.808C720.416 19.808 719.336 20.192 718.424 20.96C717.536 21.728 716.948 22.76 716.66 24.056ZM747.008 30.104C747.008 31.64 746.336 32.936 744.992 33.992C743.648 35.048 741.956 35.576 739.916 35.576C738.14 35.576 736.58 35.12 735.236 34.208C733.892 33.272 732.932 32.048 732.356 30.536L735.308 29.276C735.74 30.332 736.364 31.16 737.18 31.76C738.02 32.336 738.932 32.624 739.916 32.624C740.972 32.624 741.848 32.396 742.544 31.94C743.264 31.484 743.624 30.944 743.624 30.32C743.624 29.192 742.76 28.364 741.032 27.836L738.008 27.08C734.576 26.216 732.86 24.56 732.86 22.112C732.86 20.504 733.508 19.22 734.804 18.26C736.124 17.276 737.804 16.784 739.844 16.784C741.404 16.784 742.808 17.156 744.056 17.9C745.328 18.644 746.216 19.64 746.72 20.888L743.768 22.112C743.432 21.368 742.88 20.792 742.112 20.384C741.368 19.952 740.528 19.736 739.592 19.736C738.728 19.736 737.948 19.952 737.252 20.384C736.58 20.816 736.244 21.344 736.244 21.968C736.244 22.976 737.192 23.696 739.088 24.128L741.752 24.812C745.256 25.676 747.008 27.44 747.008 30.104ZM763.391 30.104C763.391 31.64 762.719 32.936 761.375 33.992C760.031 35.048 758.339 35.576 756.299 35.576C754.523 35.576 752.963 35.12 751.619 34.208C750.275 33.272 749.315 32.048 748.739 30.536L751.691 29.276C752.123 30.332 752.747 31.16 753.563 31.76C754.403 32.336 755.315 32.624 756.299 32.624C757.355 32.624 758.231 32.396 758.927 31.94C759.647 31.484 760.007 30.944 760.007 30.32C760.007 29.192 759.143 28.364 757.415 27.836L754.391 27.08C750.959 26.216 749.243 24.56 749.243 22.112C749.243 20.504 749.891 19.22 751.187 18.26C752.507 17.276 754.187 16.784 756.227 16.784C757.787 16.784 759.191 17.156 760.439 17.9C761.711 18.644 762.599 19.64 763.103 20.888L760.151 22.112C759.815 21.368 759.263 20.792 758.495 20.384C757.751 19.952 756.911 19.736 755.975 19.736C755.111 19.736 754.331 19.952 753.635 20.384C752.963 20.816 752.627 21.344 752.627 21.968C752.627 22.976 753.575 23.696 755.471 24.128L758.135 24.812C761.639 25.676 763.391 27.44 763.391 30.104Z" fill="#3789DB"/>
<path d="M351.067 307V281.224H358.951C362.887 281.224 366.043 282.412 368.419 284.788C370.819 287.164 372.019 290.272 372.019 294.112C372.019 297.976 370.819 301.096 368.419 303.472C366.043 305.824 362.887 307 358.951 307H351.067ZM354.379 284.392V303.832H358.951C361.951 303.832 364.315 302.98 366.043 301.276C367.771 299.548 368.635 297.16 368.635 294.112C368.635 291.088 367.771 288.712 366.043 286.984C364.315 285.256 361.951 284.392 358.951 284.392H354.379ZM373.846 298.18C373.846 295.468 374.698 293.224 376.402 291.448C378.13 289.672 380.302 288.784 382.918 288.784C385.534 288.784 387.694 289.672 389.398 291.448C391.126 293.224 391.99 295.468 391.99 298.18C391.99 300.916 391.126 303.16 389.398 304.912C387.694 306.688 385.534 307.576 382.918 307.576C380.302 307.576 378.13 306.688 376.402 304.912C374.698 303.136 373.846 300.892 373.846 298.18ZM377.158 298.18C377.158 300.076 377.71 301.612 378.814 302.788C379.918 303.964 381.286 304.552 382.918 304.552C384.55 304.552 385.918 303.964 387.022 302.788C388.126 301.612 388.678 300.076 388.678 298.18C388.678 296.308 388.126 294.784 387.022 293.608C385.894 292.408 384.526 291.808 382.918 291.808C381.31 291.808 379.942 292.408 378.814 293.608C377.71 294.784 377.158 296.308 377.158 298.18ZM402.918 307.576C400.326 307.576 398.19 306.688 396.51 304.912C394.83 303.136 393.99 300.892 393.99 298.18C393.99 295.492 394.806 293.26 396.438 291.484C398.07 289.684 400.158 288.784 402.702 288.784C405.318 288.784 407.394 289.636 408.93 291.34C410.49 293.02 411.27 295.384 411.27 298.432L411.234 298.792H397.374C397.422 300.52 397.998 301.912 399.102 302.968C400.206 304.024 401.526 304.552 403.062 304.552C405.174 304.552 406.83 303.496 408.03 301.384L410.982 302.824C410.19 304.312 409.086 305.476 407.67 306.316C406.278 307.156 404.694 307.576 402.918 307.576ZM397.626 296.056H407.742C407.646 294.832 407.142 293.824 406.23 293.032C405.342 292.216 404.142 291.808 402.63 291.808C401.382 291.808 400.302 292.192 399.39 292.96C398.502 293.728 397.914 294.76 397.626 296.056ZM427.975 302.104C427.975 303.64 427.303 304.936 425.959 305.992C424.615 307.048 422.923 307.576 420.883 307.576C419.107 307.576 417.547 307.12 416.203 306.208C414.859 305.272 413.899 304.048 413.323 302.536L416.275 301.276C416.707 302.332 417.331 303.16 418.147 303.76C418.987 304.336 419.899 304.624 420.883 304.624C421.939 304.624 422.815 304.396 423.511 303.94C424.231 303.484 424.591 302.944 424.591 302.32C424.591 301.192 423.727 300.364 421.999 299.836L418.975 299.08C415.543 298.216 413.827 296.56 413.827 294.112C413.827 292.504 414.475 291.22 415.771 290.26C417.091 289.276 418.771 288.784 420.811 288.784C422.371 288.784 423.775 289.156 425.023 289.9C426.295 290.644 427.183 291.64 427.687 292.888L424.735 294.112C424.399 293.368 423.847 292.792 423.079 292.384C422.335 291.952 421.495 291.736 420.559 291.736C419.695 291.736 418.915 291.952 418.219 292.384C417.547 292.816 417.211 293.344 417.211 293.968C417.211 294.976 418.159 295.696 420.055 296.128L422.719 296.812C426.223 297.676 427.975 299.44 427.975 302.104ZM430.682 289.36H433.85V291.808H433.994C434.498 290.944 435.266 290.224 436.298 289.648C437.354 289.072 438.446 288.784 439.574 288.784C441.734 288.784 443.39 289.408 444.542 290.656C445.718 291.88 446.306 293.632 446.306 295.912V307H442.994V296.128C442.922 293.248 441.47 291.808 438.638 291.808C437.318 291.808 436.214 292.348 435.326 293.428C434.438 294.484 433.994 295.756 433.994 297.244V307H430.682V289.36ZM450.751 289.072L449.203 288.064L451.003 285.328C450.499 285.232 450.067 284.98 449.707 284.572C449.371 284.164 449.203 283.672 449.203 283.096C449.203 282.4 449.443 281.824 449.923 281.368C450.403 280.888 450.979 280.648 451.651 280.648C452.347 280.648 452.923 280.888 453.379 281.368C453.859 281.824 454.099 282.4 454.099 283.096C454.099 283.768 453.847 284.5 453.343 285.292L450.751 289.072ZM464.139 307.288C462.699 307.288 461.499 306.844 460.539 305.956C459.603 305.068 459.123 303.832 459.099 302.248V292.384H456.003V289.36H459.099V283.96H462.411V289.36H466.731V292.384H462.411V301.168C462.411 302.344 462.639 303.148 463.095 303.58C463.551 303.988 464.067 304.192 464.643 304.192C464.907 304.192 465.159 304.168 465.399 304.12C465.663 304.048 465.903 303.964 466.119 303.868L467.163 306.82C466.299 307.132 465.291 307.288 464.139 307.288ZM477.791 289.36H480.959V291.808H481.103C481.607 290.944 482.375 290.224 483.407 289.648C484.463 289.072 485.555 288.784 486.683 288.784C488.843 288.784 490.499 289.408 491.651 290.656C492.827 291.88 493.415 293.632 493.415 295.912V307H490.103V296.128C490.031 293.248 488.579 291.808 485.747 291.808C484.427 291.808 483.323 292.348 482.435 293.428C481.547 294.484 481.103 295.756 481.103 297.244V307H477.791V289.36ZM505.223 307.576C502.631 307.576 500.495 306.688 498.815 304.912C497.135 303.136 496.295 300.892 496.295 298.18C496.295 295.492 497.111 293.26 498.743 291.484C500.375 289.684 502.463 288.784 505.007 288.784C507.623 288.784 509.699 289.636 511.235 291.34C512.795 293.02 513.575 295.384 513.575 298.432L513.539 298.792H499.679C499.727 300.52 500.303 301.912 501.407 302.968C502.511 304.024 503.831 304.552 505.367 304.552C507.479 304.552 509.135 303.496 510.335 301.384L513.287 302.824C512.495 304.312 511.391 305.476 509.975 306.316C508.583 307.156 506.999 307.576 505.223 307.576ZM499.931 296.056H510.047C509.951 294.832 509.447 293.824 508.535 293.032C507.647 292.216 506.447 291.808 504.935 291.808C503.687 291.808 502.607 292.192 501.695 292.96C500.807 293.728 500.219 294.76 499.931 296.056ZM524.7 307.576C522.108 307.576 519.972 306.688 518.292 304.912C516.612 303.136 515.772 300.892 515.772 298.18C515.772 295.492 516.588 293.26 518.22 291.484C519.852 289.684 521.94 288.784 524.484 288.784C527.1 288.784 529.176 289.636 530.712 291.34C532.272 293.02 533.052 295.384 533.052 298.432L533.016 298.792H519.156C519.204 300.52 519.78 301.912 520.884 302.968C521.988 304.024 523.308 304.552 524.844 304.552C526.956 304.552 528.612 303.496 529.812 301.384L532.764 302.824C531.972 304.312 530.868 305.476 529.452 306.316C528.06 307.156 526.476 307.576 524.7 307.576ZM519.408 296.056H529.524C529.428 294.832 528.924 293.824 528.012 293.032C527.124 292.216 525.924 291.808 524.412 291.808C523.164 291.808 522.084 292.192 521.172 292.96C520.284 293.728 519.696 294.76 519.408 296.056ZM544.176 304.552C545.808 304.552 547.14 303.964 548.172 302.788C549.252 301.612 549.792 300.076 549.792 298.18C549.792 296.332 549.252 294.808 548.172 293.608C547.116 292.408 545.784 291.808 544.176 291.808C542.592 291.808 541.26 292.408 540.18 293.608C539.1 294.808 538.56 296.332 538.56 298.18C538.56 300.052 539.1 301.576 540.18 302.752C541.26 303.952 542.592 304.552 544.176 304.552ZM543.636 307.576C541.332 307.576 539.352 306.664 537.696 304.84C536.064 302.992 535.248 300.772 535.248 298.18C535.248 295.588 536.064 293.368 537.696 291.52C539.352 289.696 541.332 288.784 543.636 288.784C544.932 288.784 546.108 289.06 547.164 289.612C548.244 290.164 549.072 290.896 549.648 291.808H549.792L549.648 289.36V281.224H552.96V307H549.792V304.552H549.648C549.072 305.464 548.244 306.196 547.164 306.748C546.108 307.3 544.932 307.576 543.636 307.576ZM571.893 307.288C570.453 307.288 569.253 306.844 568.293 305.956C567.357 305.068 566.877 303.832 566.853 302.248V292.384H563.757V289.36H566.853V283.96H570.165V289.36H574.485V292.384H570.165V301.168C570.165 302.344 570.393 303.148 570.849 303.58C571.305 303.988 571.821 304.192 572.397 304.192C572.661 304.192 572.913 304.168 573.153 304.12C573.417 304.048 573.657 303.964 573.873 303.868L574.917 306.82C574.053 307.132 573.045 307.288 571.893 307.288ZM576.451 298.18C576.451 295.468 577.303 293.224 579.007 291.448C580.735 289.672 582.907 288.784 585.523 288.784C588.139 288.784 590.299 289.672 592.003 291.448C593.731 293.224 594.595 295.468 594.595 298.18C594.595 300.916 593.731 303.16 592.003 304.912C590.299 306.688 588.139 307.576 585.523 307.576C582.907 307.576 580.735 306.688 579.007 304.912C577.303 303.136 576.451 300.892 576.451 298.18ZM579.763 298.18C579.763 300.076 580.315 301.612 581.419 302.788C582.523 303.964 583.891 304.552 585.523 304.552C587.155 304.552 588.523 303.964 589.627 302.788C590.731 301.612 591.283 300.076 591.283 298.18C591.283 296.308 590.731 294.784 589.627 293.608C588.499 292.408 587.131 291.808 585.523 291.808C583.915 291.808 582.547 292.408 581.419 293.608C580.315 294.784 579.763 296.308 579.763 298.18ZM614.838 307.576C613.542 307.576 612.354 307.3 611.274 306.748C610.218 306.196 609.402 305.464 608.826 304.552H608.682V307H605.514V281.224H608.826V289.36L608.682 291.808H608.826C609.402 290.896 610.218 290.164 611.274 289.612C612.354 289.06 613.542 288.784 614.838 288.784C617.166 288.784 619.134 289.696 620.742 291.52C622.398 293.368 623.226 295.588 623.226 298.18C623.226 300.796 622.398 303.016 620.742 304.84C619.134 306.664 617.166 307.576 614.838 307.576ZM614.298 304.552C615.882 304.552 617.214 303.952 618.294 302.752C619.374 301.576 619.914 300.052 619.914 298.18C619.914 296.332 619.374 294.808 618.294 293.608C617.214 292.408 615.882 291.808 614.298 291.808C612.69 291.808 611.346 292.408 610.266 293.608C609.21 294.808 608.682 296.332 608.682 298.18C608.682 300.052 609.21 301.588 610.266 302.788C611.346 303.964 612.69 304.552 614.298 304.552ZM634.176 307.576C631.584 307.576 629.448 306.688 627.768 304.912C626.088 303.136 625.248 300.892 625.248 298.18C625.248 295.492 626.064 293.26 627.696 291.484C629.328 289.684 631.416 288.784 633.96 288.784C636.576 288.784 638.652 289.636 640.188 291.34C641.748 293.02 642.528 295.384 642.528 298.432L642.492 298.792H628.632C628.68 300.52 629.256 301.912 630.36 302.968C631.464 304.024 632.784 304.552 634.32 304.552C636.432 304.552 638.088 303.496 639.288 301.384L642.24 302.824C641.448 304.312 640.344 305.476 638.928 306.316C637.536 307.156 635.952 307.576 634.176 307.576ZM628.884 296.056H639C638.904 294.832 638.4 293.824 637.488 293.032C636.6 292.216 635.4 291.808 633.888 291.808C632.64 291.808 631.56 292.192 630.648 292.96C629.76 293.728 629.172 294.76 628.884 296.056ZM655.879 301.6C655.879 302.464 656.239 303.184 656.959 303.76C657.703 304.336 658.567 304.624 659.551 304.624C660.943 304.624 662.179 304.108 663.259 303.076C664.363 302.044 664.915 300.832 664.915 299.44C663.883 298.624 662.443 298.216 660.595 298.216C659.251 298.216 658.123 298.54 657.211 299.188C656.323 299.836 655.879 300.64 655.879 301.6ZM660.163 288.784C662.611 288.784 664.543 289.444 665.959 290.764C667.375 292.06 668.083 293.848 668.083 296.128V307H664.915V304.552H664.771C663.403 306.568 661.579 307.576 659.299 307.576C657.355 307.576 655.723 307 654.403 305.848C653.107 304.696 652.459 303.256 652.459 301.528C652.459 299.704 653.143 298.252 654.511 297.172C655.903 296.092 657.751 295.552 660.055 295.552C662.023 295.552 663.643 295.912 664.915 296.632V295.876C664.915 294.724 664.459 293.752 663.547 292.96C662.635 292.144 661.567 291.736 660.343 291.736C658.495 291.736 657.031 292.516 655.951 294.076L653.035 292.24C654.643 289.936 657.019 288.784 660.163 288.784ZM679.707 307.576C677.091 307.576 674.919 306.688 673.191 304.912C671.487 303.088 670.635 300.844 670.635 298.18C670.635 295.468 671.487 293.224 673.191 291.448C674.919 289.672 677.091 288.784 679.707 288.784C681.507 288.784 683.079 289.24 684.423 290.152C685.767 291.04 686.775 292.276 687.447 293.86L684.423 295.12C683.487 292.912 681.843 291.808 679.491 291.808C677.979 291.808 676.671 292.42 675.567 293.644C674.487 294.868 673.947 296.38 673.947 298.18C673.947 299.98 674.487 301.492 675.567 302.716C676.671 303.94 677.979 304.552 679.491 304.552C681.915 304.552 683.619 303.448 684.603 301.24L687.555 302.5C686.907 304.084 685.887 305.332 684.495 306.244C683.127 307.132 681.531 307.576 679.707 307.576ZM698.34 307.576C695.724 307.576 693.552 306.688 691.824 304.912C690.12 303.088 689.268 300.844 689.268 298.18C689.268 295.468 690.12 293.224 691.824 291.448C693.552 289.672 695.724 288.784 698.34 288.784C700.14 288.784 701.712 289.24 703.056 290.152C704.4 291.04 705.408 292.276 706.08 293.86L703.056 295.12C702.12 292.912 700.476 291.808 698.124 291.808C696.612 291.808 695.304 292.42 694.2 293.644C693.12 294.868 692.58 296.38 692.58 298.18C692.58 299.98 693.12 301.492 694.2 302.716C695.304 303.94 696.612 304.552 698.124 304.552C700.548 304.552 702.252 303.448 703.236 301.24L706.188 302.5C705.54 304.084 704.52 305.332 703.128 306.244C701.76 307.132 700.164 307.576 698.34 307.576ZM716.829 307.576C714.237 307.576 712.101 306.688 710.421 304.912C708.741 303.136 707.901 300.892 707.901 298.18C707.901 295.492 708.717 293.26 710.349 291.484C711.981 289.684 714.069 288.784 716.613 288.784C719.229 288.784 721.305 289.636 722.841 291.34C724.401 293.02 725.181 295.384 725.181 298.432L725.145 298.792H711.285C711.333 300.52 711.909 301.912 713.013 302.968C714.117 304.024 715.437 304.552 716.973 304.552C719.085 304.552 720.741 303.496 721.941 301.384L724.893 302.824C724.101 304.312 722.997 305.476 721.581 306.316C720.189 307.156 718.605 307.576 716.829 307.576ZM711.537 296.056H721.653C721.557 294.832 721.053 293.824 720.141 293.032C719.253 292.216 718.053 291.808 716.541 291.808C715.293 291.808 714.213 292.192 713.301 292.96C712.413 293.728 711.825 294.76 711.537 296.056ZM741.885 302.104C741.885 303.64 741.213 304.936 739.869 305.992C738.525 307.048 736.833 307.576 734.793 307.576C733.017 307.576 731.457 307.12 730.113 306.208C728.769 305.272 727.809 304.048 727.233 302.536L730.185 301.276C730.617 302.332 731.241 303.16 732.057 303.76C732.897 304.336 733.809 304.624 734.793 304.624C735.849 304.624 736.725 304.396 737.421 303.94C738.141 303.484 738.501 302.944 738.501 302.32C738.501 301.192 737.637 300.364 735.909 299.836L732.885 299.08C729.453 298.216 727.737 296.56 727.737 294.112C727.737 292.504 728.385 291.22 729.681 290.26C731.001 289.276 732.681 288.784 734.721 288.784C736.281 288.784 737.685 289.156 738.933 289.9C740.205 290.644 741.093 291.64 741.597 292.888L738.645 294.112C738.309 293.368 737.757 292.792 736.989 292.384C736.245 291.952 735.405 291.736 734.469 291.736C733.605 291.736 732.825 291.952 732.129 292.384C731.457 292.816 731.121 293.344 731.121 293.968C731.121 294.976 732.069 295.696 733.965 296.128L736.629 296.812C740.133 297.676 741.885 299.44 741.885 302.104ZM748.876 283.276C748.876 283.924 748.648 284.476 748.192 284.932C747.736 285.388 747.184 285.616 746.536 285.616C745.888 285.616 745.336 285.388 744.88 284.932C744.424 284.476 744.196 283.924 744.196 283.276C744.196 282.628 744.424 282.076 744.88 281.62C745.336 281.164 745.888 280.936 746.536 280.936C747.184 280.936 747.736 281.164 748.192 281.62C748.648 282.076 748.876 282.628 748.876 283.276ZM748.192 289.36V307H744.88V289.36H748.192ZM761.826 307.576C760.53 307.576 759.342 307.3 758.262 306.748C757.206 306.196 756.39 305.464 755.814 304.552H755.67V307H752.502V281.224H755.814V289.36L755.67 291.808H755.814C756.39 290.896 757.206 290.164 758.262 289.612C759.342 289.06 760.53 288.784 761.826 288.784C764.154 288.784 766.122 289.696 767.73 291.52C769.386 293.368 770.214 295.588 770.214 298.18C770.214 300.796 769.386 303.016 767.73 304.84C766.122 306.664 764.154 307.576 761.826 307.576ZM761.286 304.552C762.87 304.552 764.202 303.952 765.282 302.752C766.362 301.576 766.902 300.052 766.902 298.18C766.902 296.332 766.362 294.808 765.282 293.608C764.202 292.408 762.87 291.808 761.286 291.808C759.678 291.808 758.334 292.408 757.254 293.608C756.198 294.808 755.67 296.332 755.67 298.18C755.67 300.052 756.198 301.588 757.254 302.788C758.334 303.964 759.678 304.552 761.286 304.552ZM776.381 281.224V307H773.069V281.224H776.381ZM788.161 307.576C785.569 307.576 783.433 306.688 781.753 304.912C780.073 303.136 779.233 300.892 779.233 298.18C779.233 295.492 780.049 293.26 781.681 291.484C783.313 289.684 785.401 288.784 787.945 288.784C790.561 288.784 792.637 289.636 794.173 291.34C795.733 293.02 796.513 295.384 796.513 298.432L796.477 298.792H782.617C782.665 300.52 783.241 301.912 784.345 302.968C785.449 304.024 786.769 304.552 788.305 304.552C790.417 304.552 792.073 303.496 793.273 301.384L796.225 302.824C795.433 304.312 794.329 305.476 792.913 306.316C791.521 307.156 789.937 307.576 788.161 307.576ZM782.869 296.056H792.985C792.889 294.832 792.385 293.824 791.473 293.032C790.585 292.216 789.385 291.808 787.873 291.808C786.625 291.808 785.545 292.192 784.633 292.96C783.745 293.728 783.157 294.76 782.869 296.056Z" fill="#3789DB"/>
<path d="M91.8 153C121.396 153 145.35 129.046 145.35 99.45C145.35 69.8541 121.396 45.9 91.8 45.9C62.2041 45.9 38.25 69.8541 38.25 99.45C38.25 129.046 62.2041 153 91.8 153ZM128.52 168.3H124.552C114.607 173.081 103.562 175.95 91.8 175.95C80.0381 175.95 69.0413 173.081 59.0484 168.3H55.08C24.6712 168.3 0 192.971 0 223.38V237.15C0 249.82 10.2797 260.1 22.95 260.1H160.65C173.32 260.1 183.6 249.82 183.6 237.15V223.38C183.6 192.971 158.929 168.3 128.52 168.3ZM229.5 153C254.841 153 275.4 132.441 275.4 107.1C275.4 81.7594 254.841 61.2 229.5 61.2C204.159 61.2 183.6 81.7594 183.6 107.1C183.6 132.441 204.159 153 229.5 153ZM252.45 168.3H250.633C243.987 170.595 236.959 172.125 229.5 172.125C222.041 172.125 215.013 170.595 208.367 168.3H206.55C196.796 168.3 187.807 171.121 179.918 175.663C191.585 188.238 198.9 204.924 198.9 223.38V241.74C198.9 242.792 198.661 243.796 198.613 244.8H283.05C295.72 244.8 306 234.52 306 221.85C306 192.254 282.046 168.3 252.45 168.3V168.3Z" fill="#3789DB"/>
<path d="M777.475 79.4749C778.842 78.108 778.842 75.892 777.475 74.5251L755.201 52.2513C753.834 50.8844 751.618 50.8844 750.251 52.2513C748.884 53.6181 748.884 55.8342 750.251 57.201L770.05 77L750.251 96.799C748.884 98.1658 748.884 100.382 750.251 101.749C751.618 103.116 753.834 103.116 755.201 101.749L777.475 79.4749ZM371 80.5H775V73.5H371V80.5Z" fill="#3789DB"/>
<path d="M368.525 226.525C367.158 227.892 367.158 230.108 368.525 231.475L390.799 253.749C392.166 255.116 394.382 255.116 395.749 253.749C397.116 252.382 397.116 250.166 395.749 248.799L375.95 229L395.749 209.201C397.116 207.834 397.116 205.618 395.749 204.251C394.382 202.884 392.166 202.884 390.799 204.251L368.525 226.525ZM775 225.5L371 225.5V232.5L775 232.5V225.5Z" fill="#3789DB"/>
</svg>
