<svg width="1115" height="372" viewBox="0 0 1115 372" fill="none" xmlns="http://www.w3.org/2000/svg">
<path d="M1097.38 88.125H850.625C840.891 88.125 833 80.234 833 70.5V35.25C833 25.516 840.891 17.625 850.625 17.625H1097.38C1107.11 17.625 1115 25.516 1115 35.25V70.5C1115 80.234 1107.11 88.125 1097.38 88.125ZM1070.94 39.6562C1063.64 39.6562 1057.72 45.5744 1057.72 52.875C1057.72 60.1756 1063.64 66.0938 1070.94 66.0938C1078.24 66.0938 1084.16 60.1756 1084.16 52.875C1084.16 45.5744 1078.24 39.6562 1070.94 39.6562ZM1035.69 39.6562C1028.39 39.6562 1022.47 45.5744 1022.47 52.875C1022.47 60.1756 1028.39 66.0938 1035.69 66.0938C1042.99 66.0938 1048.91 60.1756 1048.91 52.875C1048.91 45.5744 1042.99 39.6562 1035.69 39.6562ZM1097.38 176.25H850.625C840.891 176.25 833 168.359 833 158.625V123.375C833 113.641 840.891 105.75 850.625 105.75H1097.38C1107.11 105.75 1115 113.641 1115 123.375V158.625C1115 168.359 1107.11 176.25 1097.38 176.25ZM1070.94 127.781C1063.64 127.781 1057.72 133.699 1057.72 141C1057.72 148.301 1063.64 154.219 1070.94 154.219C1078.24 154.219 1084.16 148.301 1084.16 141C1084.16 133.699 1078.24 127.781 1070.94 127.781ZM1035.69 127.781C1028.39 127.781 1022.47 133.699 1022.47 141C1022.47 148.301 1028.39 154.219 1035.69 154.219C1042.99 154.219 1048.91 148.301 1048.91 141C1048.91 133.699 1042.99 127.781 1035.69 127.781ZM1097.38 264.375H850.625C840.891 264.375 833 256.484 833 246.75V211.5C833 201.766 840.891 193.875 850.625 193.875H1097.38C1107.11 193.875 1115 201.766 1115 211.5V246.75C1115 256.484 1107.11 264.375 1097.38 264.375ZM1070.94 215.906C1063.64 215.906 1057.72 221.824 1057.72 229.125C1057.72 236.426 1063.64 242.344 1070.94 242.344C1078.24 242.344 1084.16 236.426 1084.16 229.125C1084.16 221.824 1078.24 215.906 1070.94 215.906ZM1035.69 215.906C1028.39 215.906 1022.47 221.824 1022.47 229.125C1022.47 236.426 1028.39 242.344 1035.69 242.344C1042.99 242.344 1048.91 236.426 1048.91 229.125C1048.91 221.824 1042.99 215.906 1035.69 215.906Z" fill="#3789DB"/>
<path d="M891.88 293.632H896.488L887.32 328H882.808L875.416 305.344H875.224L867.832 328H863.32L853.768 293.632H858.376L865.624 320.656H865.816L873.256 298.24H877.384L884.824 320.656H885.016L891.88 293.632ZM907.873 328.768C904.417 328.768 901.569 327.584 899.329 325.216C897.089 322.848 895.969 319.856 895.969 316.24C895.969 312.656 897.057 309.68 899.233 307.312C901.409 304.912 904.193 303.712 907.585 303.712C911.073 303.712 913.841 304.848 915.889 307.12C917.969 309.36 919.009 312.512 919.009 316.576L918.961 317.056H900.481C900.545 319.36 901.313 321.216 902.785 322.624C904.257 324.032 906.017 324.736 908.065 324.736C910.881 324.736 913.089 323.328 914.689 320.512L918.625 322.432C917.569 324.416 916.097 325.968 914.209 327.088C912.353 328.208 910.241 328.768 907.873 328.768ZM900.817 313.408H914.305C914.177 311.776 913.505 310.432 912.289 309.376C911.105 308.288 909.505 307.744 907.489 307.744C905.825 307.744 904.385 308.256 903.169 309.28C901.985 310.304 901.201 311.68 900.817 313.408ZM935.479 328.768C933.751 328.768 932.167 328.4 930.727 327.664C929.319 326.928 928.231 325.952 927.463 324.736H927.271V328H923.047V293.632H927.463V304.48L927.271 307.744H927.463C928.231 306.528 929.319 305.552 930.727 304.816C932.167 304.08 933.751 303.712 935.479 303.712C938.583 303.712 941.207 304.928 943.351 307.36C945.559 309.824 946.663 312.784 946.663 316.24C946.663 319.728 945.559 322.688 943.351 325.12C941.207 327.552 938.583 328.768 935.479 328.768ZM934.759 324.736C936.871 324.736 938.647 323.936 940.087 322.336C941.527 320.768 942.247 318.736 942.247 316.24C942.247 313.776 941.527 311.744 940.087 310.144C938.647 308.544 936.871 307.744 934.759 307.744C932.615 307.744 930.823 308.544 929.383 310.144C927.975 311.744 927.271 313.776 927.271 316.24C927.271 318.736 927.975 320.784 929.383 322.384C930.823 323.952 932.615 324.736 934.759 324.736ZM981.781 318.832C981.781 321.84 980.677 324.256 978.469 326.08C976.229 327.872 973.509 328.768 970.309 328.768C967.461 328.768 964.949 327.936 962.773 326.272C960.597 324.608 959.093 322.336 958.261 319.456L962.485 317.728C962.773 318.752 963.173 319.68 963.685 320.512C964.197 321.344 964.789 322.064 965.461 322.672C966.165 323.248 966.933 323.712 967.765 324.064C968.597 324.384 969.477 324.544 970.405 324.544C972.421 324.544 974.069 324.032 975.349 323.008C976.629 321.952 977.269 320.56 977.269 318.832C977.269 317.392 976.741 316.16 975.685 315.136C974.693 314.144 972.837 313.184 970.117 312.256C967.365 311.264 965.653 310.592 964.981 310.24C961.333 308.384 959.509 305.648 959.509 302.032C959.509 299.504 960.517 297.344 962.533 295.552C964.581 293.76 967.093 292.864 970.069 292.864C972.693 292.864 974.965 293.536 976.885 294.88C978.805 296.192 980.085 297.84 980.725 299.824L976.597 301.552C976.213 300.272 975.445 299.216 974.293 298.384C973.173 297.52 971.797 297.088 970.165 297.088C968.437 297.088 966.981 297.568 965.797 298.528C964.613 299.424 964.021 300.592 964.021 302.032C964.021 303.216 964.485 304.24 965.413 305.104C966.437 305.968 968.661 306.992 972.085 308.176C975.573 309.36 978.053 310.816 979.525 312.544C981.029 314.24 981.781 316.336 981.781 318.832ZM996.889 328.768C993.433 328.768 990.585 327.584 988.345 325.216C986.105 322.848 984.985 319.856 984.985 316.24C984.985 312.656 986.073 309.68 988.249 307.312C990.425 304.912 993.209 303.712 996.601 303.712C1000.09 303.712 1002.86 304.848 1004.9 307.12C1006.98 309.36 1008.02 312.512 1008.02 316.576L1007.98 317.056H989.497C989.561 319.36 990.329 321.216 991.801 322.624C993.273 324.032 995.033 324.736 997.081 324.736C999.897 324.736 1002.1 323.328 1003.7 320.512L1007.64 322.432C1006.58 324.416 1005.11 325.968 1003.22 327.088C1001.37 328.208 999.257 328.768 996.889 328.768ZM989.833 313.408H1003.32C1003.19 311.776 1002.52 310.432 1001.3 309.376C1000.12 308.288 998.521 307.744 996.505 307.744C994.841 307.744 993.401 308.256 992.185 309.28C991.001 310.304 990.217 311.68 989.833 313.408ZM1016.48 328H1012.06V304.48H1016.29V308.32H1016.48C1016.93 307.072 1017.84 306.016 1019.22 305.152C1020.62 304.256 1022 303.808 1023.34 303.808C1024.62 303.808 1025.71 304 1026.61 304.384L1025.26 308.656C1024.72 308.432 1023.86 308.32 1022.67 308.32C1021.01 308.32 1019.55 308.992 1018.3 310.336C1017.09 311.68 1016.48 313.248 1016.48 315.04V328ZM1041.39 328H1036.98L1027.47 304.48H1032.27L1039.19 322.72H1039.28L1046.29 304.48H1050.99L1041.39 328ZM1063.73 328.768C1060.28 328.768 1057.43 327.584 1055.19 325.216C1052.95 322.848 1051.83 319.856 1051.83 316.24C1051.83 312.656 1052.92 309.68 1055.09 307.312C1057.27 304.912 1060.05 303.712 1063.44 303.712C1066.93 303.712 1069.7 304.848 1071.75 307.12C1073.83 309.36 1074.87 312.512 1074.87 316.576L1074.82 317.056H1056.34C1056.4 319.36 1057.17 321.216 1058.64 322.624C1060.12 324.032 1061.88 324.736 1063.92 324.736C1066.74 324.736 1068.95 323.328 1070.55 320.512L1074.48 322.432C1073.43 324.416 1071.96 325.968 1070.07 327.088C1068.21 328.208 1066.1 328.768 1063.73 328.768ZM1056.68 313.408H1070.16C1070.04 311.776 1069.36 310.432 1068.15 309.376C1066.96 308.288 1065.36 307.744 1063.35 307.744C1061.68 307.744 1060.24 308.256 1059.03 309.28C1057.84 310.304 1057.06 311.68 1056.68 313.408ZM1083.32 328H1078.91V304.48H1083.13V308.32H1083.32C1083.77 307.072 1084.68 306.016 1086.06 305.152C1087.47 304.256 1088.84 303.808 1090.19 303.808C1091.47 303.808 1092.55 304 1093.45 304.384L1092.11 308.656C1091.56 308.432 1090.7 308.32 1089.51 308.32C1087.85 308.32 1086.39 308.992 1085.15 310.336C1083.93 311.68 1083.32 313.248 1083.32 315.04V328Z" fill="#3789DB"/>
<path d="M18.5255 312.124C18.5255 314.38 17.6975 316.192 16.0415 317.56C14.3615 318.904 12.3215 319.576 9.92148 319.576C7.78548 319.576 5.90148 318.952 4.26948 317.704C2.63748 316.456 1.50948 314.752 0.885484 312.592L4.05348 311.296C4.26948 312.064 4.56948 312.76 4.95348 313.384C5.33748 314.008 5.78148 314.548 6.28548 315.004C6.81348 315.436 7.38948 315.784 8.01349 316.048C8.63748 316.288 9.29748 316.408 9.99348 316.408C11.5055 316.408 12.7415 316.024 13.7015 315.256C14.6615 314.464 15.1415 313.42 15.1415 312.124C15.1415 311.044 14.7455 310.12 13.9535 309.352C13.2095 308.608 11.8175 307.888 9.77749 307.192C7.71348 306.448 6.42948 305.944 5.92548 305.68C3.18948 304.288 1.82148 302.236 1.82148 299.524C1.82148 297.628 2.57748 296.008 4.08948 294.664C5.62548 293.32 7.50948 292.648 9.74148 292.648C11.7095 292.648 13.4135 293.152 14.8535 294.16C16.2935 295.144 17.2535 296.38 17.7335 297.868L14.6375 299.164C14.3495 298.204 13.7735 297.412 12.9095 296.788C12.0695 296.14 11.0375 295.816 9.81348 295.816C8.51748 295.816 7.42548 296.176 6.53748 296.896C5.64948 297.568 5.20548 298.444 5.20548 299.524C5.20548 300.412 5.55348 301.18 6.24948 301.828C7.01748 302.476 8.68548 303.244 11.2535 304.132C13.8695 305.02 15.7295 306.112 16.8335 307.408C17.9615 308.68 18.5255 310.252 18.5255 312.124ZM26.2199 295.276C26.2199 295.924 25.9919 296.476 25.5359 296.932C25.0799 297.388 24.5279 297.616 23.8799 297.616C23.2319 297.616 22.6799 297.388 22.2239 296.932C21.7679 296.476 21.5399 295.924 21.5399 295.276C21.5399 294.628 21.7679 294.076 22.2239 293.62C22.6799 293.164 23.2319 292.936 23.8799 292.936C24.5279 292.936 25.0799 293.164 25.5359 293.62C25.9919 294.076 26.2199 294.628 26.2199 295.276ZM25.5359 301.36V319H22.2239V301.36H25.5359ZM29.8461 301.36H33.0141V303.808H33.1581C33.6621 302.944 34.4301 302.224 35.4621 301.648C36.5181 301.072 37.6101 300.784 38.7381 300.784C40.8981 300.784 42.5541 301.408 43.7061 302.656C44.8821 303.88 45.4701 305.632 45.4701 307.912V319H42.1581V308.128C42.0861 305.248 40.6341 303.808 37.8021 303.808C36.4821 303.808 35.3781 304.348 34.4901 305.428C33.6021 306.484 33.1581 307.756 33.1581 309.244V319H29.8461V301.36ZM57.102 316.552C58.734 316.552 60.066 315.964 61.098 314.788C62.178 313.612 62.718 312.076 62.718 310.18C62.718 308.332 62.178 306.808 61.098 305.608C60.042 304.408 58.71 303.808 57.102 303.808C55.518 303.808 54.186 304.408 53.106 305.608C52.026 306.808 51.486 308.332 51.486 310.18C51.486 312.052 52.026 313.576 53.106 314.752C54.186 315.952 55.518 316.552 57.102 316.552ZM56.994 327.352C56.01 327.352 55.086 327.22 54.222 326.956C53.358 326.716 52.566 326.368 51.846 325.912C51.15 325.456 50.55 324.916 50.046 324.292C49.542 323.668 49.158 322.972 48.894 322.204L52.026 320.908C52.386 321.94 53.01 322.768 53.898 323.392C54.786 324.016 55.818 324.328 56.994 324.328C58.794 324.328 60.198 323.788 61.206 322.708C62.214 321.628 62.718 320.14 62.718 318.244V316.552H62.574C61.95 317.488 61.098 318.232 60.018 318.784C58.962 319.312 57.81 319.576 56.562 319.576C54.258 319.576 52.278 318.676 50.622 316.876C48.99 315.028 48.174 312.796 48.174 310.18C48.174 307.564 48.99 305.344 50.622 303.52C52.278 301.696 54.258 300.784 56.562 300.784C57.81 300.784 58.962 301.06 60.018 301.612C61.098 302.14 61.95 302.872 62.574 303.808H62.718V301.36H65.886V318.244C65.886 321.076 65.082 323.296 63.474 324.904C61.842 326.536 59.682 327.352 56.994 327.352ZM73.2362 293.224V319H69.9242V293.224H73.2362ZM85.0161 319.576C82.4241 319.576 80.2881 318.688 78.6081 316.912C76.9281 315.136 76.0881 312.892 76.0881 310.18C76.0881 307.492 76.9041 305.26 78.5361 303.484C80.1681 301.684 82.2561 300.784 84.8001 300.784C87.4161 300.784 89.4921 301.636 91.0281 303.34C92.5881 305.02 93.3681 307.384 93.3681 310.432L93.3321 310.792H79.4721C79.5201 312.52 80.0961 313.912 81.2001 314.968C82.3041 316.024 83.6241 316.552 85.1601 316.552C87.2721 316.552 88.9281 315.496 90.1281 313.384L93.0801 314.824C92.2881 316.312 91.1841 317.476 89.7681 318.316C88.3761 319.156 86.7921 319.576 85.0161 319.576ZM79.7241 308.056H89.8401C89.7441 306.832 89.2401 305.824 88.3281 305.032C87.4401 304.216 86.2401 303.808 84.7281 303.808C83.4801 303.808 82.4001 304.192 81.4881 304.96C80.6001 305.728 80.0121 306.76 79.7241 308.056ZM128.984 307.156C128.984 310.756 127.916 313.624 125.78 315.76C123.38 318.304 120.224 319.576 116.312 319.576C112.568 319.576 109.4 318.28 106.808 315.688C104.216 313.096 102.92 309.904 102.92 306.112C102.92 302.32 104.216 299.128 106.808 296.536C109.4 293.944 112.568 292.648 116.312 292.648C118.208 292.648 119.996 292.984 121.676 293.656C123.356 294.328 124.736 295.276 125.816 296.5L123.44 298.876C122.648 297.916 121.616 297.172 120.344 296.644C119.096 296.092 117.752 295.816 116.312 295.816C113.504 295.816 111.128 296.788 109.184 298.732C107.264 300.7 106.304 303.16 106.304 306.112C106.304 309.064 107.264 311.524 109.184 313.492C111.128 315.436 113.504 316.408 116.312 316.408C118.88 316.408 121.016 315.688 122.72 314.248C124.424 312.808 125.408 310.828 125.672 308.308H116.312V305.212H128.804C128.924 305.884 128.984 306.532 128.984 307.156ZM135.744 293.224V319H132.432V293.224H135.744ZM138.596 310.18C138.596 307.468 139.448 305.224 141.152 303.448C142.88 301.672 145.052 300.784 147.668 300.784C150.284 300.784 152.444 301.672 154.148 303.448C155.876 305.224 156.74 307.468 156.74 310.18C156.74 312.916 155.876 315.16 154.148 316.912C152.444 318.688 150.284 319.576 147.668 319.576C145.052 319.576 142.88 318.688 141.152 316.912C139.448 315.136 138.596 312.892 138.596 310.18ZM141.908 310.18C141.908 312.076 142.46 313.612 143.564 314.788C144.668 315.964 146.036 316.552 147.668 316.552C149.3 316.552 150.668 315.964 151.772 314.788C152.876 313.612 153.428 312.076 153.428 310.18C153.428 308.308 152.876 306.784 151.772 305.608C150.644 304.408 149.276 303.808 147.668 303.808C146.06 303.808 144.692 304.408 143.564 305.608C142.46 306.784 141.908 308.308 141.908 310.18ZM168.897 319.576C167.601 319.576 166.413 319.3 165.333 318.748C164.277 318.196 163.461 317.464 162.885 316.552H162.741V319H159.573V293.224H162.885V301.36L162.741 303.808H162.885C163.461 302.896 164.277 302.164 165.333 301.612C166.413 301.06 167.601 300.784 168.897 300.784C171.225 300.784 173.193 301.696 174.801 303.52C176.457 305.368 177.285 307.588 177.285 310.18C177.285 312.796 176.457 315.016 174.801 316.84C173.193 318.664 171.225 319.576 168.897 319.576ZM168.357 316.552C169.941 316.552 171.273 315.952 172.353 314.752C173.433 313.576 173.973 312.052 173.973 310.18C173.973 308.332 173.433 306.808 172.353 305.608C171.273 304.408 169.941 303.808 168.357 303.808C166.749 303.808 165.405 304.408 164.325 305.608C163.269 306.808 162.741 308.332 162.741 310.18C162.741 312.052 163.269 313.588 164.325 314.788C165.405 315.964 166.749 316.552 168.357 316.552ZM182.727 313.6C182.727 314.464 183.087 315.184 183.807 315.76C184.551 316.336 185.415 316.624 186.399 316.624C187.791 316.624 189.027 316.108 190.107 315.076C191.211 314.044 191.763 312.832 191.763 311.44C190.731 310.624 189.291 310.216 187.443 310.216C186.099 310.216 184.971 310.54 184.059 311.188C183.171 311.836 182.727 312.64 182.727 313.6ZM187.011 300.784C189.459 300.784 191.391 301.444 192.807 302.764C194.223 304.06 194.931 305.848 194.931 308.128V319H191.763V316.552H191.619C190.251 318.568 188.427 319.576 186.147 319.576C184.203 319.576 182.571 319 181.251 317.848C179.955 316.696 179.307 315.256 179.307 313.528C179.307 311.704 179.991 310.252 181.359 309.172C182.751 308.092 184.599 307.552 186.903 307.552C188.871 307.552 190.491 307.912 191.763 308.632V307.876C191.763 306.724 191.307 305.752 190.395 304.96C189.483 304.144 188.415 303.736 187.191 303.736C185.343 303.736 183.879 304.516 182.799 306.076L179.883 304.24C181.491 301.936 183.867 300.784 187.011 300.784ZM201.978 293.224V319H198.666V293.224H201.978ZM217.812 319H214.5V293.224H217.812V319ZM226.32 308.56V319H223.008V293.224H231.792C234.024 293.224 235.92 293.968 237.48 295.456C239.064 296.944 239.856 298.756 239.856 300.892C239.856 303.076 239.064 304.9 237.48 306.364C235.944 307.828 234.048 308.56 231.792 308.56H226.32ZM226.32 296.392V305.392H231.864C233.184 305.392 234.276 304.948 235.14 304.06C236.028 303.172 236.472 302.116 236.472 300.892C236.472 299.692 236.028 298.648 235.14 297.76C234.276 296.848 233.184 296.392 231.864 296.392H226.32ZM258.095 292.936C259.295 292.936 260.279 293.14 261.047 293.548L260.147 296.464C259.571 296.176 258.923 296.032 258.203 296.032C257.387 296.032 256.715 296.32 256.187 296.896C255.683 297.448 255.431 298.192 255.431 299.128V301.36H260.039V304.384H255.431V319H252.119V304.384H248.807V301.36H252.119V298.804C252.119 297.052 252.671 295.636 253.775 294.556C254.903 293.476 256.343 292.936 258.095 292.936ZM261.115 310.18C261.115 307.468 261.967 305.224 263.671 303.448C265.399 301.672 267.571 300.784 270.187 300.784C272.803 300.784 274.963 301.672 276.667 303.448C278.395 305.224 279.259 307.468 279.259 310.18C279.259 312.916 278.395 315.16 276.667 316.912C274.963 318.688 272.803 319.576 270.187 319.576C267.571 319.576 265.399 318.688 263.671 316.912C261.967 315.136 261.115 312.892 261.115 310.18ZM264.427 310.18C264.427 312.076 264.979 313.612 266.083 314.788C267.187 315.964 268.555 316.552 270.187 316.552C271.819 316.552 273.187 315.964 274.291 314.788C275.395 313.612 275.947 312.076 275.947 310.18C275.947 308.308 275.395 306.784 274.291 305.608C273.163 304.408 271.795 303.808 270.187 303.808C268.579 303.808 267.211 304.408 266.083 305.608C264.979 306.784 264.427 308.308 264.427 310.18ZM285.228 319H281.916V301.36H285.084V304.24H285.228C285.564 303.304 286.248 302.512 287.28 301.864C288.336 301.192 289.368 300.856 290.376 300.856C291.336 300.856 292.152 301 292.824 301.288L291.816 304.492C291.408 304.324 290.76 304.24 289.872 304.24C288.624 304.24 287.532 304.744 286.596 305.752C285.684 306.76 285.228 307.936 285.228 309.28V319ZM43.2831 363H39.9711V345.36H43.1391V347.808H43.2831C43.7871 346.944 44.5551 346.224 45.5871 345.648C46.6431 345.072 47.6871 344.784 48.7191 344.784C50.0151 344.784 51.1551 345.084 52.1391 345.684C53.1231 346.284 53.8431 347.112 54.2991 348.168C55.7631 345.912 57.7911 344.784 60.3831 344.784C62.4231 344.784 63.9951 345.408 65.0991 346.656C66.2031 347.904 66.7551 349.68 66.7551 351.984V363H63.4431V352.488C63.4431 350.832 63.1431 349.644 62.5431 348.924C61.9431 348.18 60.9351 347.808 59.5191 347.808C58.2471 347.808 57.1791 348.348 56.3151 349.428C55.4511 350.508 55.0191 351.78 55.0191 353.244V363H51.7071V352.488C51.7071 350.832 51.4071 349.644 50.8071 348.924C50.2071 348.18 49.1991 347.808 47.7831 347.808C46.5111 347.808 45.4431 348.348 44.5791 349.428C43.7151 350.508 43.2831 351.78 43.2831 353.244V363ZM86.1073 363H82.9393V360.552H82.7953C82.2913 361.416 81.5113 362.136 80.4553 362.712C79.4233 363.288 78.3433 363.576 77.2153 363.576C75.0553 363.576 73.3873 362.964 72.2113 361.74C71.0593 360.492 70.4833 358.728 70.4833 356.448V345.36H73.7953V356.232C73.8673 359.112 75.3193 360.552 78.1513 360.552C79.4713 360.552 80.5753 360.024 81.4633 358.968C82.3513 357.888 82.7953 356.604 82.7953 355.116V345.36H86.1073V363ZM93.451 337.224V363H90.139V337.224H93.451ZM104.646 363.288C103.206 363.288 102.006 362.844 101.046 361.956C100.11 361.068 99.6305 359.832 99.6065 358.248V348.384H96.5105V345.36H99.6065V339.96H102.918V345.36H107.238V348.384H102.918V357.168C102.918 358.344 103.146 359.148 103.602 359.58C104.058 359.988 104.574 360.192 105.15 360.192C105.414 360.192 105.666 360.168 105.906 360.12C106.17 360.048 106.41 359.964 106.626 359.868L107.67 362.82C106.806 363.132 105.798 363.288 104.646 363.288ZM114.849 339.276C114.849 339.924 114.621 340.476 114.165 340.932C113.709 341.388 113.157 341.616 112.509 341.616C111.861 341.616 111.309 341.388 110.853 340.932C110.397 340.476 110.169 339.924 110.169 339.276C110.169 338.628 110.397 338.076 110.853 337.62C111.309 337.164 111.861 336.936 112.509 336.936C113.157 336.936 113.709 337.164 114.165 337.62C114.621 338.076 114.849 338.628 114.849 339.276ZM114.165 345.36V363H110.853V345.36H114.165ZM127.115 360.552C128.699 360.552 130.031 359.952 131.111 358.752C132.191 357.576 132.731 356.052 132.731 354.18C132.731 352.332 132.191 350.808 131.111 349.608C130.031 348.408 128.699 347.808 127.115 347.808C125.507 347.808 124.163 348.408 123.083 349.608C122.027 350.808 121.499 352.332 121.499 354.18C121.499 356.052 122.027 357.588 123.083 358.788C124.163 359.964 125.507 360.552 127.115 360.552ZM127.655 363.576C126.359 363.576 125.171 363.3 124.091 362.748C123.035 362.196 122.219 361.464 121.643 360.552H121.499L121.643 363V370.776H118.331V345.36H121.499V347.808H121.643C122.219 346.896 123.035 346.164 124.091 345.612C125.171 345.06 126.359 344.784 127.655 344.784C129.983 344.784 131.951 345.696 133.559 347.52C135.215 349.368 136.043 351.588 136.043 354.18C136.043 356.796 135.215 359.016 133.559 360.84C131.951 362.664 129.983 363.576 127.655 363.576ZM142.037 337.224V363H138.725V337.224H142.037ZM153.817 363.576C151.225 363.576 149.089 362.688 147.409 360.912C145.729 359.136 144.889 356.892 144.889 354.18C144.889 351.492 145.705 349.26 147.337 347.484C148.969 345.684 151.057 344.784 153.601 344.784C156.217 344.784 158.293 345.636 159.829 347.34C161.389 349.02 162.169 351.384 162.169 354.432L162.133 354.792H148.273C148.321 356.52 148.897 357.912 150.001 358.968C151.105 360.024 152.425 360.552 153.961 360.552C156.073 360.552 157.729 359.496 158.929 357.384L161.881 358.824C161.089 360.312 159.985 361.476 158.569 362.316C157.177 363.156 155.593 363.576 153.817 363.576ZM148.525 352.056H158.641C158.545 350.832 158.041 349.824 157.129 349.032C156.241 348.216 155.041 347.808 153.529 347.808C152.281 347.808 151.201 348.192 150.289 348.96C149.401 349.728 148.813 350.76 148.525 352.056ZM188.588 363H185.42V360.552H185.276C184.772 361.416 183.992 362.136 182.936 362.712C181.904 363.288 180.824 363.576 179.696 363.576C177.536 363.576 175.868 362.964 174.692 361.74C173.54 360.492 172.964 358.728 172.964 356.448V345.36H176.276V356.232C176.348 359.112 177.8 360.552 180.632 360.552C181.952 360.552 183.056 360.024 183.944 358.968C184.832 357.888 185.276 356.604 185.276 355.116V345.36H188.588V363ZM205.944 358.104C205.944 359.64 205.272 360.936 203.928 361.992C202.584 363.048 200.892 363.576 198.852 363.576C197.076 363.576 195.516 363.12 194.172 362.208C192.828 361.272 191.868 360.048 191.292 358.536L194.244 357.276C194.676 358.332 195.3 359.16 196.116 359.76C196.956 360.336 197.868 360.624 198.852 360.624C199.908 360.624 200.784 360.396 201.48 359.94C202.2 359.484 202.56 358.944 202.56 358.32C202.56 357.192 201.696 356.364 199.968 355.836L196.944 355.08C193.512 354.216 191.796 352.56 191.796 350.112C191.796 348.504 192.444 347.22 193.74 346.26C195.06 345.276 196.74 344.784 198.78 344.784C200.34 344.784 201.744 345.156 202.992 345.9C204.264 346.644 205.152 347.64 205.656 348.888L202.704 350.112C202.368 349.368 201.816 348.792 201.048 348.384C200.304 347.952 199.464 347.736 198.528 347.736C197.664 347.736 196.884 347.952 196.188 348.384C195.516 348.816 195.18 349.344 195.18 349.968C195.18 350.976 196.128 351.696 198.024 352.128L200.688 352.812C204.192 353.676 205.944 355.44 205.944 358.104ZM216.922 363.576C214.33 363.576 212.194 362.688 210.514 360.912C208.834 359.136 207.994 356.892 207.994 354.18C207.994 351.492 208.81 349.26 210.442 347.484C212.074 345.684 214.162 344.784 216.706 344.784C219.322 344.784 221.398 345.636 222.934 347.34C224.494 349.02 225.274 351.384 225.274 354.432L225.238 354.792H211.378C211.426 356.52 212.002 357.912 213.106 358.968C214.21 360.024 215.53 360.552 217.066 360.552C219.178 360.552 220.834 359.496 222.034 357.384L224.986 358.824C224.194 360.312 223.09 361.476 221.674 362.316C220.282 363.156 218.698 363.576 216.922 363.576ZM211.63 352.056H221.746C221.65 350.832 221.146 349.824 220.234 349.032C219.346 348.216 218.146 347.808 216.634 347.808C215.386 347.808 214.306 348.192 213.394 348.96C212.506 349.728 211.918 350.76 211.63 352.056ZM231.615 363H228.303V345.36H231.471V348.24H231.615C231.951 347.304 232.635 346.512 233.667 345.864C234.723 345.192 235.755 344.856 236.763 344.856C237.723 344.856 238.539 345 239.211 345.288L238.203 348.492C237.795 348.324 237.147 348.24 236.259 348.24C235.011 348.24 233.919 348.744 232.983 349.752C232.071 350.76 231.615 351.936 231.615 353.28V363ZM254.178 358.104C254.178 359.64 253.506 360.936 252.162 361.992C250.818 363.048 249.126 363.576 247.086 363.576C245.31 363.576 243.75 363.12 242.406 362.208C241.062 361.272 240.102 360.048 239.526 358.536L242.478 357.276C242.91 358.332 243.534 359.16 244.35 359.76C245.19 360.336 246.102 360.624 247.086 360.624C248.142 360.624 249.018 360.396 249.714 359.94C250.434 359.484 250.794 358.944 250.794 358.32C250.794 357.192 249.93 356.364 248.202 355.836L245.178 355.08C241.746 354.216 240.03 352.56 240.03 350.112C240.03 348.504 240.678 347.22 241.974 346.26C243.294 345.276 244.974 344.784 247.014 344.784C248.574 344.784 249.978 345.156 251.226 345.9C252.498 346.644 253.386 347.64 253.89 348.888L250.938 350.112C250.602 349.368 250.05 348.792 249.282 348.384C248.538 347.952 247.698 347.736 246.762 347.736C245.898 347.736 245.118 347.952 244.422 348.384C243.75 348.816 243.414 349.344 243.414 349.968C243.414 350.976 244.362 351.696 246.258 352.128L248.922 352.812C252.426 353.676 254.178 355.44 254.178 358.104Z" fill="#3789DB"/>
<path d="M760.475 143.475C761.842 142.108 761.842 139.892 760.475 138.525L738.201 116.251C736.834 114.884 734.618 114.884 733.251 116.251C731.884 117.618 731.884 119.834 733.251 121.201L753.05 141L733.251 160.799C731.884 162.166 731.884 164.382 733.251 165.749C734.618 167.116 736.834 167.116 738.201 165.749L760.475 143.475ZM354 144.5H758V137.5H354V144.5Z" fill="#3789DB"/>
<path d="M256.969 261.25H246.5V22.5625C246.5 15.6243 240.876 10 233.938 10H58.0625C51.1243 10 45.5 15.6243 45.5 22.5625V261.25H35.0312C31.5624 261.25 28.75 264.062 28.75 267.531V278H263.25V267.531C263.25 264.062 260.438 261.25 256.969 261.25ZM95.75 49.7812C95.75 46.3124 98.5624 43.5 102.031 43.5H122.969C126.438 43.5 129.25 46.3124 129.25 49.7812V70.7188C129.25 74.1876 126.438 77 122.969 77H102.031C98.5624 77 95.75 74.1876 95.75 70.7188V49.7812ZM95.75 100.031C95.75 96.5624 98.5624 93.75 102.031 93.75H122.969C126.438 93.75 129.25 96.5624 129.25 100.031V120.969C129.25 124.438 126.438 127.25 122.969 127.25H102.031C98.5624 127.25 95.75 124.438 95.75 120.969V100.031ZM122.969 177.5H102.031C98.5624 177.5 95.75 174.688 95.75 171.219V150.281C95.75 146.812 98.5624 144 102.031 144H122.969C126.438 144 129.25 146.812 129.25 150.281V171.219C129.25 174.688 126.438 177.5 122.969 177.5ZM162.75 261.25H129.25V217.281C129.25 213.812 132.062 211 135.531 211H156.469C159.938 211 162.75 213.812 162.75 217.281V261.25ZM196.25 171.219C196.25 174.688 193.438 177.5 189.969 177.5H169.031C165.562 177.5 162.75 174.688 162.75 171.219V150.281C162.75 146.812 165.562 144 169.031 144H189.969C193.438 144 196.25 146.812 196.25 150.281V171.219ZM196.25 120.969C196.25 124.438 193.438 127.25 189.969 127.25H169.031C165.562 127.25 162.75 124.438 162.75 120.969V100.031C162.75 96.5624 165.562 93.75 169.031 93.75H189.969C193.438 93.75 196.25 96.5624 196.25 100.031V120.969ZM196.25 70.7188C196.25 74.1876 193.438 77 189.969 77H169.031C165.562 77 162.75 74.1876 162.75 70.7188V49.7812C162.75 46.3124 165.562 43.5 169.031 43.5H189.969C193.438 43.5 196.25 46.3124 196.25 49.7812V70.7188Z" fill="#3789DB"/>
</svg>
