<svg width="672" height="362" viewBox="0 0 672 362" fill="none" xmlns="http://www.w3.org/2000/svg">
<rect x="376" y="17" width="296" height="327" fill="#494949"/>
<rect width="422" height="362" fill="#03A2C5"/>
<path d="M573.98 224.938H577.801V236.141C577.801 237.469 577.52 238.586 576.957 239.492C576.402 240.398 575.629 241.082 574.637 241.543C573.645 242.004 572.496 242.234 571.191 242.234C569.879 242.234 568.723 242.004 567.723 241.543C566.73 241.082 565.949 240.398 565.379 239.492C564.816 238.586 564.535 237.469 564.535 236.141V224.938H568.367V236.141C568.367 236.875 568.477 237.477 568.695 237.945C568.922 238.406 569.246 238.746 569.668 238.965C570.09 239.176 570.598 239.281 571.191 239.281C571.785 239.281 572.289 239.176 572.703 238.965C573.125 238.746 573.441 238.406 573.652 237.945C573.871 237.477 573.98 236.875 573.98 236.141V224.938ZM587.094 238.473C587.094 238.238 587.02 238.031 586.871 237.852C586.73 237.672 586.473 237.508 586.098 237.359C585.73 237.211 585.211 237.062 584.539 236.914C583.906 236.781 583.316 236.609 582.77 236.398C582.223 236.18 581.746 235.918 581.34 235.613C580.934 235.301 580.617 234.934 580.391 234.512C580.164 234.082 580.051 233.594 580.051 233.047C580.051 232.516 580.164 232.012 580.391 231.535C580.625 231.059 580.961 230.637 581.398 230.27C581.844 229.902 582.383 229.613 583.016 229.402C583.656 229.191 584.383 229.086 585.195 229.086C586.312 229.086 587.277 229.262 588.09 229.613C588.902 229.957 589.527 230.441 589.965 231.066C590.402 231.684 590.621 232.391 590.621 233.188H586.965C586.965 232.859 586.902 232.574 586.777 232.332C586.652 232.09 586.461 231.902 586.203 231.77C585.945 231.629 585.605 231.559 585.184 231.559C584.855 231.559 584.566 231.617 584.316 231.734C584.074 231.844 583.883 231.996 583.742 232.191C583.609 232.387 583.543 232.613 583.543 232.871C583.543 233.051 583.582 233.215 583.66 233.363C583.746 233.504 583.875 233.637 584.047 233.762C584.227 233.879 584.457 233.984 584.738 234.078C585.027 234.172 585.379 234.262 585.793 234.348C586.676 234.512 587.48 234.742 588.207 235.039C588.941 235.336 589.527 235.746 589.965 236.27C590.41 236.793 590.633 237.484 590.633 238.344C590.633 238.906 590.504 239.422 590.246 239.891C589.996 240.359 589.633 240.77 589.156 241.121C588.68 241.473 588.109 241.746 587.445 241.941C586.781 242.137 586.031 242.234 585.195 242.234C584 242.234 582.988 242.02 582.16 241.59C581.332 241.16 580.707 240.621 580.285 239.973C579.871 239.316 579.664 238.645 579.664 237.957H583.098C583.113 238.379 583.219 238.723 583.414 238.988C583.617 239.254 583.879 239.449 584.199 239.574C584.52 239.691 584.879 239.75 585.277 239.75C585.676 239.75 586.008 239.695 586.273 239.586C586.539 239.477 586.742 239.328 586.883 239.141C587.023 238.945 587.094 238.723 587.094 238.473ZM598.648 242.234C597.641 242.234 596.738 242.074 595.941 241.754C595.145 241.434 594.469 240.992 593.914 240.43C593.367 239.859 592.949 239.203 592.66 238.461C592.371 237.719 592.227 236.926 592.227 236.082V235.637C592.227 234.691 592.359 233.82 592.625 233.023C592.891 232.227 593.277 231.535 593.785 230.949C594.301 230.355 594.934 229.898 595.684 229.578C596.434 229.25 597.289 229.086 598.25 229.086C599.148 229.086 599.949 229.234 600.652 229.531C601.355 229.82 601.949 230.238 602.434 230.785C602.918 231.324 603.285 231.977 603.535 232.742C603.793 233.5 603.922 234.352 603.922 235.297V236.797H593.703V234.441H600.336V234.16C600.336 233.715 600.254 233.324 600.09 232.988C599.934 232.652 599.699 232.395 599.387 232.215C599.082 232.027 598.695 231.934 598.227 231.934C597.781 231.934 597.41 232.027 597.113 232.215C596.816 232.402 596.578 232.668 596.398 233.012C596.227 233.348 596.102 233.742 596.023 234.195C595.945 234.641 595.906 235.121 595.906 235.637V236.082C595.906 236.574 595.973 237.023 596.105 237.43C596.238 237.836 596.434 238.184 596.691 238.473C596.949 238.762 597.262 238.988 597.629 239.152C597.996 239.316 598.414 239.398 598.883 239.398C599.461 239.398 600.012 239.289 600.535 239.07C601.059 238.844 601.512 238.492 601.895 238.016L603.605 239.973C603.348 240.348 602.984 240.711 602.516 241.062C602.055 241.406 601.5 241.688 600.852 241.906C600.203 242.125 599.469 242.234 598.648 242.234ZM609.371 232.273V242H605.715V229.32H609.148L609.371 232.273ZM613.156 229.227L613.098 232.637C612.941 232.613 612.738 232.594 612.488 232.578C612.238 232.555 612.023 232.543 611.844 232.543C611.375 232.543 610.969 232.602 610.625 232.719C610.289 232.828 610.008 232.992 609.781 233.211C609.562 233.43 609.398 233.703 609.289 234.031C609.18 234.352 609.125 234.723 609.125 235.145L608.434 234.805C608.434 233.969 608.516 233.203 608.68 232.508C608.844 231.812 609.082 231.211 609.395 230.703C609.707 230.188 610.09 229.789 610.543 229.508C610.996 229.227 611.512 229.086 612.09 229.086C612.277 229.086 612.469 229.098 612.664 229.121C612.859 229.145 613.023 229.18 613.156 229.227ZM621.406 238.473C621.406 238.238 621.332 238.031 621.184 237.852C621.043 237.672 620.785 237.508 620.41 237.359C620.043 237.211 619.523 237.062 618.852 236.914C618.219 236.781 617.629 236.609 617.082 236.398C616.535 236.18 616.059 235.918 615.652 235.613C615.246 235.301 614.93 234.934 614.703 234.512C614.477 234.082 614.363 233.594 614.363 233.047C614.363 232.516 614.477 232.012 614.703 231.535C614.938 231.059 615.273 230.637 615.711 230.27C616.156 229.902 616.695 229.613 617.328 229.402C617.969 229.191 618.695 229.086 619.508 229.086C620.625 229.086 621.59 229.262 622.402 229.613C623.215 229.957 623.84 230.441 624.277 231.066C624.715 231.684 624.934 232.391 624.934 233.188H621.277C621.277 232.859 621.215 232.574 621.09 232.332C620.965 232.09 620.773 231.902 620.516 231.77C620.258 231.629 619.918 231.559 619.496 231.559C619.168 231.559 618.879 231.617 618.629 231.734C618.387 231.844 618.195 231.996 618.055 232.191C617.922 232.387 617.855 232.613 617.855 232.871C617.855 233.051 617.895 233.215 617.973 233.363C618.059 233.504 618.188 233.637 618.359 233.762C618.539 233.879 618.77 233.984 619.051 234.078C619.34 234.172 619.691 234.262 620.105 234.348C620.988 234.512 621.793 234.742 622.52 235.039C623.254 235.336 623.84 235.746 624.277 236.27C624.723 236.793 624.945 237.484 624.945 238.344C624.945 238.906 624.816 239.422 624.559 239.891C624.309 240.359 623.945 240.77 623.469 241.121C622.992 241.473 622.422 241.746 621.758 241.941C621.094 242.137 620.344 242.234 619.508 242.234C618.312 242.234 617.301 242.02 616.473 241.59C615.645 241.16 615.02 240.621 614.598 239.973C614.184 239.316 613.977 238.645 613.977 237.957H617.41C617.426 238.379 617.531 238.723 617.727 238.988C617.93 239.254 618.191 239.449 618.512 239.574C618.832 239.691 619.191 239.75 619.59 239.75C619.988 239.75 620.32 239.695 620.586 239.586C620.852 239.477 621.055 239.328 621.195 239.141C621.336 238.945 621.406 238.723 621.406 238.473Z" fill="white"/>
<path d="M574 163C583.672 163 591.5 155.172 591.5 145.5C591.5 135.828 583.672 128 574 128C564.328 128 556.5 135.828 556.5 145.5C556.5 155.172 564.328 163 574 163ZM586 168H584.703C581.453 169.562 577.844 170.5 574 170.5C570.156 170.5 566.562 169.562 563.297 168H562C552.062 168 544 176.063 544 186V190.5C544 194.641 547.359 198 551.5 198H596.5C600.641 198 604 194.641 604 190.5V186C604 176.063 595.937 168 586 168ZM619 163C627.281 163 634 156.281 634 148C634 139.719 627.281 133 619 133C610.719 133 604 139.719 604 148C604 156.281 610.719 163 619 163ZM626.5 168H625.906C623.734 168.75 621.438 169.25 619 169.25C616.562 169.25 614.266 168.75 612.094 168H611.5C608.313 168 605.375 168.922 602.797 170.406C606.609 174.516 609 179.969 609 186V192C609 192.344 608.922 192.672 608.906 193H636.5C640.641 193 644 189.641 644 185.5C644 175.828 636.172 168 626.5 168V168Z" fill="white"/>
<path d="M314.266 332.07H309.977V329.105H314.266C314.898 329.105 315.406 329 315.789 328.789C316.18 328.578 316.465 328.289 316.645 327.922C316.832 327.547 316.926 327.125 316.926 326.656C316.926 326.172 316.832 325.723 316.645 325.309C316.465 324.887 316.18 324.547 315.789 324.289C315.406 324.031 314.898 323.902 314.266 323.902H311.359V338H307.539V320.938H314.266C315.625 320.938 316.789 321.184 317.758 321.676C318.734 322.168 319.48 322.844 319.996 323.703C320.52 324.555 320.781 325.531 320.781 326.633C320.781 327.734 320.52 328.691 319.996 329.504C319.48 330.316 318.734 330.949 317.758 331.402C316.789 331.848 315.625 332.07 314.266 332.07ZM326.922 336.535L330.238 325.32H334.176L329.078 339.898C328.969 340.219 328.82 340.562 328.633 340.93C328.453 341.297 328.207 341.648 327.895 341.984C327.59 342.32 327.199 342.594 326.723 342.805C326.246 343.016 325.66 343.121 324.965 343.121C324.613 343.121 324.34 343.102 324.145 343.062C323.957 343.031 323.707 342.977 323.395 342.898L323.383 340.238C323.484 340.238 323.574 340.238 323.652 340.238C323.738 340.246 323.824 340.25 323.91 340.25C324.348 340.25 324.699 340.203 324.965 340.109C325.238 340.016 325.449 339.875 325.598 339.688C325.754 339.508 325.879 339.277 325.973 338.996L326.922 336.535ZM325.809 325.32L328.434 334.344L328.879 338.223L326.406 338.352L321.871 325.32H325.809ZM341.805 325.32V327.887H334.281V325.32H341.805ZM336.004 322.18H339.672V334.027C339.672 334.379 339.715 334.648 339.801 334.836C339.887 335.023 340.027 335.156 340.223 335.234C340.418 335.305 340.668 335.34 340.973 335.34C341.191 335.34 341.379 335.332 341.535 335.316C341.691 335.301 341.836 335.281 341.969 335.258V337.906C341.656 338.008 341.324 338.086 340.973 338.141C340.621 338.203 340.238 338.234 339.824 338.234C339.035 338.234 338.352 338.105 337.773 337.848C337.203 337.59 336.766 337.184 336.461 336.629C336.156 336.066 336.004 335.336 336.004 334.438V322.18ZM347.137 320V338H343.48V320H347.137ZM346.656 331.215L345.742 331.238C345.742 330.348 345.852 329.531 346.07 328.789C346.297 328.039 346.617 327.387 347.031 326.832C347.445 326.277 347.941 325.848 348.52 325.543C349.105 325.238 349.75 325.086 350.453 325.086C351.078 325.086 351.648 325.176 352.164 325.355C352.68 325.535 353.125 325.82 353.5 326.211C353.875 326.602 354.164 327.113 354.367 327.746C354.57 328.379 354.672 329.148 354.672 330.055V338H350.992V330.031C350.992 329.492 350.914 329.07 350.758 328.766C350.609 328.461 350.391 328.246 350.102 328.121C349.82 327.996 349.477 327.934 349.07 327.934C348.594 327.934 348.199 328.02 347.887 328.191C347.574 328.355 347.328 328.586 347.148 328.883C346.969 329.18 346.84 329.527 346.762 329.926C346.691 330.324 346.656 330.754 346.656 331.215ZM356.535 331.789V331.543C356.535 330.613 356.668 329.758 356.934 328.977C357.199 328.188 357.59 327.504 358.105 326.926C358.621 326.348 359.254 325.898 360.004 325.578C360.754 325.25 361.613 325.086 362.582 325.086C363.566 325.086 364.434 325.25 365.184 325.578C365.941 325.898 366.578 326.348 367.094 326.926C367.609 327.504 368 328.188 368.266 328.977C368.531 329.758 368.664 330.613 368.664 331.543V331.789C368.664 332.711 368.531 333.566 368.266 334.355C368 335.137 367.609 335.82 367.094 336.406C366.578 336.984 365.945 337.434 365.195 337.754C364.445 338.074 363.582 338.234 362.605 338.234C361.637 338.234 360.773 338.074 360.016 337.754C359.258 337.434 358.621 336.984 358.105 336.406C357.59 335.82 357.199 335.137 356.934 334.355C356.668 333.566 356.535 332.711 356.535 331.789ZM360.203 331.543V331.789C360.203 332.289 360.242 332.758 360.32 333.195C360.406 333.633 360.543 334.016 360.73 334.344C360.918 334.672 361.164 334.93 361.469 335.117C361.781 335.297 362.16 335.387 362.605 335.387C363.051 335.387 363.426 335.297 363.73 335.117C364.035 334.93 364.281 334.672 364.469 334.344C364.656 334.016 364.789 333.633 364.867 333.195C364.953 332.758 364.996 332.289 364.996 331.789V331.543C364.996 331.051 364.953 330.59 364.867 330.16C364.789 329.723 364.656 329.336 364.469 329C364.281 328.664 364.031 328.402 363.719 328.215C363.414 328.027 363.035 327.934 362.582 327.934C362.145 327.934 361.773 328.027 361.469 328.215C361.164 328.402 360.918 328.664 360.73 329C360.543 329.336 360.406 329.723 360.32 330.16C360.242 330.59 360.203 331.051 360.203 331.543ZM374.172 328.027V338H370.504V325.32H373.949L374.172 328.027ZM373.691 331.215L372.777 331.238C372.777 330.285 372.895 329.43 373.129 328.672C373.363 327.914 373.695 327.27 374.125 326.738C374.562 326.199 375.082 325.789 375.684 325.508C376.293 325.227 376.965 325.086 377.699 325.086C378.293 325.086 378.836 325.172 379.328 325.344C379.82 325.516 380.242 325.793 380.594 326.176C380.953 326.551 381.227 327.051 381.414 327.676C381.602 328.293 381.695 329.055 381.695 329.961V338H378.016V329.949C378.016 329.418 377.941 329.008 377.793 328.719C377.645 328.43 377.426 328.227 377.137 328.109C376.855 327.992 376.512 327.934 376.105 327.934C375.676 327.934 375.309 328.02 375.004 328.191C374.699 328.355 374.449 328.586 374.254 328.883C374.059 329.18 373.914 329.527 373.82 329.926C373.734 330.324 373.691 330.754 373.691 331.215Z" fill="white"/>
<path d="M386.148 248.16C384.645 242.125 381.793 237.574 375.719 237.574H367.887V246.832C367.887 254.02 361.793 260.074 354.84 260.074H333.98C328.277 260.074 323.551 264.957 323.551 270.68V290.562C323.551 296.227 328.473 299.547 333.98 301.168C340.582 303.102 346.93 303.453 354.84 301.168C360.094 299.644 365.27 296.578 365.27 290.562V282.613H344.43V279.957H375.719C381.793 279.957 384.039 275.719 386.148 269.371C388.336 262.828 388.238 256.539 386.148 248.16V248.16ZM356.148 287.906C358.316 287.906 360.074 289.684 360.074 291.871C360.074 294.078 358.316 295.855 356.148 295.855C354 295.855 352.223 294.059 352.223 291.871C352.242 289.664 354 287.906 356.148 287.906ZM333.023 257.457H353.883C359.684 257.457 364.312 252.672 364.312 246.852V226.949C364.312 221.285 359.547 217.047 353.883 216.09C346.891 214.938 339.293 214.996 333.023 216.109C324.195 217.672 322.594 220.934 322.594 226.969V234.918H343.473V237.574H314.762C308.687 237.574 303.375 241.227 301.715 248.16C299.801 256.109 299.723 261.07 301.715 269.371C303.199 275.543 306.734 279.957 312.809 279.957H319.977V270.426C319.977 263.531 325.934 257.457 333.023 257.457ZM331.715 229.605C329.547 229.605 327.789 227.828 327.789 225.641C327.809 223.434 329.547 221.656 331.715 221.656C333.863 221.656 335.641 223.453 335.641 225.641C335.641 227.828 333.883 229.605 331.715 229.605V229.605Z" fill="white"/>
<path d="M314.887 128.938H321.438C322.742 128.938 323.871 129.133 324.824 129.523C325.785 129.914 326.523 130.492 327.039 131.258C327.555 132.023 327.812 132.969 327.812 134.094C327.812 135.031 327.66 135.828 327.355 136.484C327.051 137.141 326.621 137.684 326.066 138.113C325.52 138.543 324.879 138.891 324.145 139.156L322.902 139.836H317.324L317.301 136.871H321.449C322.02 136.871 322.492 136.77 322.867 136.566C323.242 136.363 323.523 136.078 323.711 135.711C323.906 135.336 324.004 134.898 324.004 134.398C324.004 133.883 323.906 133.438 323.711 133.062C323.516 132.688 323.227 132.402 322.844 132.207C322.469 132.004 322 131.902 321.438 131.902H318.707V146H314.887V128.938ZM324.332 146L320.5 138.418L324.531 138.406L328.422 145.824V146H324.332ZM336.191 146.234C335.184 146.234 334.281 146.074 333.484 145.754C332.688 145.434 332.012 144.992 331.457 144.43C330.91 143.859 330.492 143.203 330.203 142.461C329.914 141.719 329.77 140.926 329.77 140.082V139.637C329.77 138.691 329.902 137.82 330.168 137.023C330.434 136.227 330.82 135.535 331.328 134.949C331.844 134.355 332.477 133.898 333.227 133.578C333.977 133.25 334.832 133.086 335.793 133.086C336.691 133.086 337.492 133.234 338.195 133.531C338.898 133.82 339.492 134.238 339.977 134.785C340.461 135.324 340.828 135.977 341.078 136.742C341.336 137.5 341.465 138.352 341.465 139.297V140.797H331.246V138.441H337.879V138.16C337.879 137.715 337.797 137.324 337.633 136.988C337.477 136.652 337.242 136.395 336.93 136.215C336.625 136.027 336.238 135.934 335.77 135.934C335.324 135.934 334.953 136.027 334.656 136.215C334.359 136.402 334.121 136.668 333.941 137.012C333.77 137.348 333.645 137.742 333.566 138.195C333.488 138.641 333.449 139.121 333.449 139.637V140.082C333.449 140.574 333.516 141.023 333.648 141.43C333.781 141.836 333.977 142.184 334.234 142.473C334.492 142.762 334.805 142.988 335.172 143.152C335.539 143.316 335.957 143.398 336.426 143.398C337.004 143.398 337.555 143.289 338.078 143.07C338.602 142.844 339.055 142.492 339.438 142.016L341.148 143.973C340.891 144.348 340.527 144.711 340.059 145.062C339.598 145.406 339.043 145.688 338.395 145.906C337.746 146.125 337.012 146.234 336.191 146.234ZM349.961 142.977V137.539C349.961 137.156 349.902 136.828 349.785 136.555C349.668 136.281 349.484 136.066 349.234 135.91C348.984 135.754 348.66 135.676 348.262 135.676C347.926 135.676 347.633 135.734 347.383 135.852C347.141 135.969 346.953 136.137 346.82 136.355C346.695 136.574 346.633 136.844 346.633 137.164H342.977C342.977 136.594 343.105 136.062 343.363 135.57C343.621 135.078 343.988 134.645 344.465 134.27C344.949 133.895 345.527 133.605 346.199 133.402C346.871 133.191 347.625 133.086 348.461 133.086C349.453 133.086 350.336 133.254 351.109 133.59C351.891 133.918 352.508 134.414 352.961 135.078C353.414 135.734 353.641 136.562 353.641 137.562V142.871C353.641 143.637 353.684 144.238 353.77 144.676C353.863 145.105 353.996 145.48 354.168 145.801V146H350.477C350.305 145.633 350.176 145.18 350.09 144.641C350.004 144.094 349.961 143.539 349.961 142.977ZM350.418 138.266L350.441 140.281H348.625C348.219 140.281 347.867 140.332 347.57 140.434C347.281 140.535 347.047 140.676 346.867 140.855C346.688 141.027 346.555 141.23 346.469 141.465C346.391 141.691 346.352 141.941 346.352 142.215C346.352 142.473 346.414 142.707 346.539 142.918C346.664 143.121 346.836 143.281 347.055 143.398C347.273 143.516 347.527 143.574 347.816 143.574C348.293 143.574 348.699 143.48 349.035 143.293C349.379 143.105 349.645 142.879 349.832 142.613C350.02 142.34 350.113 142.086 350.113 141.852L350.992 143.375C350.852 143.688 350.68 144.012 350.477 144.348C350.273 144.676 350.016 144.984 349.703 145.273C349.391 145.555 349.012 145.785 348.566 145.965C348.129 146.145 347.602 146.234 346.984 146.234C346.188 146.234 345.465 146.074 344.816 145.754C344.168 145.426 343.648 144.977 343.258 144.406C342.875 143.836 342.684 143.18 342.684 142.438C342.684 141.773 342.805 141.184 343.047 140.668C343.289 140.152 343.652 139.715 344.137 139.355C344.629 138.996 345.246 138.727 345.988 138.547C346.73 138.359 347.598 138.266 348.59 138.266H350.418ZM361.34 143.387C361.73 143.387 362.07 143.312 362.359 143.164C362.648 143.016 362.871 142.809 363.027 142.543C363.191 142.27 363.273 141.941 363.273 141.559H366.719C366.719 142.48 366.48 143.293 366.004 143.996C365.535 144.699 364.902 145.25 364.105 145.648C363.309 146.039 362.41 146.234 361.41 146.234C360.426 146.234 359.566 146.074 358.832 145.754C358.098 145.426 357.484 144.969 356.992 144.383C356.5 143.797 356.129 143.117 355.879 142.344C355.637 141.562 355.516 140.719 355.516 139.812V139.508C355.516 138.609 355.637 137.77 355.879 136.988C356.129 136.207 356.5 135.523 356.992 134.938C357.484 134.352 358.094 133.898 358.82 133.578C359.555 133.25 360.414 133.086 361.398 133.086C362.438 133.086 363.355 133.285 364.152 133.684C364.957 134.082 365.586 134.656 366.039 135.406C366.492 136.148 366.719 137.043 366.719 138.09H363.273C363.273 137.684 363.199 137.32 363.051 137C362.91 136.672 362.691 136.414 362.395 136.227C362.105 136.031 361.746 135.934 361.316 135.934C360.871 135.934 360.504 136.031 360.215 136.227C359.934 136.414 359.719 136.676 359.57 137.012C359.422 137.348 359.32 137.73 359.266 138.16C359.211 138.582 359.184 139.031 359.184 139.508V139.812C359.184 140.297 359.211 140.758 359.266 141.195C359.32 141.625 359.422 142.004 359.57 142.332C359.727 142.66 359.945 142.918 360.227 143.105C360.508 143.293 360.879 143.387 361.34 143.387ZM374.98 133.32V135.887H367.457V133.32H374.98ZM369.18 130.18H372.848V142.027C372.848 142.379 372.891 142.648 372.977 142.836C373.062 143.023 373.203 143.156 373.398 143.234C373.594 143.305 373.844 143.34 374.148 143.34C374.367 143.34 374.555 143.332 374.711 143.316C374.867 143.301 375.012 143.281 375.145 143.258V145.906C374.832 146.008 374.5 146.086 374.148 146.141C373.797 146.203 373.414 146.234 373 146.234C372.211 146.234 371.527 146.105 370.949 145.848C370.379 145.59 369.941 145.184 369.637 144.629C369.332 144.066 369.18 143.336 369.18 142.438V130.18Z" fill="white"/>
<path d="M375.68 51.6094C374.625 51.2578 373.57 50.9258 372.516 50.6133C372.691 49.8906 372.848 49.168 373.004 48.4453C375.406 36.8047 373.824 27.4492 368.492 24.3633C363.355 21.4141 354.977 24.4805 346.5 31.8633C345.66 32.5859 344.84 33.3477 344.059 34.1094C343.531 33.6016 342.984 33.0938 342.438 32.6055C333.551 24.7148 324.645 21.3945 319.313 24.5C314.195 27.4688 312.672 36.2774 314.82 47.293C315.035 48.3867 315.27 49.4609 315.543 50.5547C314.293 50.9063 313.062 51.2969 311.91 51.707C301.48 55.3203 294 61.0235 294 66.9219C294 73.0157 301.969 79.1289 312.809 82.8399C313.688 83.1328 314.566 83.4258 315.465 83.6797C315.172 84.8516 314.918 86.0039 314.684 87.1953C312.633 98.0352 314.234 106.629 319.352 109.578C324.625 112.625 333.492 109.5 342.125 101.941C342.809 101.336 343.492 100.711 344.176 100.047C345.035 100.887 345.934 101.688 346.832 102.469C355.191 109.656 363.453 112.566 368.551 109.617C373.824 106.57 375.543 97.3321 373.316 86.0821C373.141 85.2227 372.945 84.3438 372.73 83.4453C373.355 83.2696 373.961 83.0742 374.566 82.8789C385.836 79.1485 394 73.1133 394 66.9219C394 61.0039 386.305 55.2617 375.68 51.6094V51.6094ZM349.254 35.0273C356.52 28.6992 363.297 26.2188 366.383 27.9961C369.684 29.8906 370.953 37.5469 368.883 47.6055C368.746 48.2695 368.609 48.9141 368.434 49.5586C364.098 48.582 359.703 47.8789 355.289 47.4883C352.75 43.8555 349.977 40.3789 346.969 37.1172C347.73 36.3945 348.473 35.7109 349.254 35.0273V35.0273ZM326.656 77.0586C327.652 78.7578 328.668 80.4571 329.742 82.1172C326.695 81.7852 323.668 81.2969 320.68 80.6524C321.539 77.8399 322.613 74.9297 323.863 71.961C324.762 73.6797 325.68 75.3789 326.656 77.0586V77.0586ZM320.738 53.5625C323.551 52.9375 326.539 52.4297 329.645 52.0391C328.609 53.6602 327.594 55.3203 326.637 57C325.68 58.6602 324.742 60.3594 323.863 62.0781C322.633 59.168 321.598 56.3164 320.738 53.5625ZM326.09 67.0196C327.379 64.3242 328.785 61.6875 330.27 59.0899C331.754 56.4922 333.355 53.9727 335.035 51.4922C337.965 51.2774 340.953 51.1602 344 51.1602C347.047 51.1602 350.055 51.2774 352.965 51.4922C354.625 53.9531 356.207 56.4727 357.711 59.0508C359.215 61.6289 360.621 64.2656 361.949 66.9414C360.641 69.6367 359.234 72.293 357.73 74.9102C356.246 77.5078 354.664 80.0274 353.004 82.5274C350.094 82.7422 347.066 82.8399 344 82.8399C340.934 82.8399 337.965 82.7422 335.094 82.5664C333.395 80.086 331.793 77.5469 330.289 74.9492C328.785 72.3516 327.398 69.7149 326.09 67.0196ZM361.363 77.0196C362.359 75.3008 363.297 73.5625 364.215 71.8047C365.465 74.6367 366.559 77.5078 367.516 80.4571C364.488 81.1407 361.422 81.668 358.336 82.0196C359.391 80.3789 360.387 78.6992 361.363 77.0196ZM364.176 62.0781C363.258 60.3594 362.32 58.6406 361.344 56.961C360.387 55.3008 359.391 53.6602 358.355 52.0391C361.5 52.4297 364.508 52.957 367.32 53.6016C366.422 56.4922 365.367 59.3047 364.176 62.0781V62.0781ZM344.039 40.1055C346.09 42.332 348.023 44.6758 349.82 47.0977C345.953 46.9219 342.066 46.9219 338.199 47.0977C340.113 44.5781 342.086 42.2344 344.039 40.1055ZM321.383 28.1328C324.664 26.2188 331.949 28.9531 339.625 35.75C340.113 36.1797 340.602 36.6484 341.109 37.1172C338.082 40.3789 335.289 43.8555 332.73 47.4883C328.316 47.8789 323.941 48.5625 319.605 49.5195C319.352 48.5234 319.137 47.5078 318.922 46.4922C317.086 37.0391 318.297 29.9102 321.383 28.1328V28.1328ZM316.598 79.6172C315.777 79.3828 314.977 79.1289 314.176 78.8555C310.016 77.5469 305.289 75.4766 301.871 72.7617C299.898 71.3946 298.57 69.2852 298.199 66.9219C298.199 63.3477 304.371 58.7774 313.277 55.6719C314.391 55.2813 315.523 54.9297 316.656 54.5977C317.984 58.836 319.586 62.9961 321.441 67.0196C319.566 71.1016 317.945 75.3203 316.598 79.6172V79.6172ZM339.371 98.7579C336.148 101.707 332.418 104.051 328.355 105.652C326.187 106.688 323.688 106.785 321.461 105.906C318.355 104.109 317.066 97.2149 318.824 87.9375C319.039 86.8438 319.273 85.75 319.547 84.6758C323.922 85.6133 328.336 86.2578 332.809 86.5899C335.387 90.2422 338.219 93.7383 341.246 97.0196C340.621 97.625 339.996 98.211 339.371 98.7579ZM344.156 94.0118C342.164 91.8633 340.172 89.4805 338.238 86.9219C340.113 87 342.047 87.0391 344 87.0391C346.012 87.0391 347.984 87 349.937 86.9024C348.141 89.3828 346.207 91.7461 344.156 94.0118V94.0118ZM369.684 99.8711C369.508 102.254 368.336 104.481 366.461 105.984C363.355 107.781 356.734 105.438 349.586 99.3047C348.766 98.6016 347.945 97.8399 347.105 97.0586C350.094 93.7578 352.848 90.2617 355.348 86.5899C359.82 86.2188 364.273 85.5352 368.668 84.5391C368.863 85.3399 369.039 86.1407 369.195 86.9219C370.152 91.1407 370.309 95.5352 369.684 99.8711V99.8711ZM373.238 78.875C372.691 79.0508 372.145 79.2266 371.578 79.3828C370.211 75.125 368.531 70.9649 366.598 66.9219C368.473 62.9375 370.055 58.836 371.383 54.6367C372.398 54.9297 373.375 55.2422 374.313 55.5547C383.414 58.6797 389.801 63.3281 389.801 66.8828C389.801 70.711 382.984 75.6524 373.238 78.875ZM344 75.9453C348.941 75.9453 352.945 71.9414 352.945 67C352.945 62.0586 348.941 58.0547 344 58.0547C339.059 58.0547 335.055 62.0586 335.055 67C335.055 71.9414 339.059 75.9453 344 75.9453Z" fill="white"/>
<path d="M47.2891 338H43.5391L43.5625 335.047H47.2891C48.1406 335.047 48.8594 334.852 49.4453 334.461C50.0312 334.062 50.4766 333.477 50.7812 332.703C51.0859 331.922 51.2383 330.973 51.2383 329.855V329.07C51.2383 328.227 51.1523 327.484 50.9805 326.844C50.8086 326.195 50.5547 325.652 50.2188 325.215C49.8828 324.777 49.4648 324.449 48.9648 324.23C48.4727 324.012 47.9062 323.902 47.2656 323.902H43.4688V320.938H47.2656C48.4219 320.938 49.4766 321.133 50.4297 321.523C51.3906 321.914 52.2188 322.473 52.9141 323.199C53.6172 323.926 54.1602 324.785 54.543 325.777C54.9258 326.77 55.1172 327.875 55.1172 329.094V329.855C55.1172 331.066 54.9258 332.172 54.543 333.172C54.1602 334.164 53.6172 335.023 52.9141 335.75C52.2188 336.469 51.3945 337.023 50.4414 337.414C49.4883 337.805 48.4375 338 47.2891 338ZM45.707 320.938V338H41.8867V320.938H45.707ZM63.9766 334.977V329.539C63.9766 329.156 63.918 328.828 63.8008 328.555C63.6836 328.281 63.5 328.066 63.25 327.91C63 327.754 62.6758 327.676 62.2773 327.676C61.9414 327.676 61.6484 327.734 61.3984 327.852C61.1562 327.969 60.9688 328.137 60.8359 328.355C60.7109 328.574 60.6484 328.844 60.6484 329.164H56.9922C56.9922 328.594 57.1211 328.062 57.3789 327.57C57.6367 327.078 58.0039 326.645 58.4805 326.27C58.9648 325.895 59.543 325.605 60.2148 325.402C60.8867 325.191 61.6406 325.086 62.4766 325.086C63.4688 325.086 64.3516 325.254 65.125 325.59C65.9062 325.918 66.5234 326.414 66.9766 327.078C67.4297 327.734 67.6562 328.562 67.6562 329.562V334.871C67.6562 335.637 67.6992 336.238 67.7852 336.676C67.8789 337.105 68.0117 337.48 68.1836 337.801V338H64.4922C64.3203 337.633 64.1914 337.18 64.1055 336.641C64.0195 336.094 63.9766 335.539 63.9766 334.977ZM64.4336 330.266L64.457 332.281H62.6406C62.2344 332.281 61.8828 332.332 61.5859 332.434C61.2969 332.535 61.0625 332.676 60.8828 332.855C60.7031 333.027 60.5703 333.23 60.4844 333.465C60.4062 333.691 60.3672 333.941 60.3672 334.215C60.3672 334.473 60.4297 334.707 60.5547 334.918C60.6797 335.121 60.8516 335.281 61.0703 335.398C61.2891 335.516 61.543 335.574 61.832 335.574C62.3086 335.574 62.7148 335.48 63.0508 335.293C63.3945 335.105 63.6602 334.879 63.8477 334.613C64.0352 334.34 64.1289 334.086 64.1289 333.852L65.0078 335.375C64.8672 335.688 64.6953 336.012 64.4922 336.348C64.2891 336.676 64.0312 336.984 63.7188 337.273C63.4062 337.555 63.0273 337.785 62.582 337.965C62.1445 338.145 61.6172 338.234 61 338.234C60.2031 338.234 59.4805 338.074 58.832 337.754C58.1836 337.426 57.6641 336.977 57.2734 336.406C56.8906 335.836 56.6992 335.18 56.6992 334.438C56.6992 333.773 56.8203 333.184 57.0625 332.668C57.3047 332.152 57.668 331.715 58.1523 331.355C58.6445 330.996 59.2617 330.727 60.0039 330.547C60.7461 330.359 61.6133 330.266 62.6055 330.266H64.4336ZM76.5039 325.32V327.887H68.9805V325.32H76.5039ZM70.7031 322.18H74.3711V334.027C74.3711 334.379 74.4141 334.648 74.5 334.836C74.5859 335.023 74.7266 335.156 74.9219 335.234C75.1172 335.305 75.3672 335.34 75.6719 335.34C75.8906 335.34 76.0781 335.332 76.2344 335.316C76.3906 335.301 76.5352 335.281 76.668 335.258V337.906C76.3555 338.008 76.0234 338.086 75.6719 338.141C75.3203 338.203 74.9375 338.234 74.5234 338.234C73.7344 338.234 73.0508 338.105 72.4727 337.848C71.9023 337.59 71.4648 337.184 71.1602 336.629C70.8555 336.066 70.7031 335.336 70.7031 334.438V322.18ZM84.9766 334.977V329.539C84.9766 329.156 84.918 328.828 84.8008 328.555C84.6836 328.281 84.5 328.066 84.25 327.91C84 327.754 83.6758 327.676 83.2773 327.676C82.9414 327.676 82.6484 327.734 82.3984 327.852C82.1562 327.969 81.9688 328.137 81.8359 328.355C81.7109 328.574 81.6484 328.844 81.6484 329.164H77.9922C77.9922 328.594 78.1211 328.062 78.3789 327.57C78.6367 327.078 79.0039 326.645 79.4805 326.27C79.9648 325.895 80.543 325.605 81.2148 325.402C81.8867 325.191 82.6406 325.086 83.4766 325.086C84.4688 325.086 85.3516 325.254 86.125 325.59C86.9062 325.918 87.5234 326.414 87.9766 327.078C88.4297 327.734 88.6562 328.562 88.6562 329.562V334.871C88.6562 335.637 88.6992 336.238 88.7852 336.676C88.8789 337.105 89.0117 337.48 89.1836 337.801V338H85.4922C85.3203 337.633 85.1914 337.18 85.1055 336.641C85.0195 336.094 84.9766 335.539 84.9766 334.977ZM85.4336 330.266L85.457 332.281H83.6406C83.2344 332.281 82.8828 332.332 82.5859 332.434C82.2969 332.535 82.0625 332.676 81.8828 332.855C81.7031 333.027 81.5703 333.23 81.4844 333.465C81.4062 333.691 81.3672 333.941 81.3672 334.215C81.3672 334.473 81.4297 334.707 81.5547 334.918C81.6797 335.121 81.8516 335.281 82.0703 335.398C82.2891 335.516 82.543 335.574 82.832 335.574C83.3086 335.574 83.7148 335.48 84.0508 335.293C84.3945 335.105 84.6602 334.879 84.8477 334.613C85.0352 334.34 85.1289 334.086 85.1289 333.852L86.0078 335.375C85.8672 335.688 85.6953 336.012 85.4922 336.348C85.2891 336.676 85.0312 336.984 84.7188 337.273C84.4062 337.555 84.0273 337.785 83.582 337.965C83.1445 338.145 82.6172 338.234 82 338.234C81.2031 338.234 80.4805 338.074 79.832 337.754C79.1836 337.426 78.6641 336.977 78.2734 336.406C77.8906 335.836 77.6992 335.18 77.6992 334.438C77.6992 333.773 77.8203 333.184 78.0625 332.668C78.3047 332.152 78.668 331.715 79.1523 331.355C79.6445 330.996 80.2617 330.727 81.0039 330.547C81.7461 330.359 82.6133 330.266 83.6055 330.266H85.4336ZM91.0703 320H94.7266V334.988L94.3516 338H91.0703V320ZM102.637 331.52V331.766C102.637 332.727 102.535 333.602 102.332 334.391C102.137 335.18 101.836 335.863 101.43 336.441C101.023 337.012 100.512 337.453 99.8945 337.766C99.2773 338.078 98.5508 338.234 97.7148 338.234C96.9414 338.234 96.2773 338.074 95.7227 337.754C95.168 337.426 94.7031 336.973 94.3281 336.395C93.9531 335.816 93.6484 335.141 93.4141 334.367C93.1875 333.594 93.0117 332.762 92.8867 331.871V331.449C93.0117 330.559 93.1875 329.727 93.4141 328.953C93.6484 328.18 93.9531 327.504 94.3281 326.926C94.7031 326.348 95.1641 325.898 95.7109 325.578C96.2656 325.25 96.9258 325.086 97.6914 325.086C98.5352 325.086 99.2656 325.246 99.8828 325.566C100.508 325.887 101.023 326.336 101.43 326.914C101.836 327.484 102.137 328.164 102.332 328.953C102.535 329.734 102.637 330.59 102.637 331.52ZM98.9805 331.766V331.52C98.9805 331.035 98.9453 330.578 98.875 330.148C98.8125 329.719 98.6992 329.34 98.5352 329.012C98.3789 328.676 98.1562 328.414 97.8672 328.227C97.5859 328.031 97.2227 327.934 96.7773 327.934C96.3398 327.934 95.9688 328.008 95.6641 328.156C95.3594 328.305 95.1133 328.516 94.9258 328.789C94.7383 329.055 94.6016 329.379 94.5156 329.762C94.4297 330.145 94.3828 330.57 94.375 331.039V332.281C94.3828 332.906 94.4648 333.453 94.6211 333.922C94.7773 334.391 95.0312 334.754 95.3828 335.012C95.7344 335.262 96.207 335.387 96.8008 335.387C97.2539 335.387 97.6211 335.301 97.9023 335.129C98.1914 334.949 98.4102 334.699 98.5586 334.379C98.7148 334.059 98.8242 333.676 98.8867 333.23C98.9492 332.785 98.9805 332.297 98.9805 331.766ZM111.297 334.977V329.539C111.297 329.156 111.238 328.828 111.121 328.555C111.004 328.281 110.82 328.066 110.57 327.91C110.32 327.754 109.996 327.676 109.598 327.676C109.262 327.676 108.969 327.734 108.719 327.852C108.477 327.969 108.289 328.137 108.156 328.355C108.031 328.574 107.969 328.844 107.969 329.164H104.312C104.312 328.594 104.441 328.062 104.699 327.57C104.957 327.078 105.324 326.645 105.801 326.27C106.285 325.895 106.863 325.605 107.535 325.402C108.207 325.191 108.961 325.086 109.797 325.086C110.789 325.086 111.672 325.254 112.445 325.59C113.227 325.918 113.844 326.414 114.297 327.078C114.75 327.734 114.977 328.562 114.977 329.562V334.871C114.977 335.637 115.02 336.238 115.105 336.676C115.199 337.105 115.332 337.48 115.504 337.801V338H111.812C111.641 337.633 111.512 337.18 111.426 336.641C111.34 336.094 111.297 335.539 111.297 334.977ZM111.754 330.266L111.777 332.281H109.961C109.555 332.281 109.203 332.332 108.906 332.434C108.617 332.535 108.383 332.676 108.203 332.855C108.023 333.027 107.891 333.23 107.805 333.465C107.727 333.691 107.688 333.941 107.688 334.215C107.688 334.473 107.75 334.707 107.875 334.918C108 335.121 108.172 335.281 108.391 335.398C108.609 335.516 108.863 335.574 109.152 335.574C109.629 335.574 110.035 335.48 110.371 335.293C110.715 335.105 110.98 334.879 111.168 334.613C111.355 334.34 111.449 334.086 111.449 333.852L112.328 335.375C112.188 335.688 112.016 336.012 111.812 336.348C111.609 336.676 111.352 336.984 111.039 337.273C110.727 337.555 110.348 337.785 109.902 337.965C109.465 338.145 108.938 338.234 108.32 338.234C107.523 338.234 106.801 338.074 106.152 337.754C105.504 337.426 104.984 336.977 104.594 336.406C104.211 335.836 104.02 335.18 104.02 334.438C104.02 333.773 104.141 333.184 104.383 332.668C104.625 332.152 104.988 331.715 105.473 331.355C105.965 330.996 106.582 330.727 107.324 330.547C108.066 330.359 108.934 330.266 109.926 330.266H111.754ZM124.129 334.473C124.129 334.238 124.055 334.031 123.906 333.852C123.766 333.672 123.508 333.508 123.133 333.359C122.766 333.211 122.246 333.062 121.574 332.914C120.941 332.781 120.352 332.609 119.805 332.398C119.258 332.18 118.781 331.918 118.375 331.613C117.969 331.301 117.652 330.934 117.426 330.512C117.199 330.082 117.086 329.594 117.086 329.047C117.086 328.516 117.199 328.012 117.426 327.535C117.66 327.059 117.996 326.637 118.434 326.27C118.879 325.902 119.418 325.613 120.051 325.402C120.691 325.191 121.418 325.086 122.23 325.086C123.348 325.086 124.312 325.262 125.125 325.613C125.938 325.957 126.562 326.441 127 327.066C127.438 327.684 127.656 328.391 127.656 329.188H124C124 328.859 123.938 328.574 123.812 328.332C123.688 328.09 123.496 327.902 123.238 327.77C122.98 327.629 122.641 327.559 122.219 327.559C121.891 327.559 121.602 327.617 121.352 327.734C121.109 327.844 120.918 327.996 120.777 328.191C120.645 328.387 120.578 328.613 120.578 328.871C120.578 329.051 120.617 329.215 120.695 329.363C120.781 329.504 120.91 329.637 121.082 329.762C121.262 329.879 121.492 329.984 121.773 330.078C122.062 330.172 122.414 330.262 122.828 330.348C123.711 330.512 124.516 330.742 125.242 331.039C125.977 331.336 126.562 331.746 127 332.27C127.445 332.793 127.668 333.484 127.668 334.344C127.668 334.906 127.539 335.422 127.281 335.891C127.031 336.359 126.668 336.77 126.191 337.121C125.715 337.473 125.145 337.746 124.48 337.941C123.816 338.137 123.066 338.234 122.23 338.234C121.035 338.234 120.023 338.02 119.195 337.59C118.367 337.16 117.742 336.621 117.32 335.973C116.906 335.316 116.699 334.645 116.699 333.957H120.133C120.148 334.379 120.254 334.723 120.449 334.988C120.652 335.254 120.914 335.449 121.234 335.574C121.555 335.691 121.914 335.75 122.312 335.75C122.711 335.75 123.043 335.695 123.309 335.586C123.574 335.477 123.777 335.328 123.918 335.141C124.059 334.945 124.129 334.723 124.129 334.473ZM135.684 338.234C134.676 338.234 133.773 338.074 132.977 337.754C132.18 337.434 131.504 336.992 130.949 336.43C130.402 335.859 129.984 335.203 129.695 334.461C129.406 333.719 129.262 332.926 129.262 332.082V331.637C129.262 330.691 129.395 329.82 129.66 329.023C129.926 328.227 130.312 327.535 130.82 326.949C131.336 326.355 131.969 325.898 132.719 325.578C133.469 325.25 134.324 325.086 135.285 325.086C136.184 325.086 136.984 325.234 137.688 325.531C138.391 325.82 138.984 326.238 139.469 326.785C139.953 327.324 140.32 327.977 140.57 328.742C140.828 329.5 140.957 330.352 140.957 331.297V332.797H130.738V330.441H137.371V330.16C137.371 329.715 137.289 329.324 137.125 328.988C136.969 328.652 136.734 328.395 136.422 328.215C136.117 328.027 135.73 327.934 135.262 327.934C134.816 327.934 134.445 328.027 134.148 328.215C133.852 328.402 133.613 328.668 133.434 329.012C133.262 329.348 133.137 329.742 133.059 330.195C132.98 330.641 132.941 331.121 132.941 331.637V332.082C132.941 332.574 133.008 333.023 133.141 333.43C133.273 333.836 133.469 334.184 133.727 334.473C133.984 334.762 134.297 334.988 134.664 335.152C135.031 335.316 135.449 335.398 135.918 335.398C136.496 335.398 137.047 335.289 137.57 335.07C138.094 334.844 138.547 334.492 138.93 334.016L140.641 335.973C140.383 336.348 140.02 336.711 139.551 337.062C139.09 337.406 138.535 337.688 137.887 337.906C137.238 338.125 136.504 338.234 135.684 338.234Z" fill="white"/>
<path d="M134.75 223.286V232.214C134.75 240.083 115.154 246.5 91 246.5C66.8463 246.5 47.25 240.083 47.25 232.214V223.286C47.25 215.417 66.8463 209 91 209C115.154 209 134.75 215.417 134.75 223.286ZM134.75 243.375V263.464C134.75 271.333 115.154 277.75 91 277.75C66.8463 277.75 47.25 271.333 47.25 263.464V243.375C56.6494 249.848 73.8531 252.862 91 252.862C108.147 252.862 125.35 249.848 134.75 243.375ZM134.75 274.625V294.714C134.75 302.583 115.154 309 91 309C66.8463 309 47.25 302.583 47.25 294.714V274.625C56.6494 281.098 73.8531 284.112 91 284.112C108.147 284.112 125.35 281.098 134.75 274.625Z" fill="white"/>
<path d="M23.52 73.8571H21.4888L21.5015 72.2575H23.52C23.9813 72.2575 24.3706 72.1517 24.688 71.9402C25.0054 71.7243 25.2466 71.407 25.4116 70.988C25.5767 70.5648 25.6592 70.0507 25.6592 69.4455V69.0202C25.6592 68.5632 25.6126 68.1612 25.5195 67.8142C25.4264 67.4629 25.2889 67.1688 25.1069 66.9319C24.925 66.6949 24.6986 66.5171 24.4277 66.3987C24.1611 66.2802 23.8543 66.2209 23.5073 66.2209H21.4507V64.615H23.5073C24.1336 64.615 24.7049 64.7208 25.2212 64.9323C25.7417 65.1439 26.1903 65.4465 26.5669 65.8401C26.9478 66.2336 27.2419 66.6991 27.4492 67.2365C27.6566 67.774 27.7603 68.3728 27.7603 69.0329V69.4455C27.7603 70.1015 27.6566 70.7002 27.4492 71.2419C27.2419 71.7793 26.9478 72.2448 26.5669 72.6384C26.1903 73.0277 25.7438 73.3282 25.2275 73.5398C24.7113 73.7514 24.1421 73.8571 23.52 73.8571ZM22.6631 64.615V73.8571H20.5938V64.615H22.6631ZM28.6362 70.4929V70.3596C28.6362 69.856 28.7082 69.3926 28.8521 68.9695C28.9959 68.542 29.2075 68.1718 29.4868 67.8586C29.7661 67.5455 30.1089 67.3021 30.5151 67.1286C30.9214 66.9509 31.3869 66.862 31.9116 66.862C32.4448 66.862 32.9146 66.9509 33.3208 67.1286C33.7313 67.3021 34.0762 67.5455 34.3555 67.8586C34.6348 68.1718 34.8464 68.542 34.9902 68.9695C35.1341 69.3926 35.2061 69.856 35.2061 70.3596V70.4929C35.2061 70.9922 35.1341 71.4556 34.9902 71.883C34.8464 72.3062 34.6348 72.6765 34.3555 72.9939C34.0762 73.307 33.7334 73.5503 33.3271 73.7238C32.9209 73.8973 32.4533 73.9841 31.9243 73.9841C31.3996 73.9841 30.932 73.8973 30.5215 73.7238C30.111 73.5503 29.7661 73.307 29.4868 72.9939C29.2075 72.6765 28.9959 72.3062 28.8521 71.883C28.7082 71.4556 28.6362 70.9922 28.6362 70.4929ZM30.623 70.3596V70.4929C30.623 70.7637 30.6442 71.0176 30.6865 71.2546C30.7331 71.4916 30.8071 71.6989 30.9087 71.8767C31.0103 72.0544 31.1436 72.1941 31.3086 72.2956C31.4779 72.393 31.6831 72.4416 31.9243 72.4416C32.1655 72.4416 32.3687 72.393 32.5337 72.2956C32.6987 72.1941 32.832 72.0544 32.9336 71.8767C33.0352 71.6989 33.1071 71.4916 33.1494 71.2546C33.196 71.0176 33.2192 70.7637 33.2192 70.4929V70.3596C33.2192 70.093 33.196 69.8433 33.1494 69.6106C33.1071 69.3736 33.0352 69.1641 32.9336 68.9821C32.832 68.8002 32.6966 68.6584 32.5273 68.5569C32.3623 68.4553 32.1571 68.4045 31.9116 68.4045C31.6746 68.4045 31.4736 68.4553 31.3086 68.5569C31.1436 68.6584 31.0103 68.8002 30.9087 68.9821C30.8071 69.1641 30.7331 69.3736 30.6865 69.6106C30.6442 69.8433 30.623 70.093 30.623 70.3596ZM39.1162 72.4416C39.3278 72.4416 39.5119 72.4014 39.6685 72.321C39.825 72.2406 39.9456 72.1285 40.0303 71.9846C40.1191 71.8365 40.1636 71.6587 40.1636 71.4514H42.0298C42.0298 71.9507 41.9007 72.3908 41.6426 72.7717C41.3887 73.1526 41.0459 73.4509 40.6143 73.6667C40.1826 73.8783 39.696 73.9841 39.1543 73.9841C38.6211 73.9841 38.1556 73.8973 37.7578 73.7238C37.36 73.5461 37.0278 73.2986 36.7612 72.9812C36.4946 72.6638 36.2936 72.2956 36.1582 71.8767C36.027 71.4535 35.9614 70.9965 35.9614 70.5056V70.3405C35.9614 69.8539 36.027 69.399 36.1582 68.9758C36.2936 68.5526 36.4946 68.1823 36.7612 67.865C37.0278 67.5476 37.3579 67.3021 37.7515 67.1286C38.1493 66.9509 38.6147 66.862 39.1479 66.862C39.7108 66.862 40.208 66.9699 40.6396 67.1858C41.0755 67.4016 41.4162 67.7126 41.6616 68.1189C41.9071 68.5209 42.0298 69.0054 42.0298 69.5725H40.1636C40.1636 69.3524 40.1234 69.1556 40.043 68.9821C39.9668 68.8044 39.8483 68.6648 39.6875 68.5632C39.5309 68.4574 39.3363 68.4045 39.1035 68.4045C38.8623 68.4045 38.6634 68.4574 38.5068 68.5632C38.3545 68.6648 38.2381 68.8065 38.1577 68.9885C38.0773 69.1705 38.0223 69.3778 37.9927 69.6106C37.9631 69.8391 37.9482 70.0824 37.9482 70.3405V70.5056C37.9482 70.768 37.9631 71.0176 37.9927 71.2546C38.0223 71.4874 38.0773 71.6926 38.1577 71.8703C38.2424 72.0481 38.3608 72.1877 38.5132 72.2893C38.6655 72.3908 38.8665 72.4416 39.1162 72.4416ZM45.0068 64.1008V73.8571H43.02V64.1008H45.0068ZM49.3677 66.989L46.3779 70.4421L44.7974 72.029L44.0039 70.6897L45.2861 69.0329L46.981 66.989H49.3677ZM47.2729 73.8571L45.3369 70.7024L46.7588 69.5915L49.5454 73.8571H47.2729ZM53.1572 73.9841C52.6113 73.9841 52.1226 73.8973 51.6909 73.7238C51.2593 73.5503 50.8932 73.3112 50.5928 73.0066C50.2965 72.6976 50.0701 72.3422 49.9136 71.9402C49.757 71.5381 49.6787 71.1086 49.6787 70.6516V70.4104C49.6787 69.8983 49.7507 69.4265 49.8945 68.9948C50.0384 68.5632 50.2479 68.1887 50.5229 67.8713C50.8022 67.5497 51.145 67.3021 51.5513 67.1286C51.9575 66.9509 52.4209 66.862 52.9414 66.862C53.4281 66.862 53.8618 66.9424 54.2427 67.1032C54.6235 67.2598 54.9451 67.4862 55.2075 67.7824C55.4699 68.0744 55.6688 68.4278 55.8042 68.8425C55.9438 69.253 56.0137 69.7142 56.0137 70.2263V71.0388H50.4785V69.7629H54.0713V69.6106C54.0713 69.3694 54.0269 69.1578 53.938 68.9758C53.8534 68.7938 53.7264 68.6542 53.5571 68.5569C53.3921 68.4553 53.1826 68.4045 52.9287 68.4045C52.6875 68.4045 52.4865 68.4553 52.3257 68.5569C52.1649 68.6584 52.0358 68.8023 51.9385 68.9885C51.8454 69.1705 51.7777 69.3842 51.7354 69.6296C51.693 69.8708 51.6719 70.1311 51.6719 70.4104V70.6516C51.6719 70.9182 51.7078 71.1615 51.7798 71.3816C51.8517 71.6016 51.9575 71.7899 52.0972 71.9465C52.2368 72.1031 52.4061 72.2258 52.605 72.3147C52.8039 72.4035 53.0303 72.448 53.2842 72.448C53.5973 72.448 53.8957 72.3887 54.1792 72.2702C54.4627 72.1475 54.7082 71.9571 54.9155 71.6989L55.8423 72.759C55.7026 72.9621 55.5059 73.1589 55.252 73.3493C55.0023 73.5355 54.7018 73.6879 54.3506 73.8064C53.9993 73.9249 53.6016 73.9841 53.1572 73.9841ZM58.9653 68.5886V73.8571H56.9849V66.989H58.8447L58.9653 68.5886ZM61.0156 66.9382L60.9839 68.7854C60.8993 68.7727 60.7892 68.7621 60.6538 68.7536C60.5184 68.7409 60.402 68.7346 60.3047 68.7346C60.0508 68.7346 59.8307 68.7663 59.6445 68.8298C59.4626 68.889 59.3102 68.9779 59.1875 69.0964C59.069 69.2149 58.9801 69.363 58.9209 69.5407C58.8617 69.7142 58.832 69.9153 58.832 70.1438L58.4575 69.9597C58.4575 69.5069 58.502 69.0922 58.5908 68.7155C58.6797 68.3389 58.8088 68.0131 58.978 67.738C59.1473 67.4587 59.3547 67.2429 59.6001 67.0905C59.8455 66.9382 60.1248 66.862 60.438 66.862C60.5396 66.862 60.6432 66.8684 60.749 66.8811C60.8548 66.8938 60.9437 66.9128 61.0156 66.9382Z" fill="white"/>
<g clip-path="url(#clip0_24_89)">
<path d="M43.0028 34.1367H37.4699V29.1646H43.0028V34.1367ZM43.0028 17.0357H37.4699V22.1166H43.0028V17.0357ZM49.5486 29.1563H44.0156V34.1284H49.5486V29.1563V29.1563ZM36.4654 23.1211H30.9325V28.1518H36.4654V23.1211ZM43.0028 23.1211H37.4699V28.1518H43.0028V23.1211ZM66.1724 31.4916C64.9671 30.6797 62.1881 30.3867 60.0536 30.7885C59.7773 28.7796 58.6557 27.0301 56.6133 25.4565L55.4414 24.678L54.663 25.8499C53.1228 28.1769 52.7042 32.0106 54.3532 34.5385C53.625 34.9319 52.1936 35.4676 50.3019 35.4342H13.9152C13.1869 39.6864 14.4007 45.2109 17.5982 49.0028C20.7037 52.6775 25.3577 54.5441 31.4431 54.5441C44.6183 54.5441 54.37 48.4754 58.9319 37.4515C60.7232 37.4849 64.5904 37.4598 66.5742 33.668C66.6998 33.4587 67.1267 32.5631 67.2857 32.2366L66.1724 31.4916V31.4916ZM23.3906 29.1563H17.8661V34.1284H23.399V29.1563H23.3906ZM29.928 29.1563H24.3951V34.1284H29.928V29.1563ZM36.4654 29.1563H30.9325V34.1284H36.4654V29.1563ZM29.928 23.1211H24.3951V28.1518H29.928V23.1211Z" fill="white"/>
</g>
<path d="M150 277L165 285.66V268.34L150 277ZM284 277L269 268.34V285.66L284 277ZM163.5 278.5H270.5V275.5H163.5V278.5Z" fill="white"/>
<path d="M404 259L421.308 258.344L412.086 243.683L404 259ZM528 181L510.692 181.656L519.914 196.317L528 181ZM416.226 253.082L517.371 189.458L515.774 186.918L414.629 250.542L416.226 253.082Z" fill="white"/>
<path d="M404 67L409.254 83.5045L420.92 70.7024L404 67ZM528 180L522.746 163.496L511.08 176.298L528 180ZM412.968 77.2018L517.011 172.016L519.032 169.798L414.989 74.9844L412.968 77.2018Z" fill="white"/>
<defs>
<clipPath id="clip0_24_89">
<rect width="53.5714" height="53.5714" fill="white" transform="translate(13.7143 9)"/>
</clipPath>
</defs>
</svg>
